<svg width="21" height="21" viewBox="0 0 21 21" fill="none" xmlns="http://www.w3.org/2000/svg">
<g id="vuesax/linear/clipboard-tick">
<g id="clipboard-tick">
<path id="Vector" d="M8.09985 12.5198L9.35319 13.7731L12.6954 10.4309" stroke="#9197B3" stroke-width="1.25334" stroke-linecap="round" stroke-linejoin="round"/>
<path id="Vector_2" d="M8.67625 5.25044H12.0185C13.6896 5.25044 13.6896 4.41488 13.6896 3.57932C13.6896 1.9082 12.854 1.9082 12.0185 1.9082H8.67625C7.84069 1.9082 7.00513 1.9082 7.00513 3.57932C7.00513 5.25044 7.84069 5.25044 8.67625 5.25044Z" stroke="#9197B3" stroke-width="1.25334" stroke-miterlimit="10" stroke-linecap="round" stroke-linejoin="round"/>
<path id="Vector_3" d="M13.6897 3.59607C16.4721 3.74647 17.8675 4.77421 17.8675 8.59271V13.6061C17.8675 16.9483 17.0319 18.6194 12.8541 18.6194H7.84075C3.66295 18.6194 2.82739 16.9483 2.82739 13.6061V8.59271C2.82739 4.78256 4.22278 3.74647 7.00519 3.59607" stroke="#9197B3" stroke-width="1.25334" stroke-miterlimit="10" stroke-linecap="round" stroke-linejoin="round"/>
</g>
</g>
</svg>
