<svg width="21" height="21" viewBox="0 0 21 21" fill="none" xmlns="http://www.w3.org/2000/svg">
<path d="M5.33398 8.73953V7.06841C5.33398 4.30271 6.16954 2.05505 10.3473 2.05505C14.5251 2.05505 15.3607 4.30271 15.3607 7.06841V8.73953" stroke="#9197B3" stroke-width="1.25334" stroke-linecap="round" stroke-linejoin="round"/>
<path d="M10.3474 15.8417C11.5011 15.8417 12.4363 14.9065 12.4363 13.7528C12.4363 12.5992 11.5011 11.6639 10.3474 11.6639C9.19378 11.6639 8.25854 12.5992 8.25854 13.7528C8.25854 14.9065 9.19378 15.8417 10.3474 15.8417Z" stroke="#9197B3" stroke-width="1.25334" stroke-linecap="round" stroke-linejoin="round"/>
<path d="M14.5251 18.7662H6.1695C2.82726 18.7662 1.9917 17.9307 1.9917 14.5884V12.9173C1.9917 9.57506 2.82726 8.7395 6.1695 8.7395H14.5251C17.8673 8.7395 18.7029 9.57506 18.7029 12.9173V14.5884C18.7029 17.9307 17.8673 18.7662 14.5251 18.7662Z" stroke="#9197B3" stroke-width="1.25334" stroke-linecap="round" stroke-linejoin="round"/>
</svg>
