<svg width="21" height="21" viewBox="0 0 21 21" fill="none" xmlns="http://www.w3.org/2000/svg">
<path d="M14.6896 8.13609C14.6896 11.3697 11.8822 13.985 8.42294 13.985L7.64588 14.9208L7.18632 15.4723C6.79361 15.9402 6.0416 15.8399 5.78257 15.2801L4.66293 12.8152C3.14221 11.7457 2.15625 10.0495 2.15625 8.13609C2.15625 4.90247 4.96373 2.28717 8.42294 2.28717C10.9463 2.28717 13.1271 3.68256 14.1047 5.6879C14.4808 6.43155 14.6896 7.25875 14.6896 8.13609Z" stroke="#9197B3" stroke-width="1.25334" stroke-linecap="round" stroke-linejoin="round"/>
<path d="M18.8676 11.3613C18.8676 13.2747 17.8816 14.9709 16.3609 16.0405L15.2412 18.5053C14.9822 19.0651 14.2302 19.1738 13.8375 18.6975L12.6009 17.2102C10.5788 17.2102 8.774 16.3162 7.646 14.9208L8.42306 13.985C11.8823 13.985 14.6898 11.3697 14.6898 8.13605C14.6898 7.25871 14.4809 6.43151 14.1049 5.68787C16.8371 6.31454 18.8676 8.62066 18.8676 11.3613Z" stroke="#9197B3" stroke-width="1.25334" stroke-linecap="round" stroke-linejoin="round"/>
<path d="M6.33398 8.13605H10.5118" stroke="#9197B3" stroke-width="1.25334" stroke-linecap="round" stroke-linejoin="round"/>
</svg>
