<svg width="21" height="21" viewBox="0 0 21 21" fill="none" xmlns="http://www.w3.org/2000/svg">
<path d="M7.97443 9.17264C7.89088 9.16429 7.79061 9.16429 7.6987 9.17264C5.71007 9.1058 4.13086 7.47646 4.13086 5.47111C4.13086 3.42399 5.78527 1.76123 7.84074 1.76123C9.88786 1.76123 11.5506 3.42399 11.5506 5.47111C11.5423 7.47646 9.96306 9.1058 7.97443 9.17264Z" stroke="#9197B3" stroke-width="1.25334" stroke-linecap="round" stroke-linejoin="round"/>
<path d="M14.0322 3.43237C15.6532 3.43237 16.9567 4.7442 16.9567 6.35683C16.9567 7.93604 15.7033 9.2228 14.1408 9.28129C14.074 9.27293 13.9988 9.27293 13.9236 9.28129" stroke="#9197B3" stroke-width="1.25334" stroke-linecap="round" stroke-linejoin="round"/>
<path d="M3.79657 12.2559C1.77452 13.6095 1.77452 15.8154 3.79657 17.1606C6.09436 18.698 9.86273 18.698 12.1605 17.1606C14.1826 15.807 14.1826 13.6011 12.1605 12.2559C9.87109 10.7268 6.10271 10.7268 3.79657 12.2559Z" stroke="#9197B3" stroke-width="1.25334" stroke-linecap="round" stroke-linejoin="round"/>
<path d="M15.6448 16.8013C16.2464 16.676 16.8146 16.4337 17.2825 16.0744C18.5859 15.0968 18.5859 13.4841 17.2825 12.5065C16.8229 12.1556 16.2631 11.9217 15.6698 11.788" stroke="#9197B3" stroke-width="1.25334" stroke-linecap="round" stroke-linejoin="round"/>
</svg>
