<svg width="33" height="33" viewBox="0 0 33 33" fill="none" xmlns="http://www.w3.org/2000/svg">
<mask id="path-1-outside-1_1030_6686" maskUnits="userSpaceOnUse" x="-0.5" y="-0.75" width="34" height="34" fill="black">
<rect fill="white" x="-0.5" y="-0.75" width="34" height="34"/>
<path fill-rule="evenodd" clip-rule="evenodd" d="M14.7138 0.272063C14.3413 0.293308 13.9978 0.349838 13.9506 0.397524C13.9033 0.44521 13.687 0.484234 13.4699 0.484234C12.8479 0.484234 12.8169 0.557815 12.8169 2.03626C12.8169 3.25112 12.8061 3.33063 12.6362 3.37549C12.5369 3.40175 12.4556 3.45946 12.4556 3.50377C12.4556 3.54799 12.3564 3.58428 12.2351 3.58428C12.1138 3.58428 11.9895 3.62531 11.9588 3.67546C11.9281 3.72561 11.8343 3.76737 11.7503 3.76819C11.6663 3.76901 11.313 3.91261 10.9652 4.08722C10.6175 4.26183 10.2268 4.4047 10.0971 4.40479C9.92353 4.40488 9.66078 4.20666 9.10005 3.65267C8.00504 2.57075 8.10964 2.62783 7.65268 2.8617C7.4378 2.97175 7.24162 3.0891 7.21678 3.12256C7.19194 3.15602 6.96857 3.32488 6.72045 3.49776C6.47232 3.67072 6.09793 3.98656 5.88838 4.19973C5.67882 4.41282 5.48282 4.58724 5.45283 4.58724C5.42275 4.58724 5.18755 4.81865 4.93003 5.10148C4.67252 5.38432 4.32983 5.75222 4.16833 5.91899C4.00683 6.08584 3.87477 6.26473 3.87477 6.31661C3.87477 6.3684 3.83413 6.4108 3.78445 6.4108C3.73477 6.4108 3.69412 6.47234 3.69412 6.54756C3.69412 6.62279 3.65348 6.68433 3.6038 6.68433C3.55412 6.68433 3.51347 6.72719 3.51347 6.77961C3.51347 6.83204 3.41231 6.9771 3.28857 7.10202C3.03385 7.35914 2.92844 7.68027 3.0119 7.9455C3.04306 8.04452 3.43281 8.48829 3.87811 8.93159C4.32341 9.37481 4.68814 9.77882 4.68878 9.82933C4.68968 9.91066 3.98334 11.5834 3.7746 11.9942C3.73034 12.0812 3.69412 12.2103 3.69412 12.2807C3.69412 12.4794 3.48448 12.5196 2.44475 12.5207C1.91482 12.5213 1.32871 12.5472 1.14246 12.5783C0.842759 12.6282 0.803739 12.6649 0.803739 12.8964C0.803739 13.0403 0.768964 13.158 0.726421 13.158C0.425008 13.158 0.424286 19.1321 0.725699 19.3201C0.768603 19.3469 0.803739 19.4542 0.803739 19.5586C0.803739 19.9265 1.03931 19.9903 2.407 19.9934C3.58835 19.996 3.69412 20.0099 3.69412 20.1615C3.69412 20.2524 3.77542 20.4966 3.87477 20.7042C3.97413 20.9118 4.05542 21.1237 4.05542 21.1752C4.05542 21.3083 4.53857 22.3152 4.61995 22.3517C4.65725 22.3685 4.68769 22.4796 4.68769 22.5987C4.68769 22.75 4.42909 23.0793 3.82961 23.6914C3.13809 24.3975 2.97153 24.6194 2.97153 24.8348C2.97153 24.9819 3.0026 25.1023 3.04053 25.1023C3.07847 25.1023 3.20998 25.2664 3.33283 25.467C3.45567 25.6676 3.58718 25.8317 3.62512 25.8317C3.66305 25.8317 3.69412 25.8756 3.69412 25.9293C3.69412 25.9831 3.74498 26.0803 3.80703 26.1454C3.86917 26.2105 4.09345 26.4709 4.30562 26.7241C4.79536 27.3089 5.44425 27.9635 5.99649 28.4303C6.23387 28.6309 6.48063 28.8463 6.54495 28.9089C6.60935 28.9716 6.70545 29.0229 6.75874 29.0229C6.81194 29.0229 6.85548 29.0639 6.85548 29.1141C6.85548 29.1642 6.91645 29.2053 6.99097 29.2053C7.06549 29.2053 7.12645 29.2463 7.12645 29.2965C7.12645 29.3466 7.17252 29.3876 7.22879 29.3876C7.28506 29.3876 7.40384 29.4723 7.49281 29.5759C7.71934 29.8396 8.15652 29.8329 8.45567 29.5611C8.58836 29.4406 8.9791 29.0446 9.32405 28.681C9.88569 28.0891 10.2153 27.8895 10.3029 28.0883C10.3453 28.1846 11.3478 28.6582 11.5092 28.6582C11.5826 28.6582 11.6427 28.6992 11.6427 28.7494C11.6427 28.7995 11.7646 28.8406 11.9137 28.8406C12.0627 28.8406 12.1846 28.8816 12.1846 28.9317C12.1846 28.9819 12.2688 29.0229 12.3717 29.0229C12.7674 29.0229 12.8169 29.1997 12.8169 30.6121V31.9406H13.0879C13.2369 31.9406 13.3588 31.9762 13.3588 32.0196C13.3588 32.1541 14.5896 32.245 16.475 32.2497C18.2531 32.2543 18.9058 32.2063 19.6532 32.0163C19.9706 31.9356 20.0532 31.8649 20.1676 31.5764L20.3039 31.2326L21.5057 31.1876C22.4347 31.1527 22.8509 31.0944 23.3397 30.9303C23.6875 30.8135 23.9855 30.6853 24.0021 30.6454C24.0187 30.6056 24.1101 30.5729 24.2053 30.5729C24.3005 30.5729 24.3784 30.5319 24.3784 30.4818C24.3784 30.4316 24.4394 30.3906 24.5139 30.3906C24.5884 30.3906 24.6494 30.3496 24.6494 30.2994C24.6494 30.2493 24.7003 30.2077 24.7623 30.207C25.0092 30.2046 26.5462 28.7223 26.5462 28.4867C26.5462 28.4389 26.5795 28.3862 26.6201 28.3694C26.7341 28.3226 27.3316 27.0238 27.4625 26.5383C27.5462 26.2278 27.6248 26.1052 27.7401 26.1052C27.8286 26.1052 27.9011 26.0642 27.9011 26.014C27.9011 25.9639 27.9786 25.9229 28.0734 25.9229C28.2586 25.9229 29.191 25.4683 29.2409 25.3538C29.2575 25.3158 29.3185 25.2839 29.3764 25.283C29.6864 25.2781 31.0987 23.8408 31.5141 23.1076C31.5886 22.976 31.68 22.8547 31.7173 22.838C31.7546 22.8213 31.785 22.7508 31.785 22.6812C31.785 22.6117 31.858 22.4203 31.9473 22.2557C32.3181 21.5721 32.5041 20.6423 32.4996 19.4948C32.4962 18.6233 32.3536 17.6222 32.2126 17.4799C32.1762 17.4431 32.1463 17.2967 32.1463 17.1546C32.1463 17.0125 32.1057 16.8963 32.056 16.8963C32.0063 16.8963 31.9657 16.8142 31.9657 16.7139C31.9657 16.6136 31.925 16.5315 31.8754 16.5315C31.8257 16.5315 31.785 16.4085 31.785 16.258C31.785 16.1076 31.8257 15.9845 31.8754 15.9845C31.925 15.9845 31.9657 15.9049 31.9657 15.8075C31.9657 15.7101 32.0015 15.6082 32.0453 15.5809C32.089 15.5536 32.1468 15.4383 32.1736 15.3248C32.2005 15.2112 32.2853 14.8721 32.3619 14.5712C32.5451 13.8516 32.5462 12.3723 32.3641 11.5624C32.2853 11.2113 32.1994 10.8113 32.1733 10.6734C32.1472 10.5355 32.0898 10.4226 32.0458 10.4226C32.0017 10.4226 31.9657 10.3406 31.9657 10.2403C31.9657 10.14 31.925 10.0579 31.8754 10.0579C31.8257 10.0579 31.785 9.97585 31.785 9.87556C31.785 9.77526 31.7444 9.6932 31.6947 9.6932C31.645 9.6932 31.6044 9.63166 31.6044 9.55644C31.6044 9.48121 31.5638 9.41967 31.5141 9.41967C31.4644 9.41967 31.4232 9.36843 31.4226 9.3057C31.4199 9.05788 29.969 7.50493 29.7401 7.50493C29.709 7.50493 29.6177 7.42816 29.5371 7.33443C29.4566 7.24061 29.0453 7.01102 28.6232 6.8242C28.2012 6.63737 27.8007 6.45693 27.7334 6.4232C27.6659 6.38937 27.5514 6.17793 27.4788 5.95318C27.3248 5.47604 27.0325 4.783 26.9026 4.58724C26.8528 4.51202 26.7881 4.37863 26.7588 4.29091C26.7297 4.20311 26.6699 4.13135 26.626 4.13135C26.5822 4.13135 26.5462 4.09078 26.5462 4.04118C26.5462 3.86493 25.9457 3.21228 25.3268 2.71572C25.0785 2.51641 24.8549 2.33278 24.8301 2.30761C24.8052 2.28254 24.663 2.20048 24.5139 2.12544C24.3649 2.0504 24.2226 1.96834 24.1978 1.94326C24.1259 1.87041 23.2836 1.5656 22.8881 1.46932C22.6894 1.42091 22.0195 1.3538 21.3996 1.32024L20.2724 1.25925L20.1808 0.985713C20.0436 0.576415 19.9149 0.484234 19.4802 0.484234C19.2631 0.484234 19.0449 0.443295 18.9952 0.393148C18.8975 0.294584 15.8347 0.207874 14.7138 0.272063ZM17.8038 1.21721C18.9748 1.33657 19.1398 1.37295 19.1389 1.51172C19.1382 1.62806 18.7405 1.8519 18.5345 1.8519C18.4699 1.8519 18.417 1.8829 18.417 1.92083C18.417 1.95876 18.2849 2.04876 18.1235 2.12079C17.9621 2.19291 17.7283 2.347 17.6041 2.46316C17.4799 2.57941 17.3072 2.6973 17.2202 2.7252C17.1332 2.75311 17.0621 2.81912 17.0621 2.87182C17.0621 2.92452 16.941 3.0756 16.793 3.20754C16.5271 3.4446 16.5235 3.4601 16.4994 4.49606L16.475 5.54461L15.7976 5.60269C14.6098 5.70444 13.9873 5.79617 13.9381 5.87659C13.9117 5.91971 13.773 5.95491 13.6298 5.95491C13.4867 5.95491 13.3444 5.99594 13.3137 6.04609C13.283 6.09623 13.1587 6.13726 13.0374 6.13726C12.9161 6.13726 12.8169 6.17829 12.8169 6.22844C12.8169 6.27859 12.7418 6.31962 12.6502 6.31962C12.3591 6.31962 10.6423 7.22839 10.3678 7.52773C10.2873 7.61553 10.1856 7.68747 10.1418 7.68765C9.91495 7.68857 7.93937 9.63221 7.93937 9.85441C7.93937 9.89726 7.85872 10.0197 7.76017 10.1265C7.55793 10.3456 7.39625 10.6257 6.90453 11.6079C6.71629 11.984 6.52661 12.363 6.48307 12.4501C6.43954 12.5371 6.40386 12.691 6.40386 12.792C6.40386 12.893 6.36321 12.9756 6.31353 12.9756C6.26386 12.9756 6.22321 13.0962 6.22321 13.2438C6.22321 13.3913 6.18256 13.5373 6.13288 13.5683C6.08321 13.5993 6.04256 13.7558 6.04256 13.9162C6.04256 14.0765 6.00101 14.351 5.95016 14.5263C5.74142 15.2459 5.89416 18.6481 6.1486 18.9432C6.18961 18.9908 6.22321 19.1247 6.22321 19.2408C6.22321 19.3568 6.25907 19.523 6.30297 19.6101C6.34686 19.6972 6.42183 19.8709 6.46943 19.9963C6.66092 20.4997 7.43654 22.0022 7.505 22.0022C7.5452 22.0022 7.57808 22.0692 7.57808 22.1511C7.57808 22.233 7.64961 22.3663 7.73714 22.4474C7.82466 22.5285 8.00775 22.7462 8.14405 22.9313C8.46253 23.3636 9.30048 24.2095 9.7287 24.5309C9.91206 24.6685 10.1278 24.8534 10.2081 24.9417C10.2884 25.0301 10.4205 25.1023 10.5016 25.1023C10.5827 25.1023 10.6491 25.1386 10.6491 25.1831C10.6491 25.2946 12.6013 26.2876 12.8204 26.2876C12.9178 26.2876 12.9975 26.3286 12.9975 26.3788C12.9975 26.4289 13.0997 26.4699 13.2246 26.4699C13.3495 26.4699 13.5222 26.5074 13.6085 26.5533C13.833 26.6725 14.6492 26.8194 15.4363 26.8822C16.6183 26.9764 16.5202 26.8769 16.5202 27.9821C16.5202 28.5399 16.5645 29.0274 16.6255 29.1429C16.7836 29.4417 17.6767 30.2082 17.8668 30.2082C17.921 30.2082 17.9654 30.2493 17.9654 30.2994C17.9654 30.3496 18.0264 30.3906 18.1009 30.3906C18.1754 30.3906 18.2364 30.4316 18.2364 30.4818C18.2364 30.5319 18.3177 30.5729 18.417 30.5729C18.5164 30.5729 18.5977 30.614 18.5977 30.6641C18.5977 30.7143 18.6688 30.7566 18.7557 30.7582C18.8427 30.7598 18.9909 30.82 19.0852 30.8921C19.2492 31.0173 19.2452 31.0275 18.9949 31.1242C18.3091 31.3892 14.9314 31.4117 14.021 31.1573C13.7923 31.0935 13.6914 30.5811 13.7222 29.6397C13.7524 28.7192 13.7308 28.5842 13.5224 28.3882C13.4138 28.286 13.2129 28.2023 13.0761 28.2023C12.9395 28.2023 12.8024 28.1613 12.7717 28.1111C12.741 28.061 12.6167 28.02 12.4954 28.02C12.3741 28.02 12.275 27.9789 12.275 27.9288C12.275 27.8786 12.1999 27.8376 12.1082 27.8376C12.0164 27.8376 11.8031 27.7709 11.634 27.6894C11.4649 27.6077 11.1436 27.4539 10.9201 27.3475C10.6965 27.241 10.4933 27.1333 10.4685 27.1083C10.4436 27.0831 10.2865 27.0131 10.1194 26.9526C9.81822 26.8436 9.81036 26.8477 9.25504 27.4085C8.52883 28.1417 7.95663 28.6582 7.87046 28.6582C7.83279 28.6582 7.69243 28.5556 7.55848 28.4303C7.42462 28.3049 7.29337 28.2023 7.26691 28.2023C7.18462 28.2023 6.85322 27.9117 6.01899 27.1082C5.57649 26.6819 5.17716 26.3195 5.13173 26.3028C5.0862 26.286 5.04899 26.2319 5.04899 26.1823C5.04899 26.1328 4.99823 26.0382 4.93609 25.9721C4.69781 25.7186 4.50704 25.4621 4.50704 25.3949C4.50704 25.3564 4.42575 25.2658 4.32639 25.1934C4.22704 25.1211 4.14575 24.9835 4.14575 24.8875C4.14575 24.7879 4.51463 24.3441 5.00383 23.855C5.60801 23.2511 5.86191 22.9332 5.86191 22.7809C5.86191 22.6619 5.83066 22.5508 5.79254 22.5341C5.73221 22.5077 5.5838 22.2159 4.99308 20.9624C4.92452 20.8168 4.86834 20.622 4.86834 20.5293C4.86834 20.4368 4.8277 20.361 4.77802 20.361C4.72834 20.361 4.68769 20.2379 4.68769 20.0875C4.68769 19.937 4.64705 19.814 4.59737 19.814C4.54769 19.814 4.50578 19.7217 4.50415 19.6088C4.50262 19.4959 4.44002 19.3216 4.36505 19.2213C4.2433 19.0583 4.09318 19.0341 2.94723 18.9934L1.66562 18.9478L1.54919 18.4463C1.39428 17.7794 1.39256 14.8462 1.54657 14.1153L1.66182 13.5683L2.95554 13.5227C4.12795 13.4814 4.25901 13.46 4.35376 13.2947C4.50442 13.032 4.68471 12.5005 4.68634 12.3146C4.68706 12.2268 4.72834 12.155 4.77802 12.155C4.8277 12.155 4.86834 12.0549 4.86834 11.9324C4.86834 11.81 4.90899 11.6845 4.95867 11.6535C5.00835 11.6225 5.04899 11.5176 5.04899 11.4202C5.04899 11.3228 5.08964 11.2432 5.13932 11.2432C5.18899 11.2432 5.22964 11.1856 5.22964 11.1152C5.22964 11.0448 5.3719 10.7332 5.54578 10.4226C5.71965 10.1121 5.86146 9.79022 5.86092 9.70724C5.85983 9.53419 5.11917 8.69025 4.96842 8.69025C4.91341 8.69025 4.86834 8.64757 4.86834 8.59542C4.86834 8.54327 4.70097 8.33985 4.4963 8.14336C4.05307 7.71774 4.06391 7.50238 4.55347 7.0082C4.72662 6.83341 4.86834 6.66737 4.86834 6.6392C4.86834 6.50745 6.77726 4.58724 6.90823 4.58724C6.93343 4.58724 7.05248 4.48786 7.17279 4.36641C7.29319 4.24487 7.4742 4.11904 7.57519 4.08667C7.67617 4.05431 7.75873 3.98966 7.75873 3.94289C7.75873 3.73573 7.99971 3.91417 8.81381 4.72401C9.55447 5.46082 9.72843 5.5902 9.97863 5.5902C10.1404 5.5902 10.2863 5.55856 10.3029 5.51981C10.3444 5.42279 11.7117 4.7696 11.8733 4.7696C11.9452 4.7696 12.004 4.72857 12.004 4.67842C12.004 4.62827 12.1259 4.58724 12.275 4.58724C12.424 4.58724 12.5459 4.54621 12.5459 4.49606C12.5459 4.44591 12.6075 4.40488 12.6829 4.40488C12.9713 4.40488 13.5241 4.17712 13.6228 4.01765C13.6842 3.91836 13.7296 3.39427 13.735 2.7232C13.74 2.10301 13.7776 1.54044 13.8185 1.47306C13.8657 1.39538 14.2335 1.3135 14.8227 1.24958C16.0859 1.11254 16.7102 1.10579 17.8038 1.21721ZM22.7234 2.43426C22.9806 2.5041 23.3221 2.62737 23.4824 2.70806C23.6427 2.78885 23.8197 2.85486 23.8756 2.85486C23.9315 2.85486 24.0358 2.93692 24.1075 3.03722C24.1791 3.13751 24.29 3.21957 24.354 3.21957C24.474 3.21957 24.9323 3.59094 25.184 3.8921C25.2625 3.9861 25.4115 4.15168 25.5148 4.26C25.8164 4.57603 26.3656 5.63159 26.3656 5.89528V6.13726H25.4462C24.9405 6.13726 24.4019 6.17556 24.2494 6.22224C24.0968 6.26902 23.7986 6.35782 23.5867 6.41964C23.1726 6.54054 23.1601 6.59981 23.4348 7.14551C23.5346 7.34382 23.6005 7.373 23.875 7.34063C24.0525 7.31975 24.1978 7.26605 24.1978 7.22146C24.1978 7.17678 24.8481 7.14022 25.643 7.14022C26.5462 7.14022 27.0882 7.17441 27.0882 7.2314C27.0882 7.28155 27.2304 7.32258 27.4043 7.32258C27.5782 7.32258 27.7204 7.36361 27.7204 7.41376C27.7204 7.4639 27.78 7.50493 27.8528 7.50493C27.9957 7.50493 28.683 7.86964 29.1205 8.17764C29.5164 8.45647 30.4302 9.378 30.4302 9.49854C30.4302 9.55543 30.4708 9.60203 30.5205 9.60203C30.5702 9.60203 30.6108 9.6602 30.6108 9.73122C30.6108 9.80225 30.6433 9.87401 30.6831 9.89079C30.8387 9.95625 31.322 11.1439 31.4715 11.8281C31.673 12.7507 31.6143 13.9446 31.323 14.8448C31.2095 15.1958 31.084 15.4967 31.0443 15.5134C31.0046 15.5301 30.9721 15.6224 30.9721 15.7185C30.9721 15.8147 30.9315 15.8933 30.8818 15.8933C30.8321 15.8933 30.7915 15.9548 30.7915 16.0301C30.7915 16.1053 30.7508 16.1668 30.7012 16.1668C30.6515 16.1668 30.6108 16.2284 30.6108 16.3036C30.6108 16.3788 30.5702 16.4404 30.5205 16.4404C30.4708 16.4404 30.4302 16.4879 30.4302 16.5459C30.4302 16.7074 29.224 17.8578 28.9053 18.0002C28.7504 18.0694 28.6237 18.1571 28.6237 18.195C28.6237 18.2329 28.5424 18.2639 28.443 18.2639C28.3437 18.2639 28.2624 18.305 28.2624 18.3551C28.2624 18.4053 28.1985 18.4463 28.1205 18.4463C28.0424 18.4463 27.9204 18.5049 27.8495 18.5766C27.7023 18.7251 27.6749 19.0845 27.8108 19.0845C27.8604 19.0845 27.9011 19.1666 27.9011 19.2669C27.9011 19.3995 27.9613 19.4492 28.1216 19.4492C28.2429 19.4492 28.3672 19.4082 28.3979 19.3581C28.4286 19.3079 28.5153 19.2669 28.5906 19.2669C28.8344 19.2669 29.9819 18.4531 30.5236 17.896C31.144 17.258 31.2457 17.2864 31.4077 18.1433C31.6106 19.2171 31.6218 19.5858 31.4773 20.4311C31.3212 21.344 30.871 22.5493 30.6859 22.5493C30.6446 22.5493 30.6107 22.6006 30.6107 22.6633C30.6106 22.7725 30.3953 23.0626 29.9512 23.5522C29.5643 23.9788 28.98 24.4282 28.4625 24.6972C28.1786 24.8448 27.9327 24.9962 27.9162 25.0339C27.8996 25.0715 27.7472 25.1023 27.5775 25.1023C27.4077 25.1023 27.2688 25.1392 27.2688 25.1842C27.2688 25.3022 26.5381 25.3931 25.5978 25.392C24.6247 25.3909 23.8365 25.2981 23.8365 25.1846C23.8365 25.1394 23.764 25.1023 23.6754 25.1023C23.568 25.1023 23.467 25.2319 23.373 25.4898C23.1966 25.9743 23.2392 26.1052 23.573 26.1052C23.718 26.1052 23.8365 26.1463 23.8365 26.1964C23.8365 26.2466 24.0576 26.2876 24.3279 26.2876C24.5983 26.2876 24.8445 26.3286 24.8752 26.3788C24.9059 26.4289 25.2538 26.4699 25.6483 26.4699C26.3093 26.4699 26.3656 26.4845 26.3656 26.6553C26.3656 26.8341 25.9532 27.7444 25.83 27.8376C25.7969 27.8627 25.6721 28.0268 25.5526 28.2023C25.4332 28.3778 25.2522 28.5958 25.1504 28.6866C24.7112 29.0787 24.5547 29.2053 24.5095 29.2053C24.4829 29.2053 24.3739 29.2873 24.2673 29.3876C24.1607 29.4879 24.0201 29.57 23.9549 29.57C23.8898 29.57 23.8365 29.6063 23.8365 29.6505C23.8365 29.6948 23.7451 29.7538 23.6333 29.7816C23.5214 29.8094 23.1866 29.9206 22.8891 30.0286C22.2191 30.272 20.5271 30.3064 19.8108 30.0913C19.1948 29.9063 18.4908 29.5665 18.3161 29.3698C18.2357 29.2793 18.1295 29.2053 18.08 29.2053C18.0305 29.2053 17.8828 29.0971 17.7519 28.9649C17.5308 28.7416 17.5138 28.6674 17.5138 27.9238C17.5138 27.4834 17.5384 27.0582 17.5686 26.9789C17.6573 26.7455 18.3601 26.7864 18.6162 27.04C19.12 27.5389 19.9726 27.6275 20.5386 27.2398C20.9879 26.9319 21.1268 26.7853 21.1268 26.6186C21.1268 26.5428 21.1674 26.4553 21.2171 26.4243C21.2668 26.3933 21.3074 26.1653 21.3074 25.9175C21.3074 25.6697 21.2668 25.467 21.2171 25.467C21.1674 25.467 21.1268 25.4007 21.1268 25.3197C21.1268 25.0947 20.4982 24.5632 20.106 24.4566C19.4565 24.28 18.417 24.7015 18.417 25.1414C18.417 25.2202 18.3764 25.2846 18.3267 25.2846C18.277 25.2846 18.2364 25.3822 18.2364 25.5015C18.2364 25.6555 18.1594 25.7505 17.9708 25.8294C17.8249 25.8905 17.6623 25.9136 17.6095 25.8807C17.5473 25.8418 17.5138 25.1855 17.5138 24.0028V22.1846H19.4622C21.5125 22.1846 21.5179 22.1856 21.7477 22.6192C21.8868 22.8815 22.4834 23.1875 22.8555 23.1875C23.4136 23.1875 24.1978 22.7829 24.1978 22.4949C24.1978 22.4329 24.2404 22.3678 24.2924 22.3502C24.3446 22.3327 24.4104 22.0908 24.4389 21.8124C24.5271 20.9491 24.0386 20.2936 23.1866 20.1323C22.5589 20.0134 21.7031 20.459 21.5355 20.992C21.4776 21.1762 21.4212 21.1816 19.5497 21.1816C17.4666 21.1816 17.5138 21.1932 17.5138 20.6821C17.5138 20.4267 18.3691 19.6316 18.6438 19.6316C18.7178 19.6316 18.7783 19.6006 18.7783 19.5627C18.7783 19.5247 18.9105 19.4393 19.0719 19.3727C19.2333 19.3061 19.4467 19.2163 19.5461 19.1731C19.7541 19.0826 20.5929 18.9119 20.9913 18.879C21.2456 18.858 21.2639 18.8307 21.2893 18.435C21.31 18.1128 21.2817 18 21.1697 17.9566C20.997 17.8896 19.7971 18.0568 19.5699 18.1793C19.4837 18.2258 19.3336 18.2639 19.2365 18.2639C19.1394 18.2639 19.0348 18.305 19.0041 18.3551C18.9734 18.4053 18.8695 18.4463 18.773 18.4463C18.6765 18.4463 18.5977 18.4873 18.5977 18.5375C18.5977 18.5876 18.5164 18.6286 18.417 18.6286C18.3177 18.6286 18.2364 18.6621 18.2364 18.7029C18.2364 18.8039 17.6363 19.0866 17.5681 19.0179C17.4971 18.946 17.4974 17.0453 17.5686 16.8581C17.617 16.7307 17.9688 16.7139 20.5973 16.7139C23.3469 16.7139 23.5756 16.7259 23.6301 16.8735C23.7848 17.2924 24.5957 17.807 25.101 17.807C25.4515 17.807 25.9292 17.592 26.2111 17.3075C27.1175 16.3925 26.3772 14.708 25.0687 14.708C24.7196 14.708 23.8365 15.1481 23.8365 15.3221C23.8365 15.6958 23.7084 15.7109 20.5461 15.7109H17.5138V14.632C17.5138 14.0386 17.5382 13.5284 17.568 13.4984C17.6372 13.4284 18.0557 13.6182 18.0557 13.7197C18.0557 13.7617 18.137 13.7962 18.2364 13.7962C18.3357 13.7962 18.417 13.8372 18.417 13.8874C18.417 13.9375 18.4983 13.9786 18.5977 13.9786C18.697 13.9786 18.7783 14.0196 18.7783 14.0697C18.7783 14.1199 18.8799 14.1609 19.0041 14.1609C19.1283 14.1609 19.2299 14.1975 19.2299 14.2422C19.2299 14.3425 19.6904 14.4263 20.6127 14.4938L21.3181 14.5454L21.2901 14.1025L21.2622 13.6594L20.7203 13.5938C20.1168 13.5206 18.8698 13.1503 18.8691 13.044C18.8688 13.0064 18.8077 12.9756 18.7332 12.9756C18.6586 12.9756 18.5977 12.9346 18.5977 12.8844C18.5977 12.8343 18.5349 12.7933 18.4581 12.7933C18.3813 12.7933 18.2238 12.701 18.1081 12.5881C17.9924 12.4752 17.8114 12.3116 17.7058 12.2243C17.5763 12.1173 17.5138 11.9613 17.5138 11.7456V11.4256H19.4622C21.0304 11.4256 21.4358 11.451 21.5396 11.5559C21.6106 11.6275 21.6687 11.7309 21.6687 11.7858C21.6687 11.8406 21.8596 12.0077 22.0929 12.157C22.4261 12.3704 22.6197 12.4285 22.9961 12.4285C23.2596 12.4285 23.4752 12.3875 23.4752 12.3374C23.4752 12.2872 23.5379 12.2462 23.6145 12.2462C23.9897 12.2462 24.4674 11.5166 24.4681 10.9423C24.4694 10.0585 23.7756 9.32949 22.9332 9.32949C22.4242 9.32949 21.8685 9.66831 21.5515 10.1719L21.3936 10.4226H19.5085C17.8729 10.4226 17.6162 10.4036 17.5686 10.2784C17.5384 10.1991 17.5138 9.35667 17.5138 8.40641C17.5138 6.92167 17.5336 6.67093 17.6553 6.62379C17.8846 6.53498 18.2364 6.77843 18.2364 7.02598C18.2364 7.32075 18.8331 7.8897 19.3083 8.04799C19.8069 8.21412 20.3217 8.05939 20.7637 7.61052C21.1643 7.20377 21.3937 6.57118 21.2341 6.31315C21.1751 6.21777 21.1268 6.07289 21.1268 5.99111C21.1268 5.7886 20.4239 5.13431 20.2064 5.13431C20.1099 5.13431 19.9626 5.09993 19.8788 5.05799C19.6499 4.94311 18.9314 5.19075 18.6189 5.49227C18.3624 5.73964 18.3228 5.74958 17.9303 5.66505L17.5138 5.57543V4.68115V3.78688L17.941 3.41205C18.176 3.20589 18.4166 3.03722 18.4755 3.03722C18.5344 3.03722 18.5961 3.00448 18.6128 2.96455C18.6689 2.82887 19.4742 2.50127 20.0986 2.35995C20.8094 2.19911 21.9796 2.23221 22.7234 2.43426ZM20.0921 6.17875C20.4901 6.58048 20.2774 7.14022 19.7267 7.14022C19.1895 7.14022 18.9441 6.51064 19.3373 6.14082C19.5987 5.895 19.8222 5.90622 20.0921 6.17875ZM16.4092 6.57829C16.4973 6.63482 16.5183 7.08533 16.4995 8.51445L16.475 10.377L15.3304 10.4025C14.2342 10.4269 14.1831 10.4198 14.1252 10.2356C13.9892 9.80335 13.258 9.32949 12.7266 9.32949C12.1025 9.32949 11.3324 9.91859 11.229 10.475C11.1591 10.8512 11.2581 11.6079 11.3772 11.6079C11.4239 11.6079 11.462 11.6519 11.462 11.7056C11.462 11.8233 11.5935 11.9572 11.9727 12.2264C12.35 12.4941 13.0161 12.4998 13.4397 12.2392C13.7714 12.035 13.9911 11.838 13.9911 11.7447C13.9911 11.7124 14.0492 11.6275 14.1202 11.5559C14.2183 11.4568 14.5211 11.4256 15.3847 11.4256H16.5202V13.5683V15.7109H14.0243C11.5817 15.7109 11.5248 15.7068 11.3597 15.5146C11.2669 15.4067 11.1911 15.2853 11.1911 15.2449C11.1911 15.0903 10.3969 14.708 10.0756 14.708C9.64055 14.708 8.99039 15.0219 8.84063 15.3044C8.77524 15.4277 8.69051 15.5286 8.65222 15.5286C8.61401 15.5286 8.55467 15.7173 8.52043 15.948C8.418 16.6372 8.60778 17.0771 9.22966 17.5923C9.43307 17.7608 10.0602 17.8278 10.4476 17.7225C10.8553 17.6117 11.462 17.0991 11.462 16.8655C11.462 16.7234 11.6633 16.713 13.9685 16.7352L16.475 16.7595V18.9478V21.136L15.3304 21.1615C14.2342 21.1859 14.1831 21.1788 14.1252 20.9946C14.0291 20.6891 13.544 20.2781 13.1544 20.1722C12.7902 20.0732 12.1437 20.133 11.9664 20.2822C11.9126 20.3274 11.783 20.4354 11.6786 20.5223C11.3205 20.8201 11.1645 21.2599 11.221 21.8124C11.2494 22.0908 11.3153 22.3327 11.3674 22.3502C11.4194 22.3678 11.462 22.4412 11.462 22.5133C11.462 22.7513 12.269 23.1875 12.7094 23.1875C13.0676 23.1875 13.8103 22.8841 13.8106 22.7377C13.8106 22.7093 13.9068 22.5732 14.0244 22.4353C14.2364 22.1864 14.2462 22.1846 15.379 22.1846H16.5202V24.044C16.5202 25.4767 16.4935 25.9137 16.4039 25.9484C16.253 26.0068 14.5563 25.8476 14.2621 25.7474C14.1379 25.7051 13.8534 25.6176 13.6298 25.5529C13.4063 25.4882 13.1847 25.4013 13.1376 25.3599C13.0903 25.3185 12.9583 25.2846 12.844 25.2846C12.7297 25.2846 12.6362 25.2436 12.6362 25.1934C12.6362 25.1433 12.5778 25.1023 12.5064 25.1023C12.2617 25.1023 11.01 24.3426 10.2529 23.7346C9.89761 23.4492 8.93294 22.4667 8.93294 22.3902C8.93294 22.3461 8.85238 22.2228 8.75383 22.1161C8.48186 21.8213 7.84995 20.8067 7.79115 20.5703C7.76252 20.4552 7.70291 20.361 7.65865 20.361C7.6143 20.361 7.57808 20.2814 7.57808 20.184C7.57808 20.0867 7.53743 19.9817 7.48775 19.9507C7.43807 19.9197 7.39743 19.7943 7.39743 19.6718C7.39743 19.5494 7.36139 19.4492 7.31731 19.4492C7.27332 19.4492 7.21488 19.3365 7.18742 19.1985C7.15997 19.0606 7.09385 18.7631 7.04038 18.5375C6.73978 17.2687 6.69606 15.2717 6.94752 14.2977C7.16313 13.4627 7.44711 12.6118 7.51033 12.6114C7.54755 12.6111 7.57808 12.5527 7.57808 12.4817C7.57808 12.3222 8.13628 11.2505 8.50797 10.6962C8.78409 10.2844 10.478 8.50789 10.5945 8.50789C10.6287 8.50789 10.7439 8.42592 10.8504 8.32572C10.9568 8.2256 11.3515 7.98963 11.7272 7.80144C12.103 7.61334 12.424 7.42853 12.4405 7.39096C12.4571 7.3534 12.5462 7.32258 12.6384 7.32258C12.7307 7.32258 12.8313 7.28155 12.8621 7.2314C12.8928 7.18125 13.0171 7.14022 13.1384 7.14022C13.2597 7.14022 13.3588 7.09919 13.3588 7.04904C13.3588 6.9989 13.4783 6.95787 13.6245 6.95787C13.7706 6.95787 13.911 6.92377 13.9366 6.88201C13.9816 6.80833 15.112 6.61786 15.8428 6.56088C16.0415 6.54529 16.2244 6.52632 16.2492 6.51866C16.2741 6.511 16.3461 6.5379 16.4092 6.57829ZM12.9285 10.3371C13.0443 10.3903 13.1907 10.5516 13.2538 10.6955C13.3561 10.9288 13.3467 10.9824 13.1667 11.1913C12.9397 11.4549 12.5222 11.5058 12.3137 11.2953C12.1182 11.0981 12.1544 10.6405 12.3823 10.4262C12.6102 10.2118 12.6442 10.2064 12.9285 10.3371ZM23.2372 10.4293C23.5057 10.6425 23.5606 11.0788 23.3461 11.2953C23.1577 11.4856 22.5808 11.4654 22.508 11.266C22.4758 11.1782 22.4108 11.0802 22.3634 11.048C22.2374 10.9628 22.4853 10.4503 22.7047 10.3426C22.9615 10.2166 22.9714 10.2182 23.2372 10.4293ZM10.4649 15.9105C10.7563 16.2262 10.6662 16.5535 10.2221 16.7923C9.89056 16.9706 9.47887 16.6796 9.47625 16.2652C9.47309 15.7511 10.1077 15.5234 10.4649 15.9105ZM25.5134 15.9352C25.7095 16.2372 25.614 16.6565 25.3182 16.7925C25.0074 16.9355 24.9771 16.9287 24.7069 16.6559C24.4286 16.3749 24.4085 16.1888 24.6268 15.9131C24.8524 15.6282 25.3217 15.6399 25.5134 15.9352ZM13.0004 21.1414C13.0766 21.1695 13.1906 21.3104 13.2537 21.4543C13.3561 21.6879 13.3467 21.7414 13.1667 21.9503C12.9397 22.2138 12.5222 22.2648 12.3137 22.0543C12.1776 21.917 12.1415 21.4728 12.2537 21.3184C12.3624 21.1692 12.6746 21.0077 12.7717 21.0505C12.8214 21.0724 12.9244 21.1133 13.0004 21.1414ZM23.1377 21.1132C23.2488 21.176 23.3696 21.2682 23.4061 21.3184C23.5184 21.4728 23.4822 21.917 23.3461 22.0543C23.1287 22.2737 22.4816 22.1991 22.4816 21.9544C22.4816 21.8888 22.4341 21.819 22.376 21.7995C22.2974 21.7731 22.3013 21.6934 22.3915 21.4877C22.492 21.2585 22.6053 21.1546 22.9119 21.0105C22.925 21.0043 23.0266 21.0506 23.1377 21.1132ZM20.1297 25.5754C20.3415 25.8049 20.3547 25.9149 20.209 26.2377C20.121 26.4326 20.0436 26.4699 19.7267 26.4699C19.4099 26.4699 19.3325 26.4326 19.2445 26.2377C19.097 25.9109 19.113 25.7674 19.3203 25.5582C19.557 25.3192 19.9 25.3265 20.1297 25.5754Z"/>
</mask>
<path fill-rule="evenodd" clip-rule="evenodd" d="M14.7138 0.272063C14.3413 0.293308 13.9978 0.349838 13.9506 0.397524C13.9033 0.44521 13.687 0.484234 13.4699 0.484234C12.8479 0.484234 12.8169 0.557815 12.8169 2.03626C12.8169 3.25112 12.8061 3.33063 12.6362 3.37549C12.5369 3.40175 12.4556 3.45946 12.4556 3.50377C12.4556 3.54799 12.3564 3.58428 12.2351 3.58428C12.1138 3.58428 11.9895 3.62531 11.9588 3.67546C11.9281 3.72561 11.8343 3.76737 11.7503 3.76819C11.6663 3.76901 11.313 3.91261 10.9652 4.08722C10.6175 4.26183 10.2268 4.4047 10.0971 4.40479C9.92353 4.40488 9.66078 4.20666 9.10005 3.65267C8.00504 2.57075 8.10964 2.62783 7.65268 2.8617C7.4378 2.97175 7.24162 3.0891 7.21678 3.12256C7.19194 3.15602 6.96857 3.32488 6.72045 3.49776C6.47232 3.67072 6.09793 3.98656 5.88838 4.19973C5.67882 4.41282 5.48282 4.58724 5.45283 4.58724C5.42275 4.58724 5.18755 4.81865 4.93003 5.10148C4.67252 5.38432 4.32983 5.75222 4.16833 5.91899C4.00683 6.08584 3.87477 6.26473 3.87477 6.31661C3.87477 6.3684 3.83413 6.4108 3.78445 6.4108C3.73477 6.4108 3.69412 6.47234 3.69412 6.54756C3.69412 6.62279 3.65348 6.68433 3.6038 6.68433C3.55412 6.68433 3.51347 6.72719 3.51347 6.77961C3.51347 6.83204 3.41231 6.9771 3.28857 7.10202C3.03385 7.35914 2.92844 7.68027 3.0119 7.9455C3.04306 8.04452 3.43281 8.48829 3.87811 8.93159C4.32341 9.37481 4.68814 9.77882 4.68878 9.82933C4.68968 9.91066 3.98334 11.5834 3.7746 11.9942C3.73034 12.0812 3.69412 12.2103 3.69412 12.2807C3.69412 12.4794 3.48448 12.5196 2.44475 12.5207C1.91482 12.5213 1.32871 12.5472 1.14246 12.5783C0.842759 12.6282 0.803739 12.6649 0.803739 12.8964C0.803739 13.0403 0.768964 13.158 0.726421 13.158C0.425008 13.158 0.424286 19.1321 0.725699 19.3201C0.768603 19.3469 0.803739 19.4542 0.803739 19.5586C0.803739 19.9265 1.03931 19.9903 2.407 19.9934C3.58835 19.996 3.69412 20.0099 3.69412 20.1615C3.69412 20.2524 3.77542 20.4966 3.87477 20.7042C3.97413 20.9118 4.05542 21.1237 4.05542 21.1752C4.05542 21.3083 4.53857 22.3152 4.61995 22.3517C4.65725 22.3685 4.68769 22.4796 4.68769 22.5987C4.68769 22.75 4.42909 23.0793 3.82961 23.6914C3.13809 24.3975 2.97153 24.6194 2.97153 24.8348C2.97153 24.9819 3.0026 25.1023 3.04053 25.1023C3.07847 25.1023 3.20998 25.2664 3.33283 25.467C3.45567 25.6676 3.58718 25.8317 3.62512 25.8317C3.66305 25.8317 3.69412 25.8756 3.69412 25.9293C3.69412 25.9831 3.74498 26.0803 3.80703 26.1454C3.86917 26.2105 4.09345 26.4709 4.30562 26.7241C4.79536 27.3089 5.44425 27.9635 5.99649 28.4303C6.23387 28.6309 6.48063 28.8463 6.54495 28.9089C6.60935 28.9716 6.70545 29.0229 6.75874 29.0229C6.81194 29.0229 6.85548 29.0639 6.85548 29.1141C6.85548 29.1642 6.91645 29.2053 6.99097 29.2053C7.06549 29.2053 7.12645 29.2463 7.12645 29.2965C7.12645 29.3466 7.17252 29.3876 7.22879 29.3876C7.28506 29.3876 7.40384 29.4723 7.49281 29.5759C7.71934 29.8396 8.15652 29.8329 8.45567 29.5611C8.58836 29.4406 8.9791 29.0446 9.32405 28.681C9.88569 28.0891 10.2153 27.8895 10.3029 28.0883C10.3453 28.1846 11.3478 28.6582 11.5092 28.6582C11.5826 28.6582 11.6427 28.6992 11.6427 28.7494C11.6427 28.7995 11.7646 28.8406 11.9137 28.8406C12.0627 28.8406 12.1846 28.8816 12.1846 28.9317C12.1846 28.9819 12.2688 29.0229 12.3717 29.0229C12.7674 29.0229 12.8169 29.1997 12.8169 30.6121V31.9406H13.0879C13.2369 31.9406 13.3588 31.9762 13.3588 32.0196C13.3588 32.1541 14.5896 32.245 16.475 32.2497C18.2531 32.2543 18.9058 32.2063 19.6532 32.0163C19.9706 31.9356 20.0532 31.8649 20.1676 31.5764L20.3039 31.2326L21.5057 31.1876C22.4347 31.1527 22.8509 31.0944 23.3397 30.9303C23.6875 30.8135 23.9855 30.6853 24.0021 30.6454C24.0187 30.6056 24.1101 30.5729 24.2053 30.5729C24.3005 30.5729 24.3784 30.5319 24.3784 30.4818C24.3784 30.4316 24.4394 30.3906 24.5139 30.3906C24.5884 30.3906 24.6494 30.3496 24.6494 30.2994C24.6494 30.2493 24.7003 30.2077 24.7623 30.207C25.0092 30.2046 26.5462 28.7223 26.5462 28.4867C26.5462 28.4389 26.5795 28.3862 26.6201 28.3694C26.7341 28.3226 27.3316 27.0238 27.4625 26.5383C27.5462 26.2278 27.6248 26.1052 27.7401 26.1052C27.8286 26.1052 27.9011 26.0642 27.9011 26.014C27.9011 25.9639 27.9786 25.9229 28.0734 25.9229C28.2586 25.9229 29.191 25.4683 29.2409 25.3538C29.2575 25.3158 29.3185 25.2839 29.3764 25.283C29.6864 25.2781 31.0987 23.8408 31.5141 23.1076C31.5886 22.976 31.68 22.8547 31.7173 22.838C31.7546 22.8213 31.785 22.7508 31.785 22.6812C31.785 22.6117 31.858 22.4203 31.9473 22.2557C32.3181 21.5721 32.5041 20.6423 32.4996 19.4948C32.4962 18.6233 32.3536 17.6222 32.2126 17.4799C32.1762 17.4431 32.1463 17.2967 32.1463 17.1546C32.1463 17.0125 32.1057 16.8963 32.056 16.8963C32.0063 16.8963 31.9657 16.8142 31.9657 16.7139C31.9657 16.6136 31.925 16.5315 31.8754 16.5315C31.8257 16.5315 31.785 16.4085 31.785 16.258C31.785 16.1076 31.8257 15.9845 31.8754 15.9845C31.925 15.9845 31.9657 15.9049 31.9657 15.8075C31.9657 15.7101 32.0015 15.6082 32.0453 15.5809C32.089 15.5536 32.1468 15.4383 32.1736 15.3248C32.2005 15.2112 32.2853 14.8721 32.3619 14.5712C32.5451 13.8516 32.5462 12.3723 32.3641 11.5624C32.2853 11.2113 32.1994 10.8113 32.1733 10.6734C32.1472 10.5355 32.0898 10.4226 32.0458 10.4226C32.0017 10.4226 31.9657 10.3406 31.9657 10.2403C31.9657 10.14 31.925 10.0579 31.8754 10.0579C31.8257 10.0579 31.785 9.97585 31.785 9.87556C31.785 9.77526 31.7444 9.6932 31.6947 9.6932C31.645 9.6932 31.6044 9.63166 31.6044 9.55644C31.6044 9.48121 31.5638 9.41967 31.5141 9.41967C31.4644 9.41967 31.4232 9.36843 31.4226 9.3057C31.4199 9.05788 29.969 7.50493 29.7401 7.50493C29.709 7.50493 29.6177 7.42816 29.5371 7.33443C29.4566 7.24061 29.0453 7.01102 28.6232 6.8242C28.2012 6.63737 27.8007 6.45693 27.7334 6.4232C27.6659 6.38937 27.5514 6.17793 27.4788 5.95318C27.3248 5.47604 27.0325 4.783 26.9026 4.58724C26.8528 4.51202 26.7881 4.37863 26.7588 4.29091C26.7297 4.20311 26.6699 4.13135 26.626 4.13135C26.5822 4.13135 26.5462 4.09078 26.5462 4.04118C26.5462 3.86493 25.9457 3.21228 25.3268 2.71572C25.0785 2.51641 24.8549 2.33278 24.8301 2.30761C24.8052 2.28254 24.663 2.20048 24.5139 2.12544C24.3649 2.0504 24.2226 1.96834 24.1978 1.94326C24.1259 1.87041 23.2836 1.5656 22.8881 1.46932C22.6894 1.42091 22.0195 1.3538 21.3996 1.32024L20.2724 1.25925L20.1808 0.985713C20.0436 0.576415 19.9149 0.484234 19.4802 0.484234C19.2631 0.484234 19.0449 0.443295 18.9952 0.393148C18.8975 0.294584 15.8347 0.207874 14.7138 0.272063ZM17.8038 1.21721C18.9748 1.33657 19.1398 1.37295 19.1389 1.51172C19.1382 1.62806 18.7405 1.8519 18.5345 1.8519C18.4699 1.8519 18.417 1.8829 18.417 1.92083C18.417 1.95876 18.2849 2.04876 18.1235 2.12079C17.9621 2.19291 17.7283 2.347 17.6041 2.46316C17.4799 2.57941 17.3072 2.6973 17.2202 2.7252C17.1332 2.75311 17.0621 2.81912 17.0621 2.87182C17.0621 2.92452 16.941 3.0756 16.793 3.20754C16.5271 3.4446 16.5235 3.4601 16.4994 4.49606L16.475 5.54461L15.7976 5.60269C14.6098 5.70444 13.9873 5.79617 13.9381 5.87659C13.9117 5.91971 13.773 5.95491 13.6298 5.95491C13.4867 5.95491 13.3444 5.99594 13.3137 6.04609C13.283 6.09623 13.1587 6.13726 13.0374 6.13726C12.9161 6.13726 12.8169 6.17829 12.8169 6.22844C12.8169 6.27859 12.7418 6.31962 12.6502 6.31962C12.3591 6.31962 10.6423 7.22839 10.3678 7.52773C10.2873 7.61553 10.1856 7.68747 10.1418 7.68765C9.91495 7.68857 7.93937 9.63221 7.93937 9.85441C7.93937 9.89726 7.85872 10.0197 7.76017 10.1265C7.55793 10.3456 7.39625 10.6257 6.90453 11.6079C6.71629 11.984 6.52661 12.363 6.48307 12.4501C6.43954 12.5371 6.40386 12.691 6.40386 12.792C6.40386 12.893 6.36321 12.9756 6.31353 12.9756C6.26386 12.9756 6.22321 13.0962 6.22321 13.2438C6.22321 13.3913 6.18256 13.5373 6.13288 13.5683C6.08321 13.5993 6.04256 13.7558 6.04256 13.9162C6.04256 14.0765 6.00101 14.351 5.95016 14.5263C5.74142 15.2459 5.89416 18.6481 6.1486 18.9432C6.18961 18.9908 6.22321 19.1247 6.22321 19.2408C6.22321 19.3568 6.25907 19.523 6.30297 19.6101C6.34686 19.6972 6.42183 19.8709 6.46943 19.9963C6.66092 20.4997 7.43654 22.0022 7.505 22.0022C7.5452 22.0022 7.57808 22.0692 7.57808 22.1511C7.57808 22.233 7.64961 22.3663 7.73714 22.4474C7.82466 22.5285 8.00775 22.7462 8.14405 22.9313C8.46253 23.3636 9.30048 24.2095 9.7287 24.5309C9.91206 24.6685 10.1278 24.8534 10.2081 24.9417C10.2884 25.0301 10.4205 25.1023 10.5016 25.1023C10.5827 25.1023 10.6491 25.1386 10.6491 25.1831C10.6491 25.2946 12.6013 26.2876 12.8204 26.2876C12.9178 26.2876 12.9975 26.3286 12.9975 26.3788C12.9975 26.4289 13.0997 26.4699 13.2246 26.4699C13.3495 26.4699 13.5222 26.5074 13.6085 26.5533C13.833 26.6725 14.6492 26.8194 15.4363 26.8822C16.6183 26.9764 16.5202 26.8769 16.5202 27.9821C16.5202 28.5399 16.5645 29.0274 16.6255 29.1429C16.7836 29.4417 17.6767 30.2082 17.8668 30.2082C17.921 30.2082 17.9654 30.2493 17.9654 30.2994C17.9654 30.3496 18.0264 30.3906 18.1009 30.3906C18.1754 30.3906 18.2364 30.4316 18.2364 30.4818C18.2364 30.5319 18.3177 30.5729 18.417 30.5729C18.5164 30.5729 18.5977 30.614 18.5977 30.6641C18.5977 30.7143 18.6688 30.7566 18.7557 30.7582C18.8427 30.7598 18.9909 30.82 19.0852 30.8921C19.2492 31.0173 19.2452 31.0275 18.9949 31.1242C18.3091 31.3892 14.9314 31.4117 14.021 31.1573C13.7923 31.0935 13.6914 30.5811 13.7222 29.6397C13.7524 28.7192 13.7308 28.5842 13.5224 28.3882C13.4138 28.286 13.2129 28.2023 13.0761 28.2023C12.9395 28.2023 12.8024 28.1613 12.7717 28.1111C12.741 28.061 12.6167 28.02 12.4954 28.02C12.3741 28.02 12.275 27.9789 12.275 27.9288C12.275 27.8786 12.1999 27.8376 12.1082 27.8376C12.0164 27.8376 11.8031 27.7709 11.634 27.6894C11.4649 27.6077 11.1436 27.4539 10.9201 27.3475C10.6965 27.241 10.4933 27.1333 10.4685 27.1083C10.4436 27.0831 10.2865 27.0131 10.1194 26.9526C9.81822 26.8436 9.81036 26.8477 9.25504 27.4085C8.52883 28.1417 7.95663 28.6582 7.87046 28.6582C7.83279 28.6582 7.69243 28.5556 7.55848 28.4303C7.42462 28.3049 7.29337 28.2023 7.26691 28.2023C7.18462 28.2023 6.85322 27.9117 6.01899 27.1082C5.57649 26.6819 5.17716 26.3195 5.13173 26.3028C5.0862 26.286 5.04899 26.2319 5.04899 26.1823C5.04899 26.1328 4.99823 26.0382 4.93609 25.9721C4.69781 25.7186 4.50704 25.4621 4.50704 25.3949C4.50704 25.3564 4.42575 25.2658 4.32639 25.1934C4.22704 25.1211 4.14575 24.9835 4.14575 24.8875C4.14575 24.7879 4.51463 24.3441 5.00383 23.855C5.60801 23.2511 5.86191 22.9332 5.86191 22.7809C5.86191 22.6619 5.83066 22.5508 5.79254 22.5341C5.73221 22.5077 5.5838 22.2159 4.99308 20.9624C4.92452 20.8168 4.86834 20.622 4.86834 20.5293C4.86834 20.4368 4.8277 20.361 4.77802 20.361C4.72834 20.361 4.68769 20.2379 4.68769 20.0875C4.68769 19.937 4.64705 19.814 4.59737 19.814C4.54769 19.814 4.50578 19.7217 4.50415 19.6088C4.50262 19.4959 4.44002 19.3216 4.36505 19.2213C4.2433 19.0583 4.09318 19.0341 2.94723 18.9934L1.66562 18.9478L1.54919 18.4463C1.39428 17.7794 1.39256 14.8462 1.54657 14.1153L1.66182 13.5683L2.95554 13.5227C4.12795 13.4814 4.25901 13.46 4.35376 13.2947C4.50442 13.032 4.68471 12.5005 4.68634 12.3146C4.68706 12.2268 4.72834 12.155 4.77802 12.155C4.8277 12.155 4.86834 12.0549 4.86834 11.9324C4.86834 11.81 4.90899 11.6845 4.95867 11.6535C5.00835 11.6225 5.04899 11.5176 5.04899 11.4202C5.04899 11.3228 5.08964 11.2432 5.13932 11.2432C5.18899 11.2432 5.22964 11.1856 5.22964 11.1152C5.22964 11.0448 5.3719 10.7332 5.54578 10.4226C5.71965 10.1121 5.86146 9.79022 5.86092 9.70724C5.85983 9.53419 5.11917 8.69025 4.96842 8.69025C4.91341 8.69025 4.86834 8.64757 4.86834 8.59542C4.86834 8.54327 4.70097 8.33985 4.4963 8.14336C4.05307 7.71774 4.06391 7.50238 4.55347 7.0082C4.72662 6.83341 4.86834 6.66737 4.86834 6.6392C4.86834 6.50745 6.77726 4.58724 6.90823 4.58724C6.93343 4.58724 7.05248 4.48786 7.17279 4.36641C7.29319 4.24487 7.4742 4.11904 7.57519 4.08667C7.67617 4.05431 7.75873 3.98966 7.75873 3.94289C7.75873 3.73573 7.99971 3.91417 8.81381 4.72401C9.55447 5.46082 9.72843 5.5902 9.97863 5.5902C10.1404 5.5902 10.2863 5.55856 10.3029 5.51981C10.3444 5.42279 11.7117 4.7696 11.8733 4.7696C11.9452 4.7696 12.004 4.72857 12.004 4.67842C12.004 4.62827 12.1259 4.58724 12.275 4.58724C12.424 4.58724 12.5459 4.54621 12.5459 4.49606C12.5459 4.44591 12.6075 4.40488 12.6829 4.40488C12.9713 4.40488 13.5241 4.17712 13.6228 4.01765C13.6842 3.91836 13.7296 3.39427 13.735 2.7232C13.74 2.10301 13.7776 1.54044 13.8185 1.47306C13.8657 1.39538 14.2335 1.3135 14.8227 1.24958C16.0859 1.11254 16.7102 1.10579 17.8038 1.21721ZM22.7234 2.43426C22.9806 2.5041 23.3221 2.62737 23.4824 2.70806C23.6427 2.78885 23.8197 2.85486 23.8756 2.85486C23.9315 2.85486 24.0358 2.93692 24.1075 3.03722C24.1791 3.13751 24.29 3.21957 24.354 3.21957C24.474 3.21957 24.9323 3.59094 25.184 3.8921C25.2625 3.9861 25.4115 4.15168 25.5148 4.26C25.8164 4.57603 26.3656 5.63159 26.3656 5.89528V6.13726H25.4462C24.9405 6.13726 24.4019 6.17556 24.2494 6.22224C24.0968 6.26902 23.7986 6.35782 23.5867 6.41964C23.1726 6.54054 23.1601 6.59981 23.4348 7.14551C23.5346 7.34382 23.6005 7.373 23.875 7.34063C24.0525 7.31975 24.1978 7.26605 24.1978 7.22146C24.1978 7.17678 24.8481 7.14022 25.643 7.14022C26.5462 7.14022 27.0882 7.17441 27.0882 7.2314C27.0882 7.28155 27.2304 7.32258 27.4043 7.32258C27.5782 7.32258 27.7204 7.36361 27.7204 7.41376C27.7204 7.4639 27.78 7.50493 27.8528 7.50493C27.9957 7.50493 28.683 7.86964 29.1205 8.17764C29.5164 8.45647 30.4302 9.378 30.4302 9.49854C30.4302 9.55543 30.4708 9.60203 30.5205 9.60203C30.5702 9.60203 30.6108 9.6602 30.6108 9.73122C30.6108 9.80225 30.6433 9.87401 30.6831 9.89079C30.8387 9.95625 31.322 11.1439 31.4715 11.8281C31.673 12.7507 31.6143 13.9446 31.323 14.8448C31.2095 15.1958 31.084 15.4967 31.0443 15.5134C31.0046 15.5301 30.9721 15.6224 30.9721 15.7185C30.9721 15.8147 30.9315 15.8933 30.8818 15.8933C30.8321 15.8933 30.7915 15.9548 30.7915 16.0301C30.7915 16.1053 30.7508 16.1668 30.7012 16.1668C30.6515 16.1668 30.6108 16.2284 30.6108 16.3036C30.6108 16.3788 30.5702 16.4404 30.5205 16.4404C30.4708 16.4404 30.4302 16.4879 30.4302 16.5459C30.4302 16.7074 29.224 17.8578 28.9053 18.0002C28.7504 18.0694 28.6237 18.1571 28.6237 18.195C28.6237 18.2329 28.5424 18.2639 28.443 18.2639C28.3437 18.2639 28.2624 18.305 28.2624 18.3551C28.2624 18.4053 28.1985 18.4463 28.1205 18.4463C28.0424 18.4463 27.9204 18.5049 27.8495 18.5766C27.7023 18.7251 27.6749 19.0845 27.8108 19.0845C27.8604 19.0845 27.9011 19.1666 27.9011 19.2669C27.9011 19.3995 27.9613 19.4492 28.1216 19.4492C28.2429 19.4492 28.3672 19.4082 28.3979 19.3581C28.4286 19.3079 28.5153 19.2669 28.5906 19.2669C28.8344 19.2669 29.9819 18.4531 30.5236 17.896C31.144 17.258 31.2457 17.2864 31.4077 18.1433C31.6106 19.2171 31.6218 19.5858 31.4773 20.4311C31.3212 21.344 30.871 22.5493 30.6859 22.5493C30.6446 22.5493 30.6107 22.6006 30.6107 22.6633C30.6106 22.7725 30.3953 23.0626 29.9512 23.5522C29.5643 23.9788 28.98 24.4282 28.4625 24.6972C28.1786 24.8448 27.9327 24.9962 27.9162 25.0339C27.8996 25.0715 27.7472 25.1023 27.5775 25.1023C27.4077 25.1023 27.2688 25.1392 27.2688 25.1842C27.2688 25.3022 26.5381 25.3931 25.5978 25.392C24.6247 25.3909 23.8365 25.2981 23.8365 25.1846C23.8365 25.1394 23.764 25.1023 23.6754 25.1023C23.568 25.1023 23.467 25.2319 23.373 25.4898C23.1966 25.9743 23.2392 26.1052 23.573 26.1052C23.718 26.1052 23.8365 26.1463 23.8365 26.1964C23.8365 26.2466 24.0576 26.2876 24.3279 26.2876C24.5983 26.2876 24.8445 26.3286 24.8752 26.3788C24.9059 26.4289 25.2538 26.4699 25.6483 26.4699C26.3093 26.4699 26.3656 26.4845 26.3656 26.6553C26.3656 26.8341 25.9532 27.7444 25.83 27.8376C25.7969 27.8627 25.6721 28.0268 25.5526 28.2023C25.4332 28.3778 25.2522 28.5958 25.1504 28.6866C24.7112 29.0787 24.5547 29.2053 24.5095 29.2053C24.4829 29.2053 24.3739 29.2873 24.2673 29.3876C24.1607 29.4879 24.0201 29.57 23.9549 29.57C23.8898 29.57 23.8365 29.6063 23.8365 29.6505C23.8365 29.6948 23.7451 29.7538 23.6333 29.7816C23.5214 29.8094 23.1866 29.9206 22.8891 30.0286C22.2191 30.272 20.5271 30.3064 19.8108 30.0913C19.1948 29.9063 18.4908 29.5665 18.3161 29.3698C18.2357 29.2793 18.1295 29.2053 18.08 29.2053C18.0305 29.2053 17.8828 29.0971 17.7519 28.9649C17.5308 28.7416 17.5138 28.6674 17.5138 27.9238C17.5138 27.4834 17.5384 27.0582 17.5686 26.9789C17.6573 26.7455 18.3601 26.7864 18.6162 27.04C19.12 27.5389 19.9726 27.6275 20.5386 27.2398C20.9879 26.9319 21.1268 26.7853 21.1268 26.6186C21.1268 26.5428 21.1674 26.4553 21.2171 26.4243C21.2668 26.3933 21.3074 26.1653 21.3074 25.9175C21.3074 25.6697 21.2668 25.467 21.2171 25.467C21.1674 25.467 21.1268 25.4007 21.1268 25.3197C21.1268 25.0947 20.4982 24.5632 20.106 24.4566C19.4565 24.28 18.417 24.7015 18.417 25.1414C18.417 25.2202 18.3764 25.2846 18.3267 25.2846C18.277 25.2846 18.2364 25.3822 18.2364 25.5015C18.2364 25.6555 18.1594 25.7505 17.9708 25.8294C17.8249 25.8905 17.6623 25.9136 17.6095 25.8807C17.5473 25.8418 17.5138 25.1855 17.5138 24.0028V22.1846H19.4622C21.5125 22.1846 21.5179 22.1856 21.7477 22.6192C21.8868 22.8815 22.4834 23.1875 22.8555 23.1875C23.4136 23.1875 24.1978 22.7829 24.1978 22.4949C24.1978 22.4329 24.2404 22.3678 24.2924 22.3502C24.3446 22.3327 24.4104 22.0908 24.4389 21.8124C24.5271 20.9491 24.0386 20.2936 23.1866 20.1323C22.5589 20.0134 21.7031 20.459 21.5355 20.992C21.4776 21.1762 21.4212 21.1816 19.5497 21.1816C17.4666 21.1816 17.5138 21.1932 17.5138 20.6821C17.5138 20.4267 18.3691 19.6316 18.6438 19.6316C18.7178 19.6316 18.7783 19.6006 18.7783 19.5627C18.7783 19.5247 18.9105 19.4393 19.0719 19.3727C19.2333 19.3061 19.4467 19.2163 19.5461 19.1731C19.7541 19.0826 20.5929 18.9119 20.9913 18.879C21.2456 18.858 21.2639 18.8307 21.2893 18.435C21.31 18.1128 21.2817 18 21.1697 17.9566C20.997 17.8896 19.7971 18.0568 19.5699 18.1793C19.4837 18.2258 19.3336 18.2639 19.2365 18.2639C19.1394 18.2639 19.0348 18.305 19.0041 18.3551C18.9734 18.4053 18.8695 18.4463 18.773 18.4463C18.6765 18.4463 18.5977 18.4873 18.5977 18.5375C18.5977 18.5876 18.5164 18.6286 18.417 18.6286C18.3177 18.6286 18.2364 18.6621 18.2364 18.7029C18.2364 18.8039 17.6363 19.0866 17.5681 19.0179C17.4971 18.946 17.4974 17.0453 17.5686 16.8581C17.617 16.7307 17.9688 16.7139 20.5973 16.7139C23.3469 16.7139 23.5756 16.7259 23.6301 16.8735C23.7848 17.2924 24.5957 17.807 25.101 17.807C25.4515 17.807 25.9292 17.592 26.2111 17.3075C27.1175 16.3925 26.3772 14.708 25.0687 14.708C24.7196 14.708 23.8365 15.1481 23.8365 15.3221C23.8365 15.6958 23.7084 15.7109 20.5461 15.7109H17.5138V14.632C17.5138 14.0386 17.5382 13.5284 17.568 13.4984C17.6372 13.4284 18.0557 13.6182 18.0557 13.7197C18.0557 13.7617 18.137 13.7962 18.2364 13.7962C18.3357 13.7962 18.417 13.8372 18.417 13.8874C18.417 13.9375 18.4983 13.9786 18.5977 13.9786C18.697 13.9786 18.7783 14.0196 18.7783 14.0697C18.7783 14.1199 18.8799 14.1609 19.0041 14.1609C19.1283 14.1609 19.2299 14.1975 19.2299 14.2422C19.2299 14.3425 19.6904 14.4263 20.6127 14.4938L21.3181 14.5454L21.2901 14.1025L21.2622 13.6594L20.7203 13.5938C20.1168 13.5206 18.8698 13.1503 18.8691 13.044C18.8688 13.0064 18.8077 12.9756 18.7332 12.9756C18.6586 12.9756 18.5977 12.9346 18.5977 12.8844C18.5977 12.8343 18.5349 12.7933 18.4581 12.7933C18.3813 12.7933 18.2238 12.701 18.1081 12.5881C17.9924 12.4752 17.8114 12.3116 17.7058 12.2243C17.5763 12.1173 17.5138 11.9613 17.5138 11.7456V11.4256H19.4622C21.0304 11.4256 21.4358 11.451 21.5396 11.5559C21.6106 11.6275 21.6687 11.7309 21.6687 11.7858C21.6687 11.8406 21.8596 12.0077 22.0929 12.157C22.4261 12.3704 22.6197 12.4285 22.9961 12.4285C23.2596 12.4285 23.4752 12.3875 23.4752 12.3374C23.4752 12.2872 23.5379 12.2462 23.6145 12.2462C23.9897 12.2462 24.4674 11.5166 24.4681 10.9423C24.4694 10.0585 23.7756 9.32949 22.9332 9.32949C22.4242 9.32949 21.8685 9.66831 21.5515 10.1719L21.3936 10.4226H19.5085C17.8729 10.4226 17.6162 10.4036 17.5686 10.2784C17.5384 10.1991 17.5138 9.35667 17.5138 8.40641C17.5138 6.92167 17.5336 6.67093 17.6553 6.62379C17.8846 6.53498 18.2364 6.77843 18.2364 7.02598C18.2364 7.32075 18.8331 7.8897 19.3083 8.04799C19.8069 8.21412 20.3217 8.05939 20.7637 7.61052C21.1643 7.20377 21.3937 6.57118 21.2341 6.31315C21.1751 6.21777 21.1268 6.07289 21.1268 5.99111C21.1268 5.7886 20.4239 5.13431 20.2064 5.13431C20.1099 5.13431 19.9626 5.09993 19.8788 5.05799C19.6499 4.94311 18.9314 5.19075 18.6189 5.49227C18.3624 5.73964 18.3228 5.74958 17.9303 5.66505L17.5138 5.57543V4.68115V3.78688L17.941 3.41205C18.176 3.20589 18.4166 3.03722 18.4755 3.03722C18.5344 3.03722 18.5961 3.00448 18.6128 2.96455C18.6689 2.82887 19.4742 2.50127 20.0986 2.35995C20.8094 2.19911 21.9796 2.23221 22.7234 2.43426ZM20.0921 6.17875C20.4901 6.58048 20.2774 7.14022 19.7267 7.14022C19.1895 7.14022 18.9441 6.51064 19.3373 6.14082C19.5987 5.895 19.8222 5.90622 20.0921 6.17875ZM16.4092 6.57829C16.4973 6.63482 16.5183 7.08533 16.4995 8.51445L16.475 10.377L15.3304 10.4025C14.2342 10.4269 14.1831 10.4198 14.1252 10.2356C13.9892 9.80335 13.258 9.32949 12.7266 9.32949C12.1025 9.32949 11.3324 9.91859 11.229 10.475C11.1591 10.8512 11.2581 11.6079 11.3772 11.6079C11.4239 11.6079 11.462 11.6519 11.462 11.7056C11.462 11.8233 11.5935 11.9572 11.9727 12.2264C12.35 12.4941 13.0161 12.4998 13.4397 12.2392C13.7714 12.035 13.9911 11.838 13.9911 11.7447C13.9911 11.7124 14.0492 11.6275 14.1202 11.5559C14.2183 11.4568 14.5211 11.4256 15.3847 11.4256H16.5202V13.5683V15.7109H14.0243C11.5817 15.7109 11.5248 15.7068 11.3597 15.5146C11.2669 15.4067 11.1911 15.2853 11.1911 15.2449C11.1911 15.0903 10.3969 14.708 10.0756 14.708C9.64055 14.708 8.99039 15.0219 8.84063 15.3044C8.77524 15.4277 8.69051 15.5286 8.65222 15.5286C8.61401 15.5286 8.55467 15.7173 8.52043 15.948C8.418 16.6372 8.60778 17.0771 9.22966 17.5923C9.43307 17.7608 10.0602 17.8278 10.4476 17.7225C10.8553 17.6117 11.462 17.0991 11.462 16.8655C11.462 16.7234 11.6633 16.713 13.9685 16.7352L16.475 16.7595V18.9478V21.136L15.3304 21.1615C14.2342 21.1859 14.1831 21.1788 14.1252 20.9946C14.0291 20.6891 13.544 20.2781 13.1544 20.1722C12.7902 20.0732 12.1437 20.133 11.9664 20.2822C11.9126 20.3274 11.783 20.4354 11.6786 20.5223C11.3205 20.8201 11.1645 21.2599 11.221 21.8124C11.2494 22.0908 11.3153 22.3327 11.3674 22.3502C11.4194 22.3678 11.462 22.4412 11.462 22.5133C11.462 22.7513 12.269 23.1875 12.7094 23.1875C13.0676 23.1875 13.8103 22.8841 13.8106 22.7377C13.8106 22.7093 13.9068 22.5732 14.0244 22.4353C14.2364 22.1864 14.2462 22.1846 15.379 22.1846H16.5202V24.044C16.5202 25.4767 16.4935 25.9137 16.4039 25.9484C16.253 26.0068 14.5563 25.8476 14.2621 25.7474C14.1379 25.7051 13.8534 25.6176 13.6298 25.5529C13.4063 25.4882 13.1847 25.4013 13.1376 25.3599C13.0903 25.3185 12.9583 25.2846 12.844 25.2846C12.7297 25.2846 12.6362 25.2436 12.6362 25.1934C12.6362 25.1433 12.5778 25.1023 12.5064 25.1023C12.2617 25.1023 11.01 24.3426 10.2529 23.7346C9.89761 23.4492 8.93294 22.4667 8.93294 22.3902C8.93294 22.3461 8.85238 22.2228 8.75383 22.1161C8.48186 21.8213 7.84995 20.8067 7.79115 20.5703C7.76252 20.4552 7.70291 20.361 7.65865 20.361C7.6143 20.361 7.57808 20.2814 7.57808 20.184C7.57808 20.0867 7.53743 19.9817 7.48775 19.9507C7.43807 19.9197 7.39743 19.7943 7.39743 19.6718C7.39743 19.5494 7.36139 19.4492 7.31731 19.4492C7.27332 19.4492 7.21488 19.3365 7.18742 19.1985C7.15997 19.0606 7.09385 18.7631 7.04038 18.5375C6.73978 17.2687 6.69606 15.2717 6.94752 14.2977C7.16313 13.4627 7.44711 12.6118 7.51033 12.6114C7.54755 12.6111 7.57808 12.5527 7.57808 12.4817C7.57808 12.3222 8.13628 11.2505 8.50797 10.6962C8.78409 10.2844 10.478 8.50789 10.5945 8.50789C10.6287 8.50789 10.7439 8.42592 10.8504 8.32572C10.9568 8.2256 11.3515 7.98963 11.7272 7.80144C12.103 7.61334 12.424 7.42853 12.4405 7.39096C12.4571 7.3534 12.5462 7.32258 12.6384 7.32258C12.7307 7.32258 12.8313 7.28155 12.8621 7.2314C12.8928 7.18125 13.0171 7.14022 13.1384 7.14022C13.2597 7.14022 13.3588 7.09919 13.3588 7.04904C13.3588 6.9989 13.4783 6.95787 13.6245 6.95787C13.7706 6.95787 13.911 6.92377 13.9366 6.88201C13.9816 6.80833 15.112 6.61786 15.8428 6.56088C16.0415 6.54529 16.2244 6.52632 16.2492 6.51866C16.2741 6.511 16.3461 6.5379 16.4092 6.57829ZM12.9285 10.3371C13.0443 10.3903 13.1907 10.5516 13.2538 10.6955C13.3561 10.9288 13.3467 10.9824 13.1667 11.1913C12.9397 11.4549 12.5222 11.5058 12.3137 11.2953C12.1182 11.0981 12.1544 10.6405 12.3823 10.4262C12.6102 10.2118 12.6442 10.2064 12.9285 10.3371ZM23.2372 10.4293C23.5057 10.6425 23.5606 11.0788 23.3461 11.2953C23.1577 11.4856 22.5808 11.4654 22.508 11.266C22.4758 11.1782 22.4108 11.0802 22.3634 11.048C22.2374 10.9628 22.4853 10.4503 22.7047 10.3426C22.9615 10.2166 22.9714 10.2182 23.2372 10.4293ZM10.4649 15.9105C10.7563 16.2262 10.6662 16.5535 10.2221 16.7923C9.89056 16.9706 9.47887 16.6796 9.47625 16.2652C9.47309 15.7511 10.1077 15.5234 10.4649 15.9105ZM25.5134 15.9352C25.7095 16.2372 25.614 16.6565 25.3182 16.7925C25.0074 16.9355 24.9771 16.9287 24.7069 16.6559C24.4286 16.3749 24.4085 16.1888 24.6268 15.9131C24.8524 15.6282 25.3217 15.6399 25.5134 15.9352ZM13.0004 21.1414C13.0766 21.1695 13.1906 21.3104 13.2537 21.4543C13.3561 21.6879 13.3467 21.7414 13.1667 21.9503C12.9397 22.2138 12.5222 22.2648 12.3137 22.0543C12.1776 21.917 12.1415 21.4728 12.2537 21.3184C12.3624 21.1692 12.6746 21.0077 12.7717 21.0505C12.8214 21.0724 12.9244 21.1133 13.0004 21.1414ZM23.1377 21.1132C23.2488 21.176 23.3696 21.2682 23.4061 21.3184C23.5184 21.4728 23.4822 21.917 23.3461 22.0543C23.1287 22.2737 22.4816 22.1991 22.4816 21.9544C22.4816 21.8888 22.4341 21.819 22.376 21.7995C22.2974 21.7731 22.3013 21.6934 22.3915 21.4877C22.492 21.2585 22.6053 21.1546 22.9119 21.0105C22.925 21.0043 23.0266 21.0506 23.1377 21.1132ZM20.1297 25.5754C20.3415 25.8049 20.3547 25.9149 20.209 26.2377C20.121 26.4326 20.0436 26.4699 19.7267 26.4699C19.4099 26.4699 19.3325 26.4326 19.2445 26.2377C19.097 25.9109 19.113 25.7674 19.3203 25.5582C19.557 25.3192 19.9 25.3265 20.1297 25.5754Z" fill="#344054"/>
<path fill-rule="evenodd" clip-rule="evenodd" d="M14.7138 0.272063C14.3413 0.293308 13.9978 0.349838 13.9506 0.397524C13.9033 0.44521 13.687 0.484234 13.4699 0.484234C12.8479 0.484234 12.8169 0.557815 12.8169 2.03626C12.8169 3.25112 12.8061 3.33063 12.6362 3.37549C12.5369 3.40175 12.4556 3.45946 12.4556 3.50377C12.4556 3.54799 12.3564 3.58428 12.2351 3.58428C12.1138 3.58428 11.9895 3.62531 11.9588 3.67546C11.9281 3.72561 11.8343 3.76737 11.7503 3.76819C11.6663 3.76901 11.313 3.91261 10.9652 4.08722C10.6175 4.26183 10.2268 4.4047 10.0971 4.40479C9.92353 4.40488 9.66078 4.20666 9.10005 3.65267C8.00504 2.57075 8.10964 2.62783 7.65268 2.8617C7.4378 2.97175 7.24162 3.0891 7.21678 3.12256C7.19194 3.15602 6.96857 3.32488 6.72045 3.49776C6.47232 3.67072 6.09793 3.98656 5.88838 4.19973C5.67882 4.41282 5.48282 4.58724 5.45283 4.58724C5.42275 4.58724 5.18755 4.81865 4.93003 5.10148C4.67252 5.38432 4.32983 5.75222 4.16833 5.91899C4.00683 6.08584 3.87477 6.26473 3.87477 6.31661C3.87477 6.3684 3.83413 6.4108 3.78445 6.4108C3.73477 6.4108 3.69412 6.47234 3.69412 6.54756C3.69412 6.62279 3.65348 6.68433 3.6038 6.68433C3.55412 6.68433 3.51347 6.72719 3.51347 6.77961C3.51347 6.83204 3.41231 6.9771 3.28857 7.10202C3.03385 7.35914 2.92844 7.68027 3.0119 7.9455C3.04306 8.04452 3.43281 8.48829 3.87811 8.93159C4.32341 9.37481 4.68814 9.77882 4.68878 9.82933C4.68968 9.91066 3.98334 11.5834 3.7746 11.9942C3.73034 12.0812 3.69412 12.2103 3.69412 12.2807C3.69412 12.4794 3.48448 12.5196 2.44475 12.5207C1.91482 12.5213 1.32871 12.5472 1.14246 12.5783C0.842759 12.6282 0.803739 12.6649 0.803739 12.8964C0.803739 13.0403 0.768964 13.158 0.726421 13.158C0.425008 13.158 0.424286 19.1321 0.725699 19.3201C0.768603 19.3469 0.803739 19.4542 0.803739 19.5586C0.803739 19.9265 1.03931 19.9903 2.407 19.9934C3.58835 19.996 3.69412 20.0099 3.69412 20.1615C3.69412 20.2524 3.77542 20.4966 3.87477 20.7042C3.97413 20.9118 4.05542 21.1237 4.05542 21.1752C4.05542 21.3083 4.53857 22.3152 4.61995 22.3517C4.65725 22.3685 4.68769 22.4796 4.68769 22.5987C4.68769 22.75 4.42909 23.0793 3.82961 23.6914C3.13809 24.3975 2.97153 24.6194 2.97153 24.8348C2.97153 24.9819 3.0026 25.1023 3.04053 25.1023C3.07847 25.1023 3.20998 25.2664 3.33283 25.467C3.45567 25.6676 3.58718 25.8317 3.62512 25.8317C3.66305 25.8317 3.69412 25.8756 3.69412 25.9293C3.69412 25.9831 3.74498 26.0803 3.80703 26.1454C3.86917 26.2105 4.09345 26.4709 4.30562 26.7241C4.79536 27.3089 5.44425 27.9635 5.99649 28.4303C6.23387 28.6309 6.48063 28.8463 6.54495 28.9089C6.60935 28.9716 6.70545 29.0229 6.75874 29.0229C6.81194 29.0229 6.85548 29.0639 6.85548 29.1141C6.85548 29.1642 6.91645 29.2053 6.99097 29.2053C7.06549 29.2053 7.12645 29.2463 7.12645 29.2965C7.12645 29.3466 7.17252 29.3876 7.22879 29.3876C7.28506 29.3876 7.40384 29.4723 7.49281 29.5759C7.71934 29.8396 8.15652 29.8329 8.45567 29.5611C8.58836 29.4406 8.9791 29.0446 9.32405 28.681C9.88569 28.0891 10.2153 27.8895 10.3029 28.0883C10.3453 28.1846 11.3478 28.6582 11.5092 28.6582C11.5826 28.6582 11.6427 28.6992 11.6427 28.7494C11.6427 28.7995 11.7646 28.8406 11.9137 28.8406C12.0627 28.8406 12.1846 28.8816 12.1846 28.9317C12.1846 28.9819 12.2688 29.0229 12.3717 29.0229C12.7674 29.0229 12.8169 29.1997 12.8169 30.6121V31.9406H13.0879C13.2369 31.9406 13.3588 31.9762 13.3588 32.0196C13.3588 32.1541 14.5896 32.245 16.475 32.2497C18.2531 32.2543 18.9058 32.2063 19.6532 32.0163C19.9706 31.9356 20.0532 31.8649 20.1676 31.5764L20.3039 31.2326L21.5057 31.1876C22.4347 31.1527 22.8509 31.0944 23.3397 30.9303C23.6875 30.8135 23.9855 30.6853 24.0021 30.6454C24.0187 30.6056 24.1101 30.5729 24.2053 30.5729C24.3005 30.5729 24.3784 30.5319 24.3784 30.4818C24.3784 30.4316 24.4394 30.3906 24.5139 30.3906C24.5884 30.3906 24.6494 30.3496 24.6494 30.2994C24.6494 30.2493 24.7003 30.2077 24.7623 30.207C25.0092 30.2046 26.5462 28.7223 26.5462 28.4867C26.5462 28.4389 26.5795 28.3862 26.6201 28.3694C26.7341 28.3226 27.3316 27.0238 27.4625 26.5383C27.5462 26.2278 27.6248 26.1052 27.7401 26.1052C27.8286 26.1052 27.9011 26.0642 27.9011 26.014C27.9011 25.9639 27.9786 25.9229 28.0734 25.9229C28.2586 25.9229 29.191 25.4683 29.2409 25.3538C29.2575 25.3158 29.3185 25.2839 29.3764 25.283C29.6864 25.2781 31.0987 23.8408 31.5141 23.1076C31.5886 22.976 31.68 22.8547 31.7173 22.838C31.7546 22.8213 31.785 22.7508 31.785 22.6812C31.785 22.6117 31.858 22.4203 31.9473 22.2557C32.3181 21.5721 32.5041 20.6423 32.4996 19.4948C32.4962 18.6233 32.3536 17.6222 32.2126 17.4799C32.1762 17.4431 32.1463 17.2967 32.1463 17.1546C32.1463 17.0125 32.1057 16.8963 32.056 16.8963C32.0063 16.8963 31.9657 16.8142 31.9657 16.7139C31.9657 16.6136 31.925 16.5315 31.8754 16.5315C31.8257 16.5315 31.785 16.4085 31.785 16.258C31.785 16.1076 31.8257 15.9845 31.8754 15.9845C31.925 15.9845 31.9657 15.9049 31.9657 15.8075C31.9657 15.7101 32.0015 15.6082 32.0453 15.5809C32.089 15.5536 32.1468 15.4383 32.1736 15.3248C32.2005 15.2112 32.2853 14.8721 32.3619 14.5712C32.5451 13.8516 32.5462 12.3723 32.3641 11.5624C32.2853 11.2113 32.1994 10.8113 32.1733 10.6734C32.1472 10.5355 32.0898 10.4226 32.0458 10.4226C32.0017 10.4226 31.9657 10.3406 31.9657 10.2403C31.9657 10.14 31.925 10.0579 31.8754 10.0579C31.8257 10.0579 31.785 9.97585 31.785 9.87556C31.785 9.77526 31.7444 9.6932 31.6947 9.6932C31.645 9.6932 31.6044 9.63166 31.6044 9.55644C31.6044 9.48121 31.5638 9.41967 31.5141 9.41967C31.4644 9.41967 31.4232 9.36843 31.4226 9.3057C31.4199 9.05788 29.969 7.50493 29.7401 7.50493C29.709 7.50493 29.6177 7.42816 29.5371 7.33443C29.4566 7.24061 29.0453 7.01102 28.6232 6.8242C28.2012 6.63737 27.8007 6.45693 27.7334 6.4232C27.6659 6.38937 27.5514 6.17793 27.4788 5.95318C27.3248 5.47604 27.0325 4.783 26.9026 4.58724C26.8528 4.51202 26.7881 4.37863 26.7588 4.29091C26.7297 4.20311 26.6699 4.13135 26.626 4.13135C26.5822 4.13135 26.5462 4.09078 26.5462 4.04118C26.5462 3.86493 25.9457 3.21228 25.3268 2.71572C25.0785 2.51641 24.8549 2.33278 24.8301 2.30761C24.8052 2.28254 24.663 2.20048 24.5139 2.12544C24.3649 2.0504 24.2226 1.96834 24.1978 1.94326C24.1259 1.87041 23.2836 1.5656 22.8881 1.46932C22.6894 1.42091 22.0195 1.3538 21.3996 1.32024L20.2724 1.25925L20.1808 0.985713C20.0436 0.576415 19.9149 0.484234 19.4802 0.484234C19.2631 0.484234 19.0449 0.443295 18.9952 0.393148C18.8975 0.294584 15.8347 0.207874 14.7138 0.272063ZM17.8038 1.21721C18.9748 1.33657 19.1398 1.37295 19.1389 1.51172C19.1382 1.62806 18.7405 1.8519 18.5345 1.8519C18.4699 1.8519 18.417 1.8829 18.417 1.92083C18.417 1.95876 18.2849 2.04876 18.1235 2.12079C17.9621 2.19291 17.7283 2.347 17.6041 2.46316C17.4799 2.57941 17.3072 2.6973 17.2202 2.7252C17.1332 2.75311 17.0621 2.81912 17.0621 2.87182C17.0621 2.92452 16.941 3.0756 16.793 3.20754C16.5271 3.4446 16.5235 3.4601 16.4994 4.49606L16.475 5.54461L15.7976 5.60269C14.6098 5.70444 13.9873 5.79617 13.9381 5.87659C13.9117 5.91971 13.773 5.95491 13.6298 5.95491C13.4867 5.95491 13.3444 5.99594 13.3137 6.04609C13.283 6.09623 13.1587 6.13726 13.0374 6.13726C12.9161 6.13726 12.8169 6.17829 12.8169 6.22844C12.8169 6.27859 12.7418 6.31962 12.6502 6.31962C12.3591 6.31962 10.6423 7.22839 10.3678 7.52773C10.2873 7.61553 10.1856 7.68747 10.1418 7.68765C9.91495 7.68857 7.93937 9.63221 7.93937 9.85441C7.93937 9.89726 7.85872 10.0197 7.76017 10.1265C7.55793 10.3456 7.39625 10.6257 6.90453 11.6079C6.71629 11.984 6.52661 12.363 6.48307 12.4501C6.43954 12.5371 6.40386 12.691 6.40386 12.792C6.40386 12.893 6.36321 12.9756 6.31353 12.9756C6.26386 12.9756 6.22321 13.0962 6.22321 13.2438C6.22321 13.3913 6.18256 13.5373 6.13288 13.5683C6.08321 13.5993 6.04256 13.7558 6.04256 13.9162C6.04256 14.0765 6.00101 14.351 5.95016 14.5263C5.74142 15.2459 5.89416 18.6481 6.1486 18.9432C6.18961 18.9908 6.22321 19.1247 6.22321 19.2408C6.22321 19.3568 6.25907 19.523 6.30297 19.6101C6.34686 19.6972 6.42183 19.8709 6.46943 19.9963C6.66092 20.4997 7.43654 22.0022 7.505 22.0022C7.5452 22.0022 7.57808 22.0692 7.57808 22.1511C7.57808 22.233 7.64961 22.3663 7.73714 22.4474C7.82466 22.5285 8.00775 22.7462 8.14405 22.9313C8.46253 23.3636 9.30048 24.2095 9.7287 24.5309C9.91206 24.6685 10.1278 24.8534 10.2081 24.9417C10.2884 25.0301 10.4205 25.1023 10.5016 25.1023C10.5827 25.1023 10.6491 25.1386 10.6491 25.1831C10.6491 25.2946 12.6013 26.2876 12.8204 26.2876C12.9178 26.2876 12.9975 26.3286 12.9975 26.3788C12.9975 26.4289 13.0997 26.4699 13.2246 26.4699C13.3495 26.4699 13.5222 26.5074 13.6085 26.5533C13.833 26.6725 14.6492 26.8194 15.4363 26.8822C16.6183 26.9764 16.5202 26.8769 16.5202 27.9821C16.5202 28.5399 16.5645 29.0274 16.6255 29.1429C16.7836 29.4417 17.6767 30.2082 17.8668 30.2082C17.921 30.2082 17.9654 30.2493 17.9654 30.2994C17.9654 30.3496 18.0264 30.3906 18.1009 30.3906C18.1754 30.3906 18.2364 30.4316 18.2364 30.4818C18.2364 30.5319 18.3177 30.5729 18.417 30.5729C18.5164 30.5729 18.5977 30.614 18.5977 30.6641C18.5977 30.7143 18.6688 30.7566 18.7557 30.7582C18.8427 30.7598 18.9909 30.82 19.0852 30.8921C19.2492 31.0173 19.2452 31.0275 18.9949 31.1242C18.3091 31.3892 14.9314 31.4117 14.021 31.1573C13.7923 31.0935 13.6914 30.5811 13.7222 29.6397C13.7524 28.7192 13.7308 28.5842 13.5224 28.3882C13.4138 28.286 13.2129 28.2023 13.0761 28.2023C12.9395 28.2023 12.8024 28.1613 12.7717 28.1111C12.741 28.061 12.6167 28.02 12.4954 28.02C12.3741 28.02 12.275 27.9789 12.275 27.9288C12.275 27.8786 12.1999 27.8376 12.1082 27.8376C12.0164 27.8376 11.8031 27.7709 11.634 27.6894C11.4649 27.6077 11.1436 27.4539 10.9201 27.3475C10.6965 27.241 10.4933 27.1333 10.4685 27.1083C10.4436 27.0831 10.2865 27.0131 10.1194 26.9526C9.81822 26.8436 9.81036 26.8477 9.25504 27.4085C8.52883 28.1417 7.95663 28.6582 7.87046 28.6582C7.83279 28.6582 7.69243 28.5556 7.55848 28.4303C7.42462 28.3049 7.29337 28.2023 7.26691 28.2023C7.18462 28.2023 6.85322 27.9117 6.01899 27.1082C5.57649 26.6819 5.17716 26.3195 5.13173 26.3028C5.0862 26.286 5.04899 26.2319 5.04899 26.1823C5.04899 26.1328 4.99823 26.0382 4.93609 25.9721C4.69781 25.7186 4.50704 25.4621 4.50704 25.3949C4.50704 25.3564 4.42575 25.2658 4.32639 25.1934C4.22704 25.1211 4.14575 24.9835 4.14575 24.8875C4.14575 24.7879 4.51463 24.3441 5.00383 23.855C5.60801 23.2511 5.86191 22.9332 5.86191 22.7809C5.86191 22.6619 5.83066 22.5508 5.79254 22.5341C5.73221 22.5077 5.5838 22.2159 4.99308 20.9624C4.92452 20.8168 4.86834 20.622 4.86834 20.5293C4.86834 20.4368 4.8277 20.361 4.77802 20.361C4.72834 20.361 4.68769 20.2379 4.68769 20.0875C4.68769 19.937 4.64705 19.814 4.59737 19.814C4.54769 19.814 4.50578 19.7217 4.50415 19.6088C4.50262 19.4959 4.44002 19.3216 4.36505 19.2213C4.2433 19.0583 4.09318 19.0341 2.94723 18.9934L1.66562 18.9478L1.54919 18.4463C1.39428 17.7794 1.39256 14.8462 1.54657 14.1153L1.66182 13.5683L2.95554 13.5227C4.12795 13.4814 4.25901 13.46 4.35376 13.2947C4.50442 13.032 4.68471 12.5005 4.68634 12.3146C4.68706 12.2268 4.72834 12.155 4.77802 12.155C4.8277 12.155 4.86834 12.0549 4.86834 11.9324C4.86834 11.81 4.90899 11.6845 4.95867 11.6535C5.00835 11.6225 5.04899 11.5176 5.04899 11.4202C5.04899 11.3228 5.08964 11.2432 5.13932 11.2432C5.18899 11.2432 5.22964 11.1856 5.22964 11.1152C5.22964 11.0448 5.3719 10.7332 5.54578 10.4226C5.71965 10.1121 5.86146 9.79022 5.86092 9.70724C5.85983 9.53419 5.11917 8.69025 4.96842 8.69025C4.91341 8.69025 4.86834 8.64757 4.86834 8.59542C4.86834 8.54327 4.70097 8.33985 4.4963 8.14336C4.05307 7.71774 4.06391 7.50238 4.55347 7.0082C4.72662 6.83341 4.86834 6.66737 4.86834 6.6392C4.86834 6.50745 6.77726 4.58724 6.90823 4.58724C6.93343 4.58724 7.05248 4.48786 7.17279 4.36641C7.29319 4.24487 7.4742 4.11904 7.57519 4.08667C7.67617 4.05431 7.75873 3.98966 7.75873 3.94289C7.75873 3.73573 7.99971 3.91417 8.81381 4.72401C9.55447 5.46082 9.72843 5.5902 9.97863 5.5902C10.1404 5.5902 10.2863 5.55856 10.3029 5.51981C10.3444 5.42279 11.7117 4.7696 11.8733 4.7696C11.9452 4.7696 12.004 4.72857 12.004 4.67842C12.004 4.62827 12.1259 4.58724 12.275 4.58724C12.424 4.58724 12.5459 4.54621 12.5459 4.49606C12.5459 4.44591 12.6075 4.40488 12.6829 4.40488C12.9713 4.40488 13.5241 4.17712 13.6228 4.01765C13.6842 3.91836 13.7296 3.39427 13.735 2.7232C13.74 2.10301 13.7776 1.54044 13.8185 1.47306C13.8657 1.39538 14.2335 1.3135 14.8227 1.24958C16.0859 1.11254 16.7102 1.10579 17.8038 1.21721ZM22.7234 2.43426C22.9806 2.5041 23.3221 2.62737 23.4824 2.70806C23.6427 2.78885 23.8197 2.85486 23.8756 2.85486C23.9315 2.85486 24.0358 2.93692 24.1075 3.03722C24.1791 3.13751 24.29 3.21957 24.354 3.21957C24.474 3.21957 24.9323 3.59094 25.184 3.8921C25.2625 3.9861 25.4115 4.15168 25.5148 4.26C25.8164 4.57603 26.3656 5.63159 26.3656 5.89528V6.13726H25.4462C24.9405 6.13726 24.4019 6.17556 24.2494 6.22224C24.0968 6.26902 23.7986 6.35782 23.5867 6.41964C23.1726 6.54054 23.1601 6.59981 23.4348 7.14551C23.5346 7.34382 23.6005 7.373 23.875 7.34063C24.0525 7.31975 24.1978 7.26605 24.1978 7.22146C24.1978 7.17678 24.8481 7.14022 25.643 7.14022C26.5462 7.14022 27.0882 7.17441 27.0882 7.2314C27.0882 7.28155 27.2304 7.32258 27.4043 7.32258C27.5782 7.32258 27.7204 7.36361 27.7204 7.41376C27.7204 7.4639 27.78 7.50493 27.8528 7.50493C27.9957 7.50493 28.683 7.86964 29.1205 8.17764C29.5164 8.45647 30.4302 9.378 30.4302 9.49854C30.4302 9.55543 30.4708 9.60203 30.5205 9.60203C30.5702 9.60203 30.6108 9.6602 30.6108 9.73122C30.6108 9.80225 30.6433 9.87401 30.6831 9.89079C30.8387 9.95625 31.322 11.1439 31.4715 11.8281C31.673 12.7507 31.6143 13.9446 31.323 14.8448C31.2095 15.1958 31.084 15.4967 31.0443 15.5134C31.0046 15.5301 30.9721 15.6224 30.9721 15.7185C30.9721 15.8147 30.9315 15.8933 30.8818 15.8933C30.8321 15.8933 30.7915 15.9548 30.7915 16.0301C30.7915 16.1053 30.7508 16.1668 30.7012 16.1668C30.6515 16.1668 30.6108 16.2284 30.6108 16.3036C30.6108 16.3788 30.5702 16.4404 30.5205 16.4404C30.4708 16.4404 30.4302 16.4879 30.4302 16.5459C30.4302 16.7074 29.224 17.8578 28.9053 18.0002C28.7504 18.0694 28.6237 18.1571 28.6237 18.195C28.6237 18.2329 28.5424 18.2639 28.443 18.2639C28.3437 18.2639 28.2624 18.305 28.2624 18.3551C28.2624 18.4053 28.1985 18.4463 28.1205 18.4463C28.0424 18.4463 27.9204 18.5049 27.8495 18.5766C27.7023 18.7251 27.6749 19.0845 27.8108 19.0845C27.8604 19.0845 27.9011 19.1666 27.9011 19.2669C27.9011 19.3995 27.9613 19.4492 28.1216 19.4492C28.2429 19.4492 28.3672 19.4082 28.3979 19.3581C28.4286 19.3079 28.5153 19.2669 28.5906 19.2669C28.8344 19.2669 29.9819 18.4531 30.5236 17.896C31.144 17.258 31.2457 17.2864 31.4077 18.1433C31.6106 19.2171 31.6218 19.5858 31.4773 20.4311C31.3212 21.344 30.871 22.5493 30.6859 22.5493C30.6446 22.5493 30.6107 22.6006 30.6107 22.6633C30.6106 22.7725 30.3953 23.0626 29.9512 23.5522C29.5643 23.9788 28.98 24.4282 28.4625 24.6972C28.1786 24.8448 27.9327 24.9962 27.9162 25.0339C27.8996 25.0715 27.7472 25.1023 27.5775 25.1023C27.4077 25.1023 27.2688 25.1392 27.2688 25.1842C27.2688 25.3022 26.5381 25.3931 25.5978 25.392C24.6247 25.3909 23.8365 25.2981 23.8365 25.1846C23.8365 25.1394 23.764 25.1023 23.6754 25.1023C23.568 25.1023 23.467 25.2319 23.373 25.4898C23.1966 25.9743 23.2392 26.1052 23.573 26.1052C23.718 26.1052 23.8365 26.1463 23.8365 26.1964C23.8365 26.2466 24.0576 26.2876 24.3279 26.2876C24.5983 26.2876 24.8445 26.3286 24.8752 26.3788C24.9059 26.4289 25.2538 26.4699 25.6483 26.4699C26.3093 26.4699 26.3656 26.4845 26.3656 26.6553C26.3656 26.8341 25.9532 27.7444 25.83 27.8376C25.7969 27.8627 25.6721 28.0268 25.5526 28.2023C25.4332 28.3778 25.2522 28.5958 25.1504 28.6866C24.7112 29.0787 24.5547 29.2053 24.5095 29.2053C24.4829 29.2053 24.3739 29.2873 24.2673 29.3876C24.1607 29.4879 24.0201 29.57 23.9549 29.57C23.8898 29.57 23.8365 29.6063 23.8365 29.6505C23.8365 29.6948 23.7451 29.7538 23.6333 29.7816C23.5214 29.8094 23.1866 29.9206 22.8891 30.0286C22.2191 30.272 20.5271 30.3064 19.8108 30.0913C19.1948 29.9063 18.4908 29.5665 18.3161 29.3698C18.2357 29.2793 18.1295 29.2053 18.08 29.2053C18.0305 29.2053 17.8828 29.0971 17.7519 28.9649C17.5308 28.7416 17.5138 28.6674 17.5138 27.9238C17.5138 27.4834 17.5384 27.0582 17.5686 26.9789C17.6573 26.7455 18.3601 26.7864 18.6162 27.04C19.12 27.5389 19.9726 27.6275 20.5386 27.2398C20.9879 26.9319 21.1268 26.7853 21.1268 26.6186C21.1268 26.5428 21.1674 26.4553 21.2171 26.4243C21.2668 26.3933 21.3074 26.1653 21.3074 25.9175C21.3074 25.6697 21.2668 25.467 21.2171 25.467C21.1674 25.467 21.1268 25.4007 21.1268 25.3197C21.1268 25.0947 20.4982 24.5632 20.106 24.4566C19.4565 24.28 18.417 24.7015 18.417 25.1414C18.417 25.2202 18.3764 25.2846 18.3267 25.2846C18.277 25.2846 18.2364 25.3822 18.2364 25.5015C18.2364 25.6555 18.1594 25.7505 17.9708 25.8294C17.8249 25.8905 17.6623 25.9136 17.6095 25.8807C17.5473 25.8418 17.5138 25.1855 17.5138 24.0028V22.1846H19.4622C21.5125 22.1846 21.5179 22.1856 21.7477 22.6192C21.8868 22.8815 22.4834 23.1875 22.8555 23.1875C23.4136 23.1875 24.1978 22.7829 24.1978 22.4949C24.1978 22.4329 24.2404 22.3678 24.2924 22.3502C24.3446 22.3327 24.4104 22.0908 24.4389 21.8124C24.5271 20.9491 24.0386 20.2936 23.1866 20.1323C22.5589 20.0134 21.7031 20.459 21.5355 20.992C21.4776 21.1762 21.4212 21.1816 19.5497 21.1816C17.4666 21.1816 17.5138 21.1932 17.5138 20.6821C17.5138 20.4267 18.3691 19.6316 18.6438 19.6316C18.7178 19.6316 18.7783 19.6006 18.7783 19.5627C18.7783 19.5247 18.9105 19.4393 19.0719 19.3727C19.2333 19.3061 19.4467 19.2163 19.5461 19.1731C19.7541 19.0826 20.5929 18.9119 20.9913 18.879C21.2456 18.858 21.2639 18.8307 21.2893 18.435C21.31 18.1128 21.2817 18 21.1697 17.9566C20.997 17.8896 19.7971 18.0568 19.5699 18.1793C19.4837 18.2258 19.3336 18.2639 19.2365 18.2639C19.1394 18.2639 19.0348 18.305 19.0041 18.3551C18.9734 18.4053 18.8695 18.4463 18.773 18.4463C18.6765 18.4463 18.5977 18.4873 18.5977 18.5375C18.5977 18.5876 18.5164 18.6286 18.417 18.6286C18.3177 18.6286 18.2364 18.6621 18.2364 18.7029C18.2364 18.8039 17.6363 19.0866 17.5681 19.0179C17.4971 18.946 17.4974 17.0453 17.5686 16.8581C17.617 16.7307 17.9688 16.7139 20.5973 16.7139C23.3469 16.7139 23.5756 16.7259 23.6301 16.8735C23.7848 17.2924 24.5957 17.807 25.101 17.807C25.4515 17.807 25.9292 17.592 26.2111 17.3075C27.1175 16.3925 26.3772 14.708 25.0687 14.708C24.7196 14.708 23.8365 15.1481 23.8365 15.3221C23.8365 15.6958 23.7084 15.7109 20.5461 15.7109H17.5138V14.632C17.5138 14.0386 17.5382 13.5284 17.568 13.4984C17.6372 13.4284 18.0557 13.6182 18.0557 13.7197C18.0557 13.7617 18.137 13.7962 18.2364 13.7962C18.3357 13.7962 18.417 13.8372 18.417 13.8874C18.417 13.9375 18.4983 13.9786 18.5977 13.9786C18.697 13.9786 18.7783 14.0196 18.7783 14.0697C18.7783 14.1199 18.8799 14.1609 19.0041 14.1609C19.1283 14.1609 19.2299 14.1975 19.2299 14.2422C19.2299 14.3425 19.6904 14.4263 20.6127 14.4938L21.3181 14.5454L21.2901 14.1025L21.2622 13.6594L20.7203 13.5938C20.1168 13.5206 18.8698 13.1503 18.8691 13.044C18.8688 13.0064 18.8077 12.9756 18.7332 12.9756C18.6586 12.9756 18.5977 12.9346 18.5977 12.8844C18.5977 12.8343 18.5349 12.7933 18.4581 12.7933C18.3813 12.7933 18.2238 12.701 18.1081 12.5881C17.9924 12.4752 17.8114 12.3116 17.7058 12.2243C17.5763 12.1173 17.5138 11.9613 17.5138 11.7456V11.4256H19.4622C21.0304 11.4256 21.4358 11.451 21.5396 11.5559C21.6106 11.6275 21.6687 11.7309 21.6687 11.7858C21.6687 11.8406 21.8596 12.0077 22.0929 12.157C22.4261 12.3704 22.6197 12.4285 22.9961 12.4285C23.2596 12.4285 23.4752 12.3875 23.4752 12.3374C23.4752 12.2872 23.5379 12.2462 23.6145 12.2462C23.9897 12.2462 24.4674 11.5166 24.4681 10.9423C24.4694 10.0585 23.7756 9.32949 22.9332 9.32949C22.4242 9.32949 21.8685 9.66831 21.5515 10.1719L21.3936 10.4226H19.5085C17.8729 10.4226 17.6162 10.4036 17.5686 10.2784C17.5384 10.1991 17.5138 9.35667 17.5138 8.40641C17.5138 6.92167 17.5336 6.67093 17.6553 6.62379C17.8846 6.53498 18.2364 6.77843 18.2364 7.02598C18.2364 7.32075 18.8331 7.8897 19.3083 8.04799C19.8069 8.21412 20.3217 8.05939 20.7637 7.61052C21.1643 7.20377 21.3937 6.57118 21.2341 6.31315C21.1751 6.21777 21.1268 6.07289 21.1268 5.99111C21.1268 5.7886 20.4239 5.13431 20.2064 5.13431C20.1099 5.13431 19.9626 5.09993 19.8788 5.05799C19.6499 4.94311 18.9314 5.19075 18.6189 5.49227C18.3624 5.73964 18.3228 5.74958 17.9303 5.66505L17.5138 5.57543V4.68115V3.78688L17.941 3.41205C18.176 3.20589 18.4166 3.03722 18.4755 3.03722C18.5344 3.03722 18.5961 3.00448 18.6128 2.96455C18.6689 2.82887 19.4742 2.50127 20.0986 2.35995C20.8094 2.19911 21.9796 2.23221 22.7234 2.43426ZM20.0921 6.17875C20.4901 6.58048 20.2774 7.14022 19.7267 7.14022C19.1895 7.14022 18.9441 6.51064 19.3373 6.14082C19.5987 5.895 19.8222 5.90622 20.0921 6.17875ZM16.4092 6.57829C16.4973 6.63482 16.5183 7.08533 16.4995 8.51445L16.475 10.377L15.3304 10.4025C14.2342 10.4269 14.1831 10.4198 14.1252 10.2356C13.9892 9.80335 13.258 9.32949 12.7266 9.32949C12.1025 9.32949 11.3324 9.91859 11.229 10.475C11.1591 10.8512 11.2581 11.6079 11.3772 11.6079C11.4239 11.6079 11.462 11.6519 11.462 11.7056C11.462 11.8233 11.5935 11.9572 11.9727 12.2264C12.35 12.4941 13.0161 12.4998 13.4397 12.2392C13.7714 12.035 13.9911 11.838 13.9911 11.7447C13.9911 11.7124 14.0492 11.6275 14.1202 11.5559C14.2183 11.4568 14.5211 11.4256 15.3847 11.4256H16.5202V13.5683V15.7109H14.0243C11.5817 15.7109 11.5248 15.7068 11.3597 15.5146C11.2669 15.4067 11.1911 15.2853 11.1911 15.2449C11.1911 15.0903 10.3969 14.708 10.0756 14.708C9.64055 14.708 8.99039 15.0219 8.84063 15.3044C8.77524 15.4277 8.69051 15.5286 8.65222 15.5286C8.61401 15.5286 8.55467 15.7173 8.52043 15.948C8.418 16.6372 8.60778 17.0771 9.22966 17.5923C9.43307 17.7608 10.0602 17.8278 10.4476 17.7225C10.8553 17.6117 11.462 17.0991 11.462 16.8655C11.462 16.7234 11.6633 16.713 13.9685 16.7352L16.475 16.7595V18.9478V21.136L15.3304 21.1615C14.2342 21.1859 14.1831 21.1788 14.1252 20.9946C14.0291 20.6891 13.544 20.2781 13.1544 20.1722C12.7902 20.0732 12.1437 20.133 11.9664 20.2822C11.9126 20.3274 11.783 20.4354 11.6786 20.5223C11.3205 20.8201 11.1645 21.2599 11.221 21.8124C11.2494 22.0908 11.3153 22.3327 11.3674 22.3502C11.4194 22.3678 11.462 22.4412 11.462 22.5133C11.462 22.7513 12.269 23.1875 12.7094 23.1875C13.0676 23.1875 13.8103 22.8841 13.8106 22.7377C13.8106 22.7093 13.9068 22.5732 14.0244 22.4353C14.2364 22.1864 14.2462 22.1846 15.379 22.1846H16.5202V24.044C16.5202 25.4767 16.4935 25.9137 16.4039 25.9484C16.253 26.0068 14.5563 25.8476 14.2621 25.7474C14.1379 25.7051 13.8534 25.6176 13.6298 25.5529C13.4063 25.4882 13.1847 25.4013 13.1376 25.3599C13.0903 25.3185 12.9583 25.2846 12.844 25.2846C12.7297 25.2846 12.6362 25.2436 12.6362 25.1934C12.6362 25.1433 12.5778 25.1023 12.5064 25.1023C12.2617 25.1023 11.01 24.3426 10.2529 23.7346C9.89761 23.4492 8.93294 22.4667 8.93294 22.3902C8.93294 22.3461 8.85238 22.2228 8.75383 22.1161C8.48186 21.8213 7.84995 20.8067 7.79115 20.5703C7.76252 20.4552 7.70291 20.361 7.65865 20.361C7.6143 20.361 7.57808 20.2814 7.57808 20.184C7.57808 20.0867 7.53743 19.9817 7.48775 19.9507C7.43807 19.9197 7.39743 19.7943 7.39743 19.6718C7.39743 19.5494 7.36139 19.4492 7.31731 19.4492C7.27332 19.4492 7.21488 19.3365 7.18742 19.1985C7.15997 19.0606 7.09385 18.7631 7.04038 18.5375C6.73978 17.2687 6.69606 15.2717 6.94752 14.2977C7.16313 13.4627 7.44711 12.6118 7.51033 12.6114C7.54755 12.6111 7.57808 12.5527 7.57808 12.4817C7.57808 12.3222 8.13628 11.2505 8.50797 10.6962C8.78409 10.2844 10.478 8.50789 10.5945 8.50789C10.6287 8.50789 10.7439 8.42592 10.8504 8.32572C10.9568 8.2256 11.3515 7.98963 11.7272 7.80144C12.103 7.61334 12.424 7.42853 12.4405 7.39096C12.4571 7.3534 12.5462 7.32258 12.6384 7.32258C12.7307 7.32258 12.8313 7.28155 12.8621 7.2314C12.8928 7.18125 13.0171 7.14022 13.1384 7.14022C13.2597 7.14022 13.3588 7.09919 13.3588 7.04904C13.3588 6.9989 13.4783 6.95787 13.6245 6.95787C13.7706 6.95787 13.911 6.92377 13.9366 6.88201C13.9816 6.80833 15.112 6.61786 15.8428 6.56088C16.0415 6.54529 16.2244 6.52632 16.2492 6.51866C16.2741 6.511 16.3461 6.5379 16.4092 6.57829ZM12.9285 10.3371C13.0443 10.3903 13.1907 10.5516 13.2538 10.6955C13.3561 10.9288 13.3467 10.9824 13.1667 11.1913C12.9397 11.4549 12.5222 11.5058 12.3137 11.2953C12.1182 11.0981 12.1544 10.6405 12.3823 10.4262C12.6102 10.2118 12.6442 10.2064 12.9285 10.3371ZM23.2372 10.4293C23.5057 10.6425 23.5606 11.0788 23.3461 11.2953C23.1577 11.4856 22.5808 11.4654 22.508 11.266C22.4758 11.1782 22.4108 11.0802 22.3634 11.048C22.2374 10.9628 22.4853 10.4503 22.7047 10.3426C22.9615 10.2166 22.9714 10.2182 23.2372 10.4293ZM10.4649 15.9105C10.7563 16.2262 10.6662 16.5535 10.2221 16.7923C9.89056 16.9706 9.47887 16.6796 9.47625 16.2652C9.47309 15.7511 10.1077 15.5234 10.4649 15.9105ZM25.5134 15.9352C25.7095 16.2372 25.614 16.6565 25.3182 16.7925C25.0074 16.9355 24.9771 16.9287 24.7069 16.6559C24.4286 16.3749 24.4085 16.1888 24.6268 15.9131C24.8524 15.6282 25.3217 15.6399 25.5134 15.9352ZM13.0004 21.1414C13.0766 21.1695 13.1906 21.3104 13.2537 21.4543C13.3561 21.6879 13.3467 21.7414 13.1667 21.9503C12.9397 22.2138 12.5222 22.2648 12.3137 22.0543C12.1776 21.917 12.1415 21.4728 12.2537 21.3184C12.3624 21.1692 12.6746 21.0077 12.7717 21.0505C12.8214 21.0724 12.9244 21.1133 13.0004 21.1414ZM23.1377 21.1132C23.2488 21.176 23.3696 21.2682 23.4061 21.3184C23.5184 21.4728 23.4822 21.917 23.3461 22.0543C23.1287 22.2737 22.4816 22.1991 22.4816 21.9544C22.4816 21.8888 22.4341 21.819 22.376 21.7995C22.2974 21.7731 22.3013 21.6934 22.3915 21.4877C22.492 21.2585 22.6053 21.1546 22.9119 21.0105C22.925 21.0043 23.0266 21.0506 23.1377 21.1132ZM20.1297 25.5754C20.3415 25.8049 20.3547 25.9149 20.209 26.2377C20.121 26.4326 20.0436 26.4699 19.7267 26.4699C19.4099 26.4699 19.3325 26.4326 19.2445 26.2377C19.097 25.9109 19.113 25.7674 19.3203 25.5582C19.557 25.3192 19.9 25.3265 20.1297 25.5754Z" stroke="#344054" stroke-width="0.290909" mask="url(#path-1-outside-1_1030_6686)"/>
</svg>
