<svg width="159" height="39" viewBox="0 0 159 39" fill="none" xmlns="http://www.w3.org/2000/svg">
<g id="Group 1000003073">
<path id="Vector" d="M23.2914 2.3194C23.3791 3.38474 23.4418 4.26208 23.5295 5.25222C24.4069 5.65328 25.2968 6.05435 26.2869 6.49302C27.0264 5.85382 27.7533 5.21462 28.5429 4.52528C30.9994 5.89142 32.8418 7.69623 34.1955 10.2029C33.5688 10.9424 32.9797 11.6442 32.328 12.4213C32.6914 13.3363 33.0549 14.2387 33.4435 15.2163C34.4461 15.3165 35.4112 15.4168 36.464 15.5296C37.0781 18.2493 37.0907 20.8437 36.464 23.551C35.4363 23.6512 34.5213 23.7515 33.4811 23.8518C33.1176 24.679 32.7416 25.5312 32.328 26.4587C32.9421 27.2232 33.5437 27.9878 34.1829 28.8024C32.9296 31.3467 30.9744 33.0513 28.6181 34.5803C27.816 33.891 27.0765 33.2769 26.2869 32.6001C25.372 32.9886 24.4695 33.3771 23.5421 33.7782C23.4543 34.7809 23.3791 35.6958 23.2914 36.7486C22.6647 36.8489 22.1258 36.9993 21.5869 37.0118C20.1831 37.0494 18.7794 37.0369 17.3631 37.0118C16.4858 37.0118 15.6084 37.0995 14.9316 36.2723C14.7311 36.0342 14.1671 36.0467 13.766 36.0342C10.8207 35.8963 8.74015 34.4425 7.52441 31.8105C7.11081 30.9081 6.59694 30.3065 5.69454 29.8302C2.28546 28.0504 0.869186 24.4158 1.93452 20.6557C2.13506 19.9539 2.13506 19.1016 1.93452 18.4123C0.856653 14.6021 2.16013 11.193 5.65694 9.2253C6.57188 8.71143 7.14841 8.08476 7.57455 7.11969C8.76522 4.41248 11.0338 3.22181 13.8663 2.90847C14.3802 2.84581 14.869 2.57007 15.3703 2.38207C15.6084 2.29434 15.8215 2.0938 16.0722 2.06874C18.441 1.7178 20.8098 1.59247 23.3039 2.30687L23.2914 2.3194ZM17.9647 20.1168C16.3229 20.1168 14.7812 20.1168 13.2396 20.1168C12.3999 20.1168 11.6479 20.1544 10.9586 20.8312C10.2442 21.5331 9.19135 21.4077 8.56468 20.7685C7.97562 20.1795 7.88788 19.1267 8.38922 18.4624C8.95322 17.7229 9.98096 17.5851 10.921 18.1365C11.2719 18.3496 11.6228 18.7131 11.9863 18.7256C13.9415 18.7883 15.9092 18.7507 17.9647 18.7507V16.8707C16.6863 17.2091 15.4706 17.5349 14.3175 17.8483C13.8663 16.9333 14.1295 16.6075 14.7562 16.4445C15.2575 16.3067 15.7714 16.1813 16.2351 15.9683C16.8869 15.6549 17.7141 15.4795 17.9146 14.5645C15.834 14.1008 14.8314 14.2387 13.1143 15.1285C12.2871 15.5547 11.4975 15.492 10.8458 14.7651C10.2442 14.0883 10.2442 13.1858 10.8207 12.4714C11.4098 11.757 12.4124 11.5189 13.202 12.1456C14.7186 13.3613 16.2978 12.7973 17.9146 12.7221V8.9997C17.501 9.50103 17.3255 9.76424 17.1125 9.9773C16.3103 10.7418 15.3076 10.8421 14.5807 10.2405C13.954 9.7141 13.766 8.71143 14.1796 7.95943C14.5807 7.19489 15.4956 6.89409 16.4983 7.21996C16.9245 7.35783 17.3255 7.54583 17.7391 7.72129C18.253 6.16715 18.1402 5.62822 16.9495 5.03915C14.7311 3.92368 12.5252 3.93621 10.4572 5.42768C9.54229 6.09195 8.75269 6.89409 8.61482 8.17249C9.74282 8.34796 10.7831 8.5109 11.8108 8.67383C11.8484 9.61383 11.5476 9.85197 10.8583 9.76424C10.2442 9.6765 9.61749 9.6389 8.99082 9.65143C5.36867 9.72663 2.62386 12.7221 2.87453 16.3443C2.91213 16.8707 3.10013 17.372 3.21293 17.8733C4.4036 17.0963 5.41881 16.4445 6.43401 15.7803C6.57188 15.8805 6.72228 15.9808 6.86014 16.0811C6.77241 16.4445 6.75988 16.8331 6.58441 17.1589C6.48414 17.3595 6.14574 17.4221 5.93267 17.56C3.21293 19.3523 2.17266 22.3478 3.21293 25.3307C4.178 28.088 6.69721 29.6297 9.88069 29.4041C10.2442 29.379 10.6202 29.216 10.9586 29.2787C11.297 29.3539 11.5852 29.6422 11.8986 29.8427C11.861 30.0057 11.8359 30.1561 11.7983 30.319C10.733 30.5195 9.66762 30.7201 8.60228 30.9206C9.74282 35.0065 14.7812 35.7083 17.4759 33.6654C18.3533 33.0011 18.2405 32.2115 17.8018 31.2841C16.5234 31.5598 15.1447 32.7254 14.2172 30.9206C13.8287 30.1561 13.9039 29.3289 14.6308 28.8024C16.0346 27.7747 16.9621 28.8776 17.9146 29.8553V26.0451C16.1599 26.1704 14.493 25.5312 13.0516 26.9475C12.425 27.5616 11.3972 27.2608 10.8207 26.584C10.2066 25.8446 10.2066 24.8419 10.8458 24.1526C11.4599 23.4883 12.4626 23.3504 13.2396 24.0147C14.7311 25.2806 16.3103 24.5912 17.9271 24.4032C17.5637 23.8768 17.1626 23.4883 16.6863 23.2502C16.0847 22.9619 15.433 22.7614 14.7812 22.5859C14.0543 22.3854 13.8412 22.0344 14.3676 21.1195C15.5458 21.4579 16.7365 21.8088 18.0525 22.1848C18.0274 21.4955 18.0023 20.944 17.9647 20.1043V20.1168ZM32.8293 29.0656C32.2026 28.4014 31.7138 28.0003 31.3754 27.4864C31.1498 27.1355 30.9368 26.584 31.0621 26.2331C31.5258 24.9798 32.1274 23.7766 32.6538 22.5859C33.6565 22.4856 34.5088 22.4104 35.5115 22.3102V16.7453C34.4461 16.6451 33.5312 16.5573 32.5912 16.4696C31.9896 14.9907 31.4256 13.612 30.849 12.1832C31.5133 11.4312 32.1274 10.7418 32.8043 9.9773C31.4757 8.53596 30.3602 7.05702 28.7184 6.12955C27.9413 6.76876 27.2645 7.33276 26.5626 7.90929C25.0962 7.30769 23.7175 6.73116 22.3263 6.16715C22.2135 5.16448 22.1007 4.26208 21.9879 3.27194C20.1957 2.99621 18.5663 3.02127 16.8869 3.34714C18.3533 4.36235 19.8573 5.21462 19.381 7.40796C26.5376 8.53596 31.1624 12.3962 31.0621 19.7032C30.9618 26.8222 26.4498 30.6449 19.6191 31.5347C19.381 32.4747 19.3434 33.3646 18.9423 34.0289C18.5413 34.6681 17.7642 35.0817 17.1501 35.583C18.8546 35.9715 20.4589 36.2347 22.1133 35.5579C22.1383 34.9062 22.1007 34.3171 22.2261 33.7782C22.3138 33.3646 22.5394 32.8131 22.8653 32.6502C24.0685 32.0611 25.3469 31.6225 26.6253 31.1086C27.3648 31.7227 28.0666 32.2993 28.969 33.0387C30.2976 31.6726 31.5509 30.4067 32.8669 29.0656H32.8293ZM19.4687 29.8678C22.9906 30.1811 26.8133 27.9376 28.5053 24.516C30.5482 20.4051 30.2349 16.4069 27.3648 12.7848C25.4096 10.3157 22.8026 8.9997 19.4938 9.09997V12.6469C20.5591 12.9602 21.3863 12.9728 22.2386 12.2834C23.1285 11.5565 24.1186 11.6944 24.7453 12.4338C25.3218 13.1106 25.3344 14.0381 24.7704 14.7275C24.1562 15.492 23.1535 15.6549 22.2762 14.9405C21.3863 14.2011 20.5215 14.2387 19.5063 14.5645V18.8133C21.5994 18.4875 23.6173 19.44 25.4848 17.9987C26.2242 17.4347 27.3648 17.7856 27.841 18.5251C28.3173 19.2645 28.2672 20.0165 27.6781 20.6808C27.064 21.3701 26.0738 21.5331 25.2717 20.9064C23.4293 19.4651 21.4615 20.2797 19.5189 20.2296V24.5536C20.6093 24.7918 21.449 24.8419 22.2762 24.1024C23.141 23.3379 24.0935 23.4758 24.7453 24.2654C25.3469 24.9798 25.3093 26.02 24.645 26.6843C23.9933 27.3486 23.0031 27.4864 22.2637 26.772C21.4239 25.9574 20.5717 25.9198 19.4687 26.2456V29.8678ZM12.6506 25.5438C12.613 25.4059 12.5879 25.268 12.5503 25.1302C12.3122 25.1678 12.0615 25.2054 11.8234 25.2555C11.8735 25.4184 11.9236 25.5939 11.9738 25.7568C12.1994 25.6816 12.425 25.619 12.6506 25.5438ZM15.7588 8.33543C15.5834 8.6237 15.458 8.76156 15.433 8.9245C15.433 9.01223 15.621 9.2253 15.6836 9.21277C15.8466 9.16263 16.0596 9.04983 16.0847 8.9245C16.1098 8.79916 15.9343 8.63623 15.7588 8.33543ZM23.3791 14.1384C23.5671 13.8877 23.7677 13.7373 23.7677 13.612C23.7677 13.4741 23.5295 13.2485 23.4042 13.261C23.2663 13.261 23.0533 13.4616 23.0157 13.612C22.9906 13.7248 23.2037 13.8877 23.3791 14.1384ZM10.382 19.4149C10.0562 19.3021 9.88069 19.2019 9.73029 19.2144C9.63002 19.2144 9.46709 19.4776 9.49216 19.5277C9.57989 19.6781 9.73029 19.8661 9.88069 19.8661C10.006 19.8661 10.1314 19.6531 10.3946 19.4149H10.382ZM26.9512 19.4776C26.6378 19.3397 26.4749 19.2144 26.3245 19.2144C26.2368 19.2144 26.0362 19.44 26.0613 19.4901C26.124 19.6531 26.2618 19.8661 26.3997 19.8787C26.525 19.8912 26.6754 19.6907 26.9637 19.4776H26.9512ZM23.9557 25.5563C23.7175 25.3307 23.5922 25.1176 23.4669 25.1051C23.329 25.1051 23.1661 25.2806 23.0157 25.3683C23.1285 25.5187 23.2037 25.7443 23.3541 25.7944C23.4794 25.832 23.6674 25.6816 23.9682 25.5563H23.9557ZM12.6255 13.7373C12.6255 13.6371 12.6255 13.5368 12.613 13.4365C12.3748 13.4114 12.1367 13.3864 11.8986 13.3613C11.8986 13.5368 11.9111 13.7248 11.9236 13.9003C12.1618 13.8501 12.3874 13.8 12.6255 13.7499V13.7373ZM16.1975 30.2563C16.022 30.0558 15.9092 29.8553 15.8466 29.8678C15.6836 29.9054 15.5332 30.0307 15.4204 30.1561C15.3954 30.1811 15.5583 30.4819 15.6335 30.4819C15.7964 30.4819 15.9594 30.3691 16.1975 30.2563Z" fill="#0059B3"/>
<path id="Vector_2" d="M70.7198 11.118C73.452 10.93 75.8459 10.8047 78.1897 11.3812C81.2854 12.1457 82.238 15.7052 80.0446 18.0364C79.8691 18.2244 79.6686 18.3874 79.3803 18.6506C79.6059 18.8135 79.7814 18.9764 79.9819 19.0767C81.4358 19.7911 82.1878 20.9818 82.1628 22.5861C82.1377 24.3157 81.4985 25.757 79.8817 26.5717C79.2801 26.8725 78.6409 27.2109 77.9891 27.261C75.6705 27.4365 73.3518 27.5117 70.7574 27.6245C70.6446 21.9719 70.6947 16.6452 70.7198 11.1305V11.118ZM72.9507 25.569C74.8683 25.7069 76.6105 25.8823 78.3025 25.2306C79.443 24.7794 79.9443 23.8519 79.9945 22.6613C80.0446 21.5708 79.5809 20.7311 78.5782 20.2799C76.7609 19.4527 74.8809 19.7535 72.9507 19.8162V25.569ZM72.9507 18.237C74.5926 18.0364 76.0339 17.9738 77.4126 17.673C78.4654 17.4474 79.0043 16.57 79.0419 15.4671C79.0795 14.502 78.7411 13.7124 77.8137 13.3239C76.2345 12.6596 74.6177 12.7975 72.9382 12.9604V18.237H72.9507Z" fill="#0059B3"/>
<path id="Vector_3" d="M50.7161 11.1554H52.4833C52.5836 11.4688 52.7465 11.757 52.7465 12.0453C52.7089 15.5421 52.7841 19.0514 52.546 22.5232C52.1825 27.875 47.2193 28.6019 44.0609 27.2358C42.4942 26.5589 41.7046 25.2053 41.3161 23.6261C41.0905 22.7237 40.9902 21.7712 40.9777 20.8437C40.9275 18.1866 40.9526 15.517 40.9777 12.86C40.9777 12.3461 41.0403 11.8448 41.0779 11.193H43.0457C43.0833 11.8824 43.146 12.4464 43.146 12.9978C43.1585 15.6549 43.146 18.3245 43.171 20.9816C43.171 21.7587 43.2713 22.5483 43.4844 23.2877C43.9982 25.0549 45.0886 25.7568 47.0062 25.7192C48.7985 25.6816 49.8764 24.9171 50.315 23.2C50.5156 22.3979 50.6158 21.5581 50.6284 20.7309C50.666 18.1741 50.6284 15.6173 50.6535 13.0605C50.6535 12.4965 50.7036 11.9325 50.7287 11.1429L50.7161 11.1554Z" fill="#0059B3"/>
<path id="Vector_4" d="M57.0073 15.5796C58.0852 15.0031 58.5364 15.6924 58.9249 16.3316C59.8148 15.9306 60.5919 15.4919 61.4316 15.2412C63.7628 14.5268 66.0564 15.6172 66.8586 17.9234C67.8362 20.7183 67.8487 23.4882 65.8935 25.9197C64.2516 27.9626 62.2713 28.301 59.9025 27.148C59.6769 27.0352 59.4388 26.9224 58.9124 26.6466V32.412C58.1479 32.4621 57.6591 32.4872 57.0073 32.5248V15.5796ZM58.8623 21.6207C58.8623 22.3477 58.8121 23.0746 58.8748 23.8015C58.9124 24.1901 59.0377 24.6538 59.2884 24.917C60.8927 26.5714 63.4996 26.1704 64.5399 24.1149C65.2543 22.7237 65.3671 21.2447 65.0412 19.7157C64.6276 17.7354 63.4996 16.7578 61.7575 16.9207C59.9527 17.0962 58.8497 18.3495 58.8372 20.217C58.8372 20.6807 58.8372 21.157 58.8372 21.6207H58.8623Z" fill="#0059B3"/>
<path id="Vector_5" d="M151.885 27.3613H149.679C149.127 25.7946 148.588 24.2404 148.037 22.6362H142.284C141.732 24.253 141.206 25.8196 140.667 27.3863H138.486C140.329 21.8716 142.121 16.5575 143.926 11.1431C144.766 11.0929 145.467 11.0553 146.37 11.0052C148.2 16.4321 149.992 21.7714 151.872 27.3613H151.885ZM145.304 13.5495H145.041C144.352 15.818 143.65 18.1116 142.923 20.5306H147.41C146.671 18.0865 145.994 15.818 145.304 13.5495Z" fill="#0059B3"/>
<path id="Vector_6" d="M92.9293 16.6076C94.5461 15.5422 96 15.0409 97.6043 15.0284C99.7976 15.0158 101.352 16.0436 101.602 18.1868C101.941 21.1572 101.891 24.1777 101.991 27.0604C100.713 27.825 100.061 27.474 99.7851 26.4338C98.7072 26.885 97.7923 27.3988 96.8022 27.6495C94.8845 28.1634 93.2051 27.3111 92.5659 25.6692C91.8515 23.8268 92.5032 21.9468 94.3331 21.0569C95.3984 20.5431 96.5891 20.3175 97.7422 19.9916C98.3312 19.8287 98.9328 19.7284 99.5094 19.5905C99.4968 17.5601 98.7072 16.7078 96.8899 16.9209C95.8371 17.0462 94.8093 17.4724 93.5936 17.8233C93.3931 17.4598 93.1675 17.0462 92.9168 16.5825L92.9293 16.6076ZM99.359 21.2073C98.1056 21.6084 96.8147 21.9092 95.6115 22.4231C94.5963 22.8617 94.2203 23.8769 94.5336 24.7417C94.8971 25.7319 95.7493 26.0452 96.6643 25.9074C98.8451 25.6066 100.449 24.654 99.359 21.2073Z" fill="#0059B3"/>
<path id="Vector_7" d="M113.683 27.3737H111.74V15.5672C112.856 15.0909 113.495 15.3542 113.62 16.7203C114.122 16.407 114.473 16.1187 114.886 15.9432C115.688 15.6048 116.503 15.1661 117.355 15.0533C119.185 14.7901 120.602 15.8179 121.103 17.5976C121.228 18.0488 121.329 18.5126 121.341 18.9763C121.366 21.7211 121.341 24.4785 121.341 27.3486H119.348C119.286 26.7721 119.173 26.2206 119.173 25.6691C119.148 23.6889 119.173 21.7086 119.148 19.7283C119.11 17.7606 118.433 16.9083 116.992 16.8958C115.325 16.8958 113.808 18.3371 113.796 19.9915C113.783 21.8214 113.796 23.6387 113.796 25.4686C113.796 26.0326 113.733 26.5966 113.696 27.3486L113.683 27.3737Z" fill="#0059B3"/>
<path id="Vector_8" d="M132.396 16.4571C131.97 16.9208 131.707 17.2091 131.506 17.4221C130.529 17.1589 129.689 16.8331 128.824 16.7453C127.922 16.6576 127.032 16.8957 126.693 17.936C126.418 18.7757 126.844 19.4651 127.959 19.9664C128.812 20.3549 129.714 20.6307 130.554 21.0317C132.133 21.7963 132.872 22.9995 132.697 24.491C132.509 26.1328 131.506 27.1104 129.977 27.5491C127.696 28.2008 125.716 27.6118 123.811 26.0075C124.174 25.5563 124.437 25.2179 124.525 25.1176C126.067 25.4435 127.345 25.807 128.661 25.9574C129.614 26.0702 130.416 25.5939 130.629 24.5536C130.842 23.5384 130.153 23.0246 129.363 22.6486C128.423 22.2099 127.433 21.8589 126.518 21.3827C125.24 20.7184 124.337 19.7408 124.488 18.1741C124.625 16.7077 125.653 15.6048 127.295 15.2037C129.112 14.7776 130.767 15.1035 132.409 16.4696L132.396 16.4571Z" fill="#0059B3"/>
<path id="Vector_9" d="M154.279 11.1554H156.171V27.3861C155.507 27.4237 154.981 27.4488 154.279 27.4864V11.1554Z" fill="#0059B3"/>
<path id="Vector_10" d="M87.1876 17.0463C88.441 15.6802 89.6066 14.5647 91.637 15.3543C91.5367 15.8807 91.449 16.3444 91.3738 16.7455C90.5466 16.946 89.8447 16.9962 89.2682 17.297C87.9647 17.9487 87.2628 19.0767 87.2503 20.5682C87.2378 22.2351 87.2503 23.9021 87.2503 25.569C87.2503 26.133 87.2002 26.6845 87.1626 27.3863H85.1948V15.4922C85.6962 15.442 86.1348 15.3919 86.6362 15.3292C86.8242 15.8932 86.9871 16.3695 87.2252 17.0338L87.1876 17.0463Z" fill="#0059B3"/>
<path id="Vector_11" d="M105.551 27.3611V15.4669C106.19 15.4293 106.729 15.3917 107.556 15.3416C107.656 19.3899 107.594 23.3003 107.594 27.3611H105.551Z" fill="#0059B3"/>
<path id="Vector_12" d="M106.551 12.8724C105.774 12.8474 105.173 12.2583 105.173 11.5063C105.173 10.7919 105.824 10.1778 106.589 10.1652C107.378 10.1652 107.93 10.7292 107.917 11.5439C107.917 12.3711 107.378 12.885 106.551 12.8724Z" fill="#0059B3"/>
</g>
</svg>
