<svg width="38" height="38" viewBox="0 0 38 38" fill="none" xmlns="http://www.w3.org/2000/svg">
	<rect width="38" height="38" rx="8" fill="#E9D7FE" />
	<path d="M25.6663 26.5V24.8333C25.6663 23.9493 25.3152 23.1014 24.69 22.4763C24.0649 21.8512 23.2171 21.5 22.333 21.5H15.6663C14.7823 21.5 13.9344 21.8512 13.3093 22.4763C12.6842 23.1014 12.333 23.9493 12.333 24.8333V26.5M22.333 14.8333C22.333 16.6743 20.8406 18.1667 18.9997 18.1667C17.1587 18.1667 15.6663 16.6743 15.6663 14.8333C15.6663 12.9924 17.1587 11.5 18.9997 11.5C20.8406 11.5 22.333 12.9924 22.333 14.8333Z" stroke="#667085" stroke-width="1.66667" stroke-linecap="round" stroke-linejoin="round" />
</svg>
