<svg width="24" height="24" viewBox="0 0 24 24" fill="none" xmlns="http://www.w3.org/2000/svg">
<rect width="24" height="24" rx="4" fill="#FECDCA"/>
<path d="M18.6663 19.5V17.8333C18.6663 16.9493 18.3152 16.1014 17.69 15.4763C17.0649 14.8512 16.2171 14.5 15.333 14.5H8.66634C7.78229 14.5 6.93444 14.8512 6.30932 15.4763C5.6842 16.1014 5.33301 16.9493 5.33301 17.8333V19.5M15.333 7.83333C15.333 9.67428 13.8406 11.1667 11.9997 11.1667C10.1587 11.1667 8.66634 9.67428 8.66634 7.83333C8.66634 5.99238 10.1587 4.5 11.9997 4.5C13.8406 4.5 15.333 5.99238 15.333 7.83333Z" stroke="#667085" stroke-width="1.66667" stroke-linecap="round" stroke-linejoin="round"/>
</svg>
