<svg width="14" height="14" viewBox="0 0 14 14" fill="none" xmlns="http://www.w3.org/2000/svg">
<path d="M13.7574 6.87872C13.7574 7.42143 13.3175 7.86139 12.7748 7.86139H7.86139V12.7748C7.86139 13.3175 7.42143 13.7574 6.87872 13.7574C6.336 13.7574 5.89604 13.3175 5.89604 12.7748V7.86139H0.982674C0.439958 7.86139 0 7.42143 0 6.87872C0 6.336 0.439958 5.89604 0.982674 5.89604H5.89604V0.982674C5.89604 0.439958 6.336 0 6.87872 0C7.42143 0 7.86139 0.439958 7.86139 0.982674V5.89604H12.7748C13.3175 5.89604 13.7574 6.336 13.7574 6.87872Z" fill="#1570EF"/>
</svg>
