<svg width="16" height="16" viewBox="0 0 16 16" fill="none" xmlns="http://www.w3.org/2000/svg">
<g id="vuesax/linear/document-copy">
<path id="Vector" d="M11.334 8.93317V10.9332C11.334 13.5998 10.2673 14.6665 7.60065 14.6665H5.06732C2.40065 14.6665 1.33398 13.5998 1.33398 10.9332V8.39984C1.33398 5.73317 2.40065 4.6665 5.06732 4.6665H7.06732" stroke="#292D32" stroke-width="1.5" stroke-linecap="round" stroke-linejoin="round"/>
<path id="Vector_2" d="M11.3331 8.93317H9.19974C7.59974 8.93317 7.06641 8.39984 7.06641 6.79984V4.6665L11.3331 8.93317Z" stroke="#292D32" stroke-width="1.5" stroke-linecap="round" stroke-linejoin="round"/>
<path id="Vector_3" d="M7.73242 1.3335H10.3991" stroke="#292D32" stroke-width="1.5" stroke-linecap="round" stroke-linejoin="round"/>
<path id="Vector_4" d="M4.66602 3.3335C4.66602 2.22683 5.55935 1.3335 6.66602 1.3335H8.41268" stroke="#292D32" stroke-width="1.5" stroke-linecap="round" stroke-linejoin="round"/>
<path id="Vector_5" d="M14.6663 5.3335V9.46016C14.6663 10.4935 13.8263 11.3335 12.793 11.3335" stroke="#292D32" stroke-width="1.5" stroke-linecap="round" stroke-linejoin="round"/>
<path id="Vector_6" d="M14.666 5.3335H12.666C11.166 5.3335 10.666 4.8335 10.666 3.3335V1.3335L14.666 5.3335Z" stroke="#292D32" stroke-width="1.5" stroke-linecap="round" stroke-linejoin="round"/>
</g>
</svg>
