<svg width="24" height="25" viewBox="0 0 24 25" fill="none" xmlns="http://www.w3.org/2000/svg">
<g id="photo_landscape" opacity="0.75">
<path id="Icon color" fill-rule="evenodd" clip-rule="evenodd" d="M21.7403 6.49297C21.7403 5.41709 20.8681 4.54492 19.7922 4.54492H4.20782C3.13194 4.54492 2.25977 5.41709 2.25977 6.49297V18.1813C2.25977 19.2572 3.13194 20.1293 4.20782 20.1293H19.7922C20.8681 20.1293 21.7403 19.2572 21.7403 18.1813V6.49297ZM9.56472 7.46695C10.3716 7.46695 11.0258 8.12108 11.0258 8.92799C11.0258 9.7349 10.3716 10.389 9.56472 10.389C8.75781 10.389 8.10368 9.7349 8.10368 8.92799C8.10368 8.12108 8.75781 7.46695 9.56472 7.46695ZM18.3314 17.2075C18.6004 17.2075 18.8185 16.9895 18.8185 16.7205V16.3893C18.8178 16.2841 18.7837 16.1817 18.7211 16.0971L14.5814 10.5744C14.4872 10.4553 14.3437 10.3858 14.1918 10.3858C14.04 10.3858 13.8964 10.4553 13.8022 10.5744L10.997 14.1978C10.9041 14.3192 10.7603 14.3911 10.6074 14.3926C10.464 14.3927 10.328 14.3283 10.2373 14.2173L8.82495 12.5127C8.73116 12.4001 8.59163 12.3357 8.44508 12.3374C8.31139 12.3514 8.18874 12.418 8.10417 12.5224L5.28923 16.0971C5.21975 16.1786 5.18174 16.2823 5.18209 16.3893V16.7205C5.18209 16.9895 5.40013 17.2075 5.6691 17.2075H18.3314Z" fill="url(#paint0_linear_3204_26049)"/>
</g>
<defs>
<linearGradient id="paint0_linear_3204_26049" x1="12" y1="4.54492" x2="12" y2="37.7175" gradientUnits="userSpaceOnUse">
<stop stop-color="#D4D1CD"/>
<stop offset="1" stop-color="#D4D1CD" stop-opacity="0.6"/>
</linearGradient>
</defs>
</svg>
