<svg width="27" height="26" viewBox="0 0 27 26" fill="none" xmlns="http://www.w3.org/2000/svg">
<g id="vuesax/bold/receipt">
<g id="receipt">
<path id="Vector" d="M17.5953 2.1665H9.40533C5.31033 2.1665 4.29199 3.26067 4.29199 7.6265V19.8248C4.29199 22.7065 5.87366 23.389 7.79116 21.3307L7.80199 21.3198C8.69033 20.3773 10.0445 20.4532 10.8137 21.4823L11.9078 22.9448C12.7853 24.104 14.2045 24.104 15.082 22.9448L16.1762 21.4823C16.9562 20.4423 18.3103 20.3665 19.1987 21.3198C21.127 23.3782 22.6978 22.6957 22.6978 19.814V7.6265C22.7087 3.26067 21.6903 2.1665 17.5953 2.1665ZM16.7503 12.729H10.2503C9.80616 12.729 9.43783 12.3607 9.43783 11.9165C9.43783 11.4723 9.80616 11.104 10.2503 11.104H16.7503C17.1945 11.104 17.5628 11.4723 17.5628 11.9165C17.5628 12.3607 17.1945 12.729 16.7503 12.729ZM17.8337 8.39567H9.16699C8.72283 8.39567 8.35449 8.02734 8.35449 7.58317C8.35449 7.139 8.72283 6.77067 9.16699 6.77067H17.8337C18.2778 6.77067 18.6462 7.139 18.6462 7.58317C18.6462 8.02734 18.2778 8.39567 17.8337 8.39567Z" fill="#0062FF"/>
</g>
</g>
</svg>
