<svg width="61" height="60" viewBox="0 0 61 60" fill="none" xmlns="http://www.w3.org/2000/svg">
<rect opacity="0.1" x="0.5" width="60" height="60" rx="30" fill="#84CAFF"/>
<path d="M40.9301 24.761L37.5601 38.291C37.3201 39.301 36.4201 40.001 35.3801 40.001H22.2401C20.7301 40.001 19.6501 38.5209 20.1001 37.0709L24.3101 23.551C24.6001 22.611 25.4702 21.9609 26.4502 21.9609H38.7501C39.7001 21.9609 40.4901 22.5409 40.8201 23.3409C41.0101 23.7709 41.0501 24.261 40.9301 24.761Z" stroke="#1570EF" stroke-width="1.5" stroke-miterlimit="10"/>
<path d="M35 40H39.78C41.07 40 42.08 38.91 41.99 37.62L41 24" stroke="#1570EF" stroke-width="1.5" stroke-miterlimit="10" stroke-linecap="round" stroke-linejoin="round"/>
<path d="M28.6802 24.3785L29.7202 20.0586" stroke="#1570EF" stroke-width="1.5" stroke-miterlimit="10" stroke-linecap="round" stroke-linejoin="round"/>
<path d="M35.3799 24.3907L36.3199 20.0508" stroke="#1570EF" stroke-width="1.5" stroke-miterlimit="10" stroke-linecap="round" stroke-linejoin="round"/>
<path d="M26.7002 30H34.7002" stroke="#1570EF" stroke-width="1.5" stroke-miterlimit="10" stroke-linecap="round" stroke-linejoin="round"/>
<path d="M25.7002 34H33.7002" stroke="#1570EF" stroke-width="1.5" stroke-miterlimit="10" stroke-linecap="round" stroke-linejoin="round"/>
</svg>
