<svg width="61" height="60" viewBox="0 0 61 60" fill="none" xmlns="http://www.w3.org/2000/svg">
<rect opacity="0.1" x="0.100098" width="60" height="60" rx="30" fill="#FF8F6B"/>
<path d="M35.1001 27C35.1001 30.87 31.7401 34 27.6001 34L26.6701 35.12L26.1201 35.78C25.6501 36.34 24.7501 36.22 24.4401 35.55L23.1001 32.6C21.2801 31.32 20.1001 29.29 20.1001 27C20.1001 23.13 23.4601 20 27.6001 20C30.6201 20 33.2301 21.67 34.4001 24.07C34.8501 24.96 35.1001 25.95 35.1001 27Z" stroke="#F04438" stroke-width="1.5" stroke-linecap="round" stroke-linejoin="round"/>
<path d="M40.0999 30.8603C40.0999 33.1503 38.9199 35.1803 37.0999 36.4603L35.7599 39.4103C35.4499 40.0803 34.5499 40.2103 34.0799 39.6403L32.5999 37.8603C30.1799 37.8603 28.0199 36.7903 26.6699 35.1203L27.5999 34.0003C31.7399 34.0003 35.0999 30.8703 35.0999 27.0003C35.0999 25.9503 34.8499 24.9603 34.3999 24.0703C37.6699 24.8203 40.0999 27.5803 40.0999 30.8603Z" stroke="#F04438" stroke-width="1.5" stroke-linecap="round" stroke-linejoin="round"/>
<path d="M25.1001 27H30.1001" stroke="#F04438" stroke-width="1.5" stroke-linecap="round" stroke-linejoin="round"/>
</svg>
