<svg width="61" height="60" viewBox="0 0 61 60" fill="none" xmlns="http://www.w3.org/2000/svg">
<rect opacity="0.1" x="0.300293" width="60" height="60" rx="30" fill="#FEC84B"/>
<path d="M38 30.2V31.9C38 35.05 36.2 36.4 33.5 36.4H24.5C21.8 36.4 20 35.05 20 31.9V26.5C20 23.35 21.8 22 24.5 22H27.2C27.07 22.38 27 22.8 27 23.25V27.15C27 28.12 27.32 28.94 27.89 29.51C28.46 30.08 29.28 30.4 30.25 30.4V31.79C30.25 32.3 30.83 32.61 31.26 32.33L34.15 30.4H36.75C37.2 30.4 37.62 30.33 38 30.2Z" stroke="#DC6803" stroke-width="1.5" stroke-miterlimit="10" stroke-linecap="round" stroke-linejoin="round"/>
<path d="M40 23.25V27.15C40 28.64 39.24 29.76 38 30.2C37.62 30.33 37.2 30.4 36.75 30.4H34.15L31.26 32.33C30.83 32.61 30.25 32.3 30.25 31.79V30.4C29.28 30.4 28.46 30.08 27.89 29.51C27.32 28.94 27 28.12 27 27.15V23.25C27 22.8 27.07 22.38 27.2 22C27.64 20.76 28.76 20 30.25 20H36.75C38.7 20 40 21.3 40 23.25Z" stroke="#DC6803" stroke-width="1.5" stroke-miterlimit="10" stroke-linecap="round" stroke-linejoin="round"/>
<path d="M25.3999 40H32.5999" stroke="#DC6803" stroke-width="1.5" stroke-miterlimit="10" stroke-linecap="round" stroke-linejoin="round"/>
<path d="M29 36.3984V39.9984" stroke="#DC6803" stroke-width="1.5" stroke-miterlimit="10" stroke-linecap="round" stroke-linejoin="round"/>
<path d="M36.4955 25.25H36.5045" stroke="#DC6803" stroke-width="1.5" stroke-linecap="round" stroke-linejoin="round"/>
<path d="M33.6957 25.25H33.7047" stroke="#DC6803" stroke-width="1.5" stroke-linecap="round" stroke-linejoin="round"/>
<path d="M30.8954 25.25H30.9044" stroke="#DC6803" stroke-width="1.5" stroke-linecap="round" stroke-linejoin="round"/>
</svg>
