<svg width="25" height="24" viewBox="0 0 25 24" fill="none" xmlns="http://www.w3.org/2000/svg">
<g id="vuesax/linear/messages">
<g id="messages">
<path id="Vector" d="M17.0996 9C17.0996 12.87 13.7396 16 9.59961 16L8.66962 17.12L8.11961 17.78C7.64961 18.34 6.74961 18.22 6.43961 17.55L5.09961 14.6C3.27961 13.32 2.09961 11.29 2.09961 9C2.09961 5.13 5.45961 2 9.59961 2C12.6196 2 15.2296 3.67001 16.3996 6.07001C16.8496 6.96001 17.0996 7.95 17.0996 9Z" stroke="#F04438" stroke-width="1.5" stroke-linecap="round" stroke-linejoin="round"/>
<path id="Vector_2" d="M22.0999 12.86C22.0999 15.15 20.9199 17.1801 19.0999 18.4601L17.7599 21.41C17.4499 22.08 16.5499 22.2101 16.0799 21.6401L14.5999 19.86C12.1799 19.86 10.0199 18.7901 8.66992 17.1201L9.59991 16.0001C13.7399 16.0001 17.0999 12.8701 17.0999 9.00006C17.0999 7.95006 16.8499 6.96007 16.3999 6.07007C19.6699 6.82007 22.0999 9.58005 22.0999 12.86Z" stroke="#F04438" stroke-width="1.5" stroke-linecap="round" stroke-linejoin="round"/>
<path id="Vector_3" d="M7.09961 9H12.0996" stroke="#F04438" stroke-width="1.5" stroke-linecap="round" stroke-linejoin="round"/>
</g>
</g>
</svg>
