<svg width="24" height="24" viewBox="0 0 24 24" fill="none" xmlns="http://www.w3.org/2000/svg">
<g opacity="0.75">
<path fill-rule="evenodd" clip-rule="evenodd" d="M21.74 5.99307C21.74 4.91719 20.8679 4.04501 19.792 4.04501H4.20757C3.13169 4.04501 2.25952 4.91719 2.25952 5.99307V17.6814C2.25952 18.7573 3.13169 19.6294 4.20757 19.6294H19.792C20.8679 19.6294 21.74 18.7573 21.74 17.6814V5.99307ZM9.56447 6.96704C10.3714 6.96704 11.0255 7.62117 11.0255 8.42808C11.0255 9.23499 10.3714 9.88912 9.56447 9.88912C8.75756 9.88912 8.10343 9.23499 8.10343 8.42808C8.10343 7.62117 8.75756 6.96704 9.56447 6.96704ZM18.3312 16.7076C18.6002 16.7076 18.8182 16.4896 18.8182 16.2206V15.8894C18.8175 15.7842 18.7834 15.6818 18.7208 15.5972L14.5812 10.0745C14.487 9.95537 14.3435 9.8859 14.1916 9.8859C14.0397 9.8859 13.8962 9.95537 13.802 10.0745L10.9968 13.6979C10.9038 13.8193 10.7601 13.8912 10.6072 13.8927C10.4637 13.8928 10.3278 13.8284 10.237 13.7173L8.8247 12.0128C8.73091 11.9002 8.59139 11.8358 8.44483 11.8375C8.31114 11.8515 8.1885 11.9181 8.10392 12.0225L5.28899 15.5972C5.21951 15.6787 5.1815 15.7823 5.18185 15.8894V16.2206C5.18185 16.4896 5.39989 16.7076 5.66886 16.7076H18.3312Z" fill="url(#paint0_linear_1519_15653)"/>
</g>
<defs>
<linearGradient id="paint0_linear_1519_15653" x1="11.9998" y1="4.04501" x2="11.9998" y2="37.2176" gradientUnits="userSpaceOnUse">
<stop stop-color="#D4D1CD"/>
<stop offset="1" stop-color="#D4D1CD" stop-opacity="0.6"/>
</linearGradient>
</defs>
</svg>
