<svg width="40" height="40" viewBox="0 0 40 40" fill="none" xmlns="http://www.w3.org/2000/svg">
<path d="M2 11.9556C2 8.47078 2 6.7284 2.67818 5.39739C3.27473 4.22661 4.22661 3.27473 5.39739 2.67818C6.7284 2 8.47078 2 11.9556 2H20.0444C23.5292 2 25.2716 2 26.6026 2.67818C27.7734 3.27473 28.7253 4.22661 29.3218 5.39739C30 6.7284 30 8.47078 30 11.9556V20.0444C30 23.5292 30 25.2716 29.3218 26.6026C28.7253 27.7734 27.7734 28.7253 26.6026 29.3218C25.2716 30 23.5292 30 20.0444 30H11.9556C8.47078 30 6.7284 30 5.39739 29.3218C4.22661 28.7253 3.27473 27.7734 2.67818 26.6026C2 25.2716 2 23.5292 2 20.0444V11.9556Z" fill="white" fill-opacity="0.6"/>
<path d="M15.6876 11.7534V14.8517L14.5934 14.4725C14.0409 14.2775 13.7051 14.0934 13.7051 13.1509C13.7051 12.3817 14.2792 11.7534 14.9834 11.7534H15.6876Z" fill="#FFA200"/>
<path d="M19.295 18.8491C19.295 19.6183 18.7208 20.2466 18.0167 20.2466H17.3125V17.1483L18.4067 17.5275C18.9592 17.7225 19.295 17.9066 19.295 18.8491Z" fill="#FFA200"/>
<path d="M21.0392 5.16669H11.9609C8.01758 5.16669 5.66675 7.51752 5.66675 11.4609V20.5392C5.66675 24.4825 8.01758 26.8334 11.9609 26.8334H21.0392C24.9826 26.8334 27.3334 24.4825 27.3334 20.5392V11.4609C27.3334 7.51752 24.9826 5.16669 21.0392 5.16669ZM18.9484 16C19.7934 16.2925 20.9201 16.91 20.9201 18.8492C20.9201 20.5175 19.6201 21.8717 18.0167 21.8717H17.3126V22.5C17.3126 22.9442 16.9442 23.3125 16.5001 23.3125C16.0559 23.3125 15.6876 22.9442 15.6876 22.5V21.8717H15.2976C13.5209 21.8717 12.0801 20.3659 12.0801 18.5242C12.0801 18.08 12.4376 17.7117 12.8926 17.7117C13.3367 17.7117 13.7051 18.08 13.7051 18.5242C13.7051 19.4775 14.4201 20.2467 15.2976 20.2467H15.6876V16.5742L14.0517 16C13.2067 15.7075 12.0801 15.09 12.0801 13.1509C12.0801 11.4825 13.3801 10.1284 14.9834 10.1284H15.6876V9.50002C15.6876 9.05585 16.0559 8.68752 16.5001 8.68752C16.9442 8.68752 17.3126 9.05585 17.3126 9.50002V10.1284H17.7026C19.4792 10.1284 20.9201 11.6342 20.9201 13.4759C20.9201 13.92 20.5626 14.2884 20.1076 14.2884C19.6634 14.2884 19.2951 13.92 19.2951 13.4759C19.2951 12.5225 18.5801 11.7534 17.7026 11.7534H17.3126V15.4259L18.9484 16Z" fill="#FFA200"/>
</svg>
