<svg width="40" height="40" viewBox="0 0 40 40" fill="none" xmlns="http://www.w3.org/2000/svg">
<path d="M2 11.9556C2 8.47078 2 6.7284 2.67818 5.39739C3.27473 4.22661 4.22661 3.27473 5.39739 2.67818C6.7284 2 8.47078 2 11.9556 2H20.0444C23.5292 2 25.2716 2 26.6026 2.67818C27.7734 3.27473 28.7253 4.22661 29.3218 5.39739C30 6.7284 30 8.47078 30 11.9556V20.0444C30 23.5292 30 25.2716 29.3218 26.6026C28.7253 27.7734 27.7734 28.7253 26.6026 29.3218C25.2716 30 23.5292 30 20.0444 30H11.9556C8.47078 30 6.7284 30 5.39739 29.3218C4.22661 28.7253 3.27473 27.7734 2.67818 26.6026C2 25.2716 2 23.5292 2 20.0444V11.9556Z" fill="white" fill-opacity="0.6"/>
<path d="M21.4167 6.79169H10.5834C7.33341 6.79169 5.16675 8.41669 5.16675 12.2084V19.7917C5.16675 23.5834 7.33341 25.2084 10.5834 25.2084H21.4167C24.6667 25.2084 26.8334 23.5834 26.8334 19.7917V12.2084C26.8334 8.41669 24.6667 6.79169 21.4167 6.79169ZM21.9259 13.3892L18.5351 16.0975C17.8201 16.6717 16.9101 16.9534 16.0001 16.9534C15.0901 16.9534 14.1692 16.6717 13.4651 16.0975L10.0742 13.3892C9.72758 13.1075 9.67341 12.5875 9.94425 12.2409C10.2259 11.8942 10.7351 11.8292 11.0817 12.1109L14.4726 14.8192C15.2959 15.48 16.6934 15.48 17.5167 14.8192L20.9076 12.1109C21.2542 11.8292 21.7742 11.8834 22.0451 12.2409C22.3267 12.5875 22.2726 13.1075 21.9259 13.3892Z" fill="#1570EF"/>
</svg>
