<svg width="40" height="40" viewBox="0 0 40 40" fill="none" xmlns="http://www.w3.org/2000/svg">
<path d="M2.5 14.9444C2.5 10.5885 2.5 8.4105 3.34773 6.74674C4.09341 5.28326 5.28326 4.09341 6.74674 3.34773C8.4105 2.5 10.5885 2.5 14.9444 2.5H25.0556C29.4115 2.5 31.5895 2.5 33.2533 3.34773C34.7167 4.09341 35.9066 5.28326 36.6523 6.74674C37.5 8.4105 37.5 10.5885 37.5 14.9444V25.0556C37.5 29.4115 37.5 31.5895 36.6523 33.2533C35.9066 34.7167 34.7167 35.9066 33.2533 36.6523C31.5895 37.5 29.4115 37.5 25.0556 37.5H14.9444C10.5885 37.5 8.4105 37.5 6.74674 36.6523C5.28326 35.9066 4.09341 34.7167 3.34773 33.2533C2.5 31.5895 2.5 29.4115 2.5 25.0556V14.9444Z" fill="white" fill-opacity="0.6"/>
<path d="M26.8765 11.4465L20.0727 16.7561L13.1133 11.4465V11.448L13.1217 11.4551V18.89L19.9942 24.3143L26.8765 19.0995V11.4465Z" fill="#EA4335"/>
<path d="M28.663 10.155L26.8762 11.4465V19.0994L32.4987 14.7829V12.1826C32.4987 12.1826 31.8162 8.46881 28.663 10.155Z" fill="#FBBC05"/>
<path d="M26.8762 19.0996V29.0256H31.1855C31.1855 29.0256 32.4118 28.8993 32.5001 27.5016V14.7831L26.8762 19.0996Z" fill="#34A853"/>
<path d="M13.122 29.034V18.8899L13.1133 18.8827L13.122 29.034Z" fill="#C5221F"/>
<path d="M13.114 11.448L11.337 10.1637C8.18389 8.47755 7.5 12.1899 7.5 12.1899V14.7902L13.114 18.8828V11.448Z" fill="#C5221F"/>
<path d="M13.1133 11.4479V18.8827L13.122 18.8899V11.4551L13.1133 11.4479Z" fill="#C5221F"/>
<path d="M7.5 14.7915V27.5101C7.58689 28.9092 8.81452 29.034 8.81452 29.034H13.1238L13.114 18.8827L7.5 14.7915Z" fill="#4285F4"/>
</svg>
