<svg width="48" height="48" viewBox="0 0 48 48" fill="none" xmlns="http://www.w3.org/2000/svg">
<path d="M3 17.9333C3 12.7062 3 10.0926 4.01727 8.09609C4.91209 6.33991 6.33991 4.91209 8.09609 4.01727C10.0926 3 12.7062 3 17.9333 3H30.0667C35.2938 3 37.9074 3 39.9039 4.01727C41.6601 4.91209 43.0879 6.33991 43.9827 8.09609C45 10.0926 45 12.7062 45 17.9333V30.0667C45 35.2938 45 37.9074 43.9827 39.9039C43.0879 41.6601 41.6601 43.0879 39.9039 43.9827C37.9074 45 35.2938 45 30.0667 45H17.9333C12.7062 45 10.0926 45 8.09609 43.9827C6.33991 43.0879 4.91209 41.6601 4.01727 39.9039C3 37.9074 3 35.2938 3 30.0667V17.9333Z" fill="white" fill-opacity="0.6"/>
<path d="M24.0029 19.2967L19.2835 10.968C19.4402 10.8085 19.6205 10.7038 19.8008 10.6335C18.409 11.0915 17.7705 12.6543 17.7705 12.6543L9.14886 27.8656C9.02755 28.3425 8.99385 28.7731 9.00901 29.1522H18.4191L24.0029 19.2967Z" fill="#34A853"/>
<path d="M24.0027 19.2967L29.5864 29.1522H38.9966C39.0117 28.7731 38.978 28.3425 38.8567 27.8656L30.2351 12.6543C30.2351 12.6543 29.5949 11.0915 28.2048 10.6335C28.3834 10.7038 28.5654 10.8085 28.7221 10.968L24.0027 19.2967Z" fill="#FBBC05"/>
<path d="M24.0041 19.297L28.7235 10.9683C28.5668 10.8087 28.3848 10.7041 28.2062 10.6338C28.0006 10.5669 27.7799 10.5223 27.5407 10.5103H27.2913H20.7168H20.4675C20.2299 10.5205 20.0075 10.5651 19.8019 10.6338C19.6233 10.7041 19.4414 10.8087 19.2847 10.9683L24.0041 19.297Z" fill="#188038"/>
<path d="M18.42 29.1521L13.7545 37.3865C13.7545 37.3865 13.5995 37.311 13.3889 37.1549C14.0511 37.6644 14.6947 37.7724 14.6947 37.7724H33.0179C34.0289 37.7724 34.2395 37.3865 34.2395 37.3865C34.2429 37.3847 34.2445 37.383 34.2479 37.3813L29.5858 29.1521H18.42Z" fill="#4285F4"/>
<path d="M18.4209 29.1522H9.01074C9.05792 30.2707 9.54317 30.9243 9.54317 30.9243L9.897 31.5385C9.92227 31.5745 9.93743 31.5951 9.93743 31.5951L10.7074 32.9469L12.4361 35.9559C12.4867 36.0777 12.5457 36.1892 12.608 36.2955C12.6316 36.3316 12.6535 36.371 12.6788 36.4053C12.6855 36.4156 12.6922 36.4259 12.699 36.4362C12.913 36.7381 13.1522 36.9714 13.3915 37.155C13.6021 37.3128 13.7571 37.3866 13.7571 37.3866L18.4209 29.1522Z" fill="#1967D2"/>
<path d="M29.5886 29.1521H38.9988C38.9516 30.2706 38.4663 30.9242 38.4663 30.9242L38.1125 31.5383C38.0872 31.5744 38.0721 31.595 38.0721 31.595L37.3021 32.9468L35.5734 35.9557C35.5228 36.0775 35.4639 36.189 35.4015 36.2954C35.3779 36.3314 35.356 36.3709 35.3307 36.4052C35.324 36.4155 35.3173 36.4258 35.3105 36.4361C35.0965 36.738 34.8573 36.9713 34.618 37.1549C34.4074 37.3127 34.2524 37.3865 34.2524 37.3865L29.5886 29.1521Z" fill="#EA4335"/>
</svg>
