<svg width="40" height="40" viewBox="0 0 40 40" fill="none" xmlns="http://www.w3.org/2000/svg">
<path d="M2 11.9556C2 8.47078 2 6.7284 2.67818 5.39739C3.27473 4.22661 4.22661 3.27473 5.39739 2.67818C6.7284 2 8.47078 2 11.9556 2H20.0444C23.5292 2 25.2716 2 26.6026 2.67818C27.7734 3.27473 28.7253 4.22661 29.3218 5.39739C30 6.7284 30 8.47078 30 11.9556V20.0444C30 23.5292 30 25.2716 29.3218 26.6026C28.7253 27.7734 27.7734 28.7253 26.6026 29.3218C25.2716 30 23.5292 30 20.0444 30H11.9556C8.47078 30 6.7284 30 5.39739 29.3218C4.22661 28.7253 3.27473 27.7734 2.67818 26.6026C2 25.2716 2 23.5292 2 20.0444V11.9556Z" fill="white" fill-opacity="0.6"/>
<rect x="11" y="7" width="15" height="17.5" rx="1.25" fill="#2FB776"/>
<path d="M11 20.125H26V23.25C26 23.9404 25.4404 24.5 24.75 24.5H12.25C11.5596 24.5 11 23.9404 11 23.25V20.125Z" fill="url(#paint0_linear_2398_1349)"/>
<rect x="18.5" y="15.75" width="7.5" height="4.375" fill="#229C5B"/>
<rect x="18.5" y="11.375" width="7.5" height="4.375" fill="#27AE68"/>
<path d="M11 8.25C11 7.55964 11.5596 7 12.25 7H18.5V11.375H11V8.25Z" fill="#1D854F"/>
<rect x="11" y="11.375" width="7.5" height="4.375" fill="#197B43"/>
<rect x="11" y="15.75" width="7.5" height="4.375" fill="#1B5B38"/>
<path d="M11 13.25C11 12.2145 11.8395 11.375 12.875 11.375H16.625C17.6605 11.375 18.5 12.2145 18.5 13.25V20.75C18.5 21.7855 17.6605 22.625 16.625 22.625H11V13.25Z" fill="black" fill-opacity="0.3"/>
<rect x="6" y="10.125" width="11.25" height="11.25" rx="1.25" fill="url(#paint1_linear_2398_1349)"/>
<path d="M14.125 18.875L12.3638 15.6875L14.0477 12.625H12.6731L11.6336 14.5804L10.6113 12.625H9.19373L10.8862 15.6875L9.125 18.875H10.4996L11.6078 16.8036L12.7075 18.875H14.125Z" fill="white" fill-opacity="0.6"/>
<defs>
<linearGradient id="paint0_linear_2398_1349" x1="11" y1="22.3125" x2="26" y2="22.3125" gradientUnits="userSpaceOnUse">
<stop stop-color="#163C27"/>
<stop offset="1" stop-color="#2A6043"/>
</linearGradient>
<linearGradient id="paint1_linear_2398_1349" x1="6" y1="15.75" x2="17.25" y2="15.75" gradientUnits="userSpaceOnUse">
<stop stop-color="#185A30"/>
<stop offset="1" stop-color="#176F3D"/>
</linearGradient>
</defs>
</svg>
