<svg width="40" height="40" viewBox="0 0 40 40" fill="none" xmlns="http://www.w3.org/2000/svg">
<path d="M2.5 14.9444C2.5 10.5885 2.5 8.4105 3.34773 6.74674C4.09341 5.28326 5.28326 4.09341 6.74674 3.34773C8.4105 2.5 10.5885 2.5 14.9444 2.5H25.0556C29.4115 2.5 31.5895 2.5 33.2533 3.34773C34.7167 4.09341 35.9066 5.28326 36.6523 6.74674C37.5 8.4105 37.5 10.5885 37.5 14.9444V25.0556C37.5 29.4115 37.5 31.5895 36.6523 33.2533C35.9066 34.7167 34.7167 35.9066 33.2533 36.6523C31.5895 37.5 29.4115 37.5 25.0556 37.5H14.9444C10.5885 37.5 8.4105 37.5 6.74674 36.6523C5.28326 35.9066 4.09341 34.7167 3.34773 33.2533C2.5 31.5895 2.5 29.4115 2.5 25.0556V14.9444Z" fill="white" fill-opacity="0.6"/>
<rect x="15.3125" y="9.0625" width="15.625" height="21.875" rx="0.625" fill="#1066B5"/>
<rect x="15.3125" y="9.0625" width="15.625" height="21.875" rx="0.625" fill="url(#paint0_linear_2398_926)"/>
<rect x="15.3125" y="11.4062" width="7.8125" height="7.8125" fill="#32A9E7"/>
<rect x="15.3125" y="19.2188" width="7.8125" height="7.8125" fill="#167EB4"/>
<rect x="23.125" y="19.2188" width="7.8125" height="7.8125" fill="#32A9E7"/>
<rect x="23.125" y="11.4062" width="7.8125" height="7.8125" fill="#58D9FD"/>
<mask id="mask0_2398_926" style="mask-type:alpha" maskUnits="userSpaceOnUse" x="13" y="18" width="20" height="13">
<path d="M13.75 18.4375H31.875C32.2202 18.4375 32.5 18.7173 32.5 19.0625V30.3125C32.5 30.6577 32.2202 30.9375 31.875 30.9375H14.375C14.0298 30.9375 13.75 30.6577 13.75 30.3125V18.4375Z" fill="url(#paint1_linear_2398_926)"/>
</mask>
<g mask="url(#mask0_2398_926)">
<path d="M32.5 18.4375V21.5625H30.9375V18.4375H32.5Z" fill="#135298"/>
<path d="M32.5 30.9375V20L12.9688 30.9375H32.5Z" fill="url(#paint2_linear_2398_926)"/>
<path d="M13.75 30.9375V20L33.2812 30.9375H13.75Z" fill="url(#paint3_linear_2398_926)"/>
</g>
<path d="M13.75 15.4687C13.75 14.951 14.1697 14.5312 14.6875 14.5312H22.1875C22.7053 14.5312 23.125 14.951 23.125 15.4688V27.6562C23.125 28.174 22.7053 28.5938 22.1875 28.5938H13.75V15.4687Z" fill="black" fill-opacity="0.3"/>
<rect x="7.5" y="12.9688" width="14.0625" height="14.0625" rx="0.625" fill="url(#paint4_linear_2398_926)"/>
<path d="M18.4375 20.0541V19.9243C18.4375 17.6736 16.8181 16.0938 14.5436 16.0938C12.2567 16.0938 10.625 17.6844 10.625 19.9459V20.0757C10.625 22.3264 12.2444 23.9062 14.5312 23.9062C16.8058 23.9062 18.4375 22.3156 18.4375 20.0541ZM16.5956 20.0757C16.5956 21.569 15.755 22.4671 14.5436 22.4671C13.3322 22.4671 12.4792 21.5474 12.4792 20.0541V19.9243C12.4792 18.431 13.3198 17.5329 14.5312 17.5329C15.7303 17.5329 16.5956 18.4526 16.5956 19.9459V20.0757Z" fill="white" fill-opacity="0.6"/>
<defs>
<linearGradient id="paint0_linear_2398_926" x1="15.3125" y1="20" x2="30.9375" y2="20" gradientUnits="userSpaceOnUse">
<stop stop-color="#064484"/>
<stop offset="1" stop-color="#0F65B5"/>
</linearGradient>
<linearGradient id="paint1_linear_2398_926" x1="13.75" y1="28.4135" x2="32.5" y2="28.4135" gradientUnits="userSpaceOnUse">
<stop stop-color="#1B366F"/>
<stop offset="1" stop-color="#2657B0"/>
</linearGradient>
<linearGradient id="paint2_linear_2398_926" x1="32.5" y1="25.4688" x2="13.75" y2="25.4687" gradientUnits="userSpaceOnUse">
<stop stop-color="#44DCFD"/>
<stop offset="0.453125" stop-color="#259ED0"/>
</linearGradient>
<linearGradient id="paint3_linear_2398_926" x1="13.75" y1="25.4688" x2="32.5" y2="25.4687" gradientUnits="userSpaceOnUse">
<stop stop-color="#259ED0"/>
<stop offset="1" stop-color="#44DCFD"/>
</linearGradient>
<linearGradient id="paint4_linear_2398_926" x1="7.5" y1="20" x2="21.5625" y2="20" gradientUnits="userSpaceOnUse">
<stop stop-color="#064484"/>
<stop offset="1" stop-color="#0F65B5"/>
</linearGradient>
</defs>
</svg>
