<svg width="40" height="40" viewBox="0 0 40 40" fill="none" xmlns="http://www.w3.org/2000/svg">
<path d="M2 11.9556C2 8.47078 2 6.7284 2.67818 5.39739C3.27473 4.22661 4.22661 3.27473 5.39739 2.67818C6.7284 2 8.47078 2 11.9556 2H20.0444C23.5292 2 25.2716 2 26.6026 2.67818C27.7734 3.27473 28.7253 4.22661 29.3218 5.39739C30 6.7284 30 8.47078 30 11.9556V20.0444C30 23.5292 30 25.2716 29.3218 26.6026C28.7253 27.7734 27.7734 28.7253 26.6026 29.3218C25.2716 30 23.5292 30 20.0444 30H11.9556C8.47078 30 6.7284 30 5.39739 29.3218C4.22661 28.7253 3.27473 27.7734 2.67818 26.6026C2 25.2716 2 23.5292 2 20.0444V11.9556Z" fill="white" fill-opacity="0.6"/>
<rect x="11" y="7" width="14.9999" height="17.5" rx="0.937497" fill="url(#paint0_linear_2398_1362)"/>
<path d="M11 20.125H25.9999V23.5625C25.9999 24.0803 25.5802 24.5 25.0624 24.5H11.9375C11.4197 24.5 11 24.0803 11 23.5625V20.125Z" fill="url(#paint1_linear_2398_1362)"/>
<rect x="11" y="15.75" width="14.9999" height="4.375" fill="url(#paint2_linear_2398_1362)"/>
<rect x="11" y="11.375" width="14.9999" height="4.375" fill="url(#paint3_linear_2398_1362)"/>
<path d="M11 12.7812C11 12.0046 11.6296 11.375 12.4062 11.375H17.0937C17.8704 11.375 18.5 12.0046 18.5 12.7812V21.2188C18.5 21.9954 17.8704 22.625 17.0937 22.625H11V12.7812Z" fill="black" fill-opacity="0.3"/>
<rect x="5.99976" y="10.1251" width="11.2499" height="11.25" rx="0.937497" fill="url(#paint4_linear_2398_1362)"/>
<path d="M15.3747 12.6339H14.1574L13.2015 16.7119L12.1558 12.625H11.1264L10.0725 16.7119L9.12475 12.6339H7.87476L9.50056 18.875H10.579L11.6247 14.93L12.6705 18.875H13.7489L15.3747 12.6339Z" fill="white"/>
<defs>
<linearGradient id="paint0_linear_2398_1362" x1="11" y1="9.91667" x2="25.9999" y2="9.91667" gradientUnits="userSpaceOnUse">
<stop stop-color="#2B78B1"/>
<stop offset="1" stop-color="#338ACD"/>
</linearGradient>
<linearGradient id="paint1_linear_2398_1362" x1="11" y1="22.8594" x2="25.9999" y2="22.8594" gradientUnits="userSpaceOnUse">
<stop stop-color="#1B366F"/>
<stop offset="1" stop-color="#2657B0"/>
</linearGradient>
<linearGradient id="paint2_linear_2398_1362" x1="17.5625" y1="18.25" x2="25.9999" y2="18.25" gradientUnits="userSpaceOnUse">
<stop stop-color="#20478B"/>
<stop offset="1" stop-color="#2D6FD1"/>
</linearGradient>
<linearGradient id="paint3_linear_2398_1362" x1="17.5625" y1="13.875" x2="25.9999" y2="13.875" gradientUnits="userSpaceOnUse">
<stop stop-color="#215295"/>
<stop offset="1" stop-color="#2E84D3"/>
</linearGradient>
<linearGradient id="paint4_linear_2398_1362" x1="5.99976" y1="16.3751" x2="17.8747" y2="16.3751" gradientUnits="userSpaceOnUse">
<stop stop-color="#223E74"/>
<stop offset="1" stop-color="#215091"/>
</linearGradient>
</defs>
</svg>
