<svg width="40" height="40" viewBox="0 0 40 40" fill="none" xmlns="http://www.w3.org/2000/svg">
<path d="M2.5 14.9444C2.5 10.5885 2.5 8.4105 3.34773 6.74674C4.09341 5.28326 5.28326 4.09341 6.74674 3.34773C8.4105 2.5 10.5885 2.5 14.9444 2.5H25.0556C29.4115 2.5 31.5895 2.5 33.2533 3.34773C34.7167 4.09341 35.9066 5.28326 36.6523 6.74674C37.5 8.4105 37.5 10.5885 37.5 14.9444V25.0556C37.5 29.4115 37.5 31.5895 36.6523 33.2533C35.9066 34.7167 34.7167 35.9066 33.2533 36.6523C31.5895 37.5 29.4115 37.5 25.0556 37.5H14.9444C10.5885 37.5 8.4105 37.5 6.74674 36.6523C5.28326 35.9066 4.09341 34.7167 3.34773 33.2533C2.5 31.5895 2.5 29.4115 2.5 25.0556V14.9444Z" fill="white" fill-opacity="0.6"/>
<mask id="mask0_2290_890" style="mask-type:alpha" maskUnits="userSpaceOnUse" x="6" y="11" width="28" height="18">
<path d="M12.9787 28.5938C9.26253 28.5938 6.25 25.644 6.25 22.0052C6.25 18.4464 9.13168 15.5466 12.735 15.4209C14.221 13.0147 16.9186 11.4062 20 11.4062C23.9796 11.4062 27.3192 14.0891 28.2353 17.7085C31.285 17.7315 33.75 20.1595 33.75 23.151C33.75 26.0609 31.1719 28.5938 28.484 28.5863L12.9787 28.5938Z" fill="#C4C4C4"/>
</mask>
<g mask="url(#mask0_2290_890)">
<path d="M12.9791 28.5938C10.872 28.5938 8.99109 27.6454 7.75732 26.1608L21.7557 20.2865L32.6405 26.4149C31.6812 27.6665 30.2323 28.5938 28.5942 28.5863C26.1234 28.5938 16.6166 28.5938 12.9791 28.5938Z" fill="url(#paint0_linear_2290_890)"/>
<path d="M28.2315 17.6923L21.7556 20.2863L32.6405 26.4147C33.3374 25.5054 33.7503 24.3754 33.7503 23.151C33.7503 20.1594 31.2853 17.7314 28.2356 17.7084C28.2342 17.7031 28.2329 17.6977 28.2315 17.6923Z" fill="url(#paint1_linear_2290_890)"/>
<path d="M12.321 15.4477L21.7551 20.2865L28.231 17.6924C27.3091 14.0811 23.9735 11.4062 19.9998 11.4062C16.9184 11.4062 14.2208 13.0147 12.7348 15.4209C12.5957 15.4258 12.4578 15.4348 12.321 15.4477Z" fill="url(#paint2_linear_2290_890)"/>
<path d="M7.75691 26.1608L21.7553 20.2865L12.3212 15.4478C8.9136 15.7714 6.25 18.5837 6.25 22.0052C6.25 23.5808 6.81478 25.0271 7.75691 26.1608Z" fill="url(#paint3_linear_2290_890)"/>
</g>
<defs>
<linearGradient id="paint0_linear_2290_890" x1="10.0536" y1="27.448" x2="29.6516" y2="26.253" gradientUnits="userSpaceOnUse">
<stop stop-color="#2086B8"/>
<stop offset="1" stop-color="#46D3F6"/>
</linearGradient>
<linearGradient id="paint1_linear_2290_890" x1="26.729" y1="23.1509" x2="32.2123" y2="19.3194" gradientUnits="userSpaceOnUse">
<stop stop-color="#1694DB"/>
<stop offset="1" stop-color="#62C3FE"/>
</linearGradient>
<linearGradient id="paint2_linear_2290_890" x1="13.5636" y1="12.5521" x2="26.3023" y2="19.9439" gradientUnits="userSpaceOnUse">
<stop stop-color="#0D3D78"/>
<stop offset="1" stop-color="#063B83"/>
</linearGradient>
<linearGradient id="paint3_linear_2290_890" x1="5.95744" y1="23.4375" x2="18.7655" y2="18.681" gradientUnits="userSpaceOnUse">
<stop stop-color="#16589B"/>
<stop offset="1" stop-color="#1464B7"/>
</linearGradient>
</defs>
</svg>
