<svg width="40" height="40" viewBox="0 0 40 40" fill="none" xmlns="http://www.w3.org/2000/svg">
<path d="M2 11.9556C2 8.47078 2 6.7284 2.67818 5.39739C3.27473 4.22661 4.22661 3.27473 5.39739 2.67818C6.7284 2 8.47078 2 11.9556 2H20.0444C23.5292 2 25.2716 2 26.6026 2.67818C27.7734 3.27473 28.7253 4.22661 29.3218 5.39739C30 6.7284 30 8.47078 30 11.9556V20.0444C30 23.5292 30 25.2716 29.3218 26.6026C28.7253 27.7734 27.7734 28.7253 26.6026 29.3218C25.2716 30 23.5292 30 20.0444 30H11.9556C8.47078 30 6.7284 30 5.39739 29.3218C4.22661 28.7253 3.27473 27.7734 2.67818 26.6026C2 25.2716 2 23.5292 2 20.0444V11.9556Z" fill="white" fill-opacity="0.6"/>
<path d="M20.6167 5.39414C20.1725 4.94997 19.4033 5.25331 19.4033 5.87081V9.65164C19.4033 11.2333 20.7467 12.5441 22.3825 12.5441C23.4117 12.555 24.8417 12.555 26.0658 12.555C26.6833 12.555 27.0083 11.8291 26.575 11.3958C25.015 9.82497 22.22 6.99747 20.6167 5.39414Z" fill="#FF5A5A"/>
<path d="M25.7083 14.0392H22.5774C20.0099 14.0392 17.9191 11.9484 17.9191 9.38085V6.25002C17.9191 5.65419 17.4316 5.16669 16.8358 5.16669H12.2424C8.90575 5.16669 6.20825 7.33335 6.20825 11.2009V20.7992C6.20825 24.6667 8.90575 26.8334 12.2424 26.8334H20.7574C24.0941 26.8334 26.7916 24.6667 26.7916 20.7992V15.1225C26.7916 14.5267 26.3041 14.0392 25.7083 14.0392ZM15.9583 22.2292H11.6249C11.1808 22.2292 10.8124 21.8609 10.8124 21.4167C10.8124 20.9725 11.1808 20.6042 11.6249 20.6042H15.9583C16.4024 20.6042 16.7708 20.9725 16.7708 21.4167C16.7708 21.8609 16.4024 22.2292 15.9583 22.2292ZM18.1249 17.8959H11.6249C11.1808 17.8959 10.8124 17.5275 10.8124 17.0834C10.8124 16.6392 11.1808 16.2709 11.6249 16.2709H18.1249C18.5691 16.2709 18.9374 16.6392 18.9374 17.0834C18.9374 17.5275 18.5691 17.8959 18.1249 17.8959Z" fill="#FF5A5A"/>
</svg>
