<svg width="40" height="40" viewBox="0 0 40 40" fill="none" xmlns="http://www.w3.org/2000/svg">
<path d="M2 11.9556C2 8.47078 2 6.7284 2.67818 5.39739C3.27473 4.22661 4.22661 3.27473 5.39739 2.67818C6.7284 2 8.47078 2 11.9556 2H20.0444C23.5292 2 25.2716 2 26.6026 2.67818C27.7734 3.27473 28.7253 4.22661 29.3218 5.39739C30 6.7284 30 8.47078 30 11.9556V20.0444C30 23.5292 30 25.2716 29.3218 26.6026C28.7253 27.7734 27.7734 28.7253 26.6026 29.3218C25.2716 30 23.5292 30 20.0444 30H11.9556C8.47078 30 6.7284 30 5.39739 29.3218C4.22661 28.7253 3.27473 27.7734 2.67818 26.6026C2 25.2716 2 23.5292 2 20.0444V11.9556Z" fill="white" fill-opacity="0.6"/>
<path d="M20.5951 5.16669H12.4051C8.31008 5.16669 7.29175 6.26085 7.29175 10.6267V22.825C7.29175 25.7067 8.87341 26.3892 10.7909 24.3309L10.8017 24.32C11.6901 23.3775 13.0442 23.4534 13.8134 24.4825L14.9076 25.945C15.7851 27.1042 17.2042 27.1042 18.0817 25.945L19.1759 24.4825C19.9559 23.4425 21.3101 23.3667 22.1984 24.32C24.1267 26.3784 25.6976 25.6959 25.6976 22.8142V10.6267C25.7084 6.26085 24.6901 5.16669 20.5951 5.16669ZM19.7501 15.7292H13.2501C12.8059 15.7292 12.4376 15.3609 12.4376 14.9167C12.4376 14.4725 12.8059 14.1042 13.2501 14.1042H19.7501C20.1942 14.1042 20.5626 14.4725 20.5626 14.9167C20.5626 15.3609 20.1942 15.7292 19.7501 15.7292ZM20.8334 11.3959H12.1667C11.7226 11.3959 11.3542 11.0275 11.3542 10.5834C11.3542 10.1392 11.7226 9.77085 12.1667 9.77085H20.8334C21.2776 9.77085 21.6459 10.1392 21.6459 10.5834C21.6459 11.0275 21.2776 11.3959 20.8334 11.3959Z" fill="#0062FF"/>
</svg>
