<svg width="46" height="46" viewBox="0 0 46 46" fill="none" xmlns="http://www.w3.org/2000/svg">
<g clip-path="url(#clip0_1519_15571)">
<path d="M22.0369 9.41724C22.2749 9.41724 22.4031 9.27074 22.4397 9.05103C22.989 6.08473 22.9341 5.93823 26.1202 5.37061C26.3398 5.31568 26.4864 5.1875 26.4864 4.94947C26.4864 4.72974 26.3398 4.58324 26.1202 4.54663C22.9341 3.97901 22.989 3.83251 22.4397 0.86621C22.4031 0.646484 22.2749 0.5 22.0369 0.5C21.7988 0.5 21.6707 0.646484 21.634 0.86621C21.0847 3.83251 21.1396 3.97901 17.9536 4.54663C17.7156 4.58324 17.5874 4.72974 17.5874 4.94947C17.5874 5.1875 17.7156 5.31568 17.9536 5.37061C21.1396 5.93823 21.0847 6.08473 21.634 9.05103C21.6707 9.27074 21.7988 9.41724 22.0369 9.41724Z" fill="#060606"/>
<path d="M13.1746 22.0149C13.5225 22.0149 13.7605 21.7769 13.7971 21.4473C14.4563 16.5584 14.6211 16.5584 19.6748 15.5879C19.9861 15.533 20.2241 15.3132 20.2241 14.9653C20.2241 14.6357 19.9861 14.3977 19.6748 14.3611C14.6211 13.647 14.438 13.4822 13.7971 8.52002C13.7605 8.17213 13.5225 7.93408 13.1746 7.93408C12.845 7.93408 12.6069 8.17213 12.552 8.53834C11.9661 13.4273 11.6914 13.409 6.67432 14.3611C6.36304 14.416 6.125 14.6357 6.125 14.9653C6.125 15.3316 6.36304 15.533 6.74756 15.5879C11.728 16.3936 11.9661 16.5217 12.552 21.4106C12.6069 21.7769 12.845 22.0149 13.1746 22.0149Z" fill="#060606"/>
<path d="M25.5892 42.2664C26.0653 42.2664 26.4131 41.9184 26.5046 41.4241C27.8047 31.4083 29.2147 29.8702 39.1389 28.7714C39.6517 28.7165 39.9995 28.3503 39.9995 27.8559C39.9995 27.3798 39.6517 27.0136 39.1389 26.9587C29.2147 25.8601 27.8047 24.3221 26.5046 14.2879C26.4131 13.7935 26.0653 13.4639 25.5892 13.4639C25.1131 13.4639 24.7651 13.7935 24.6919 14.2879C23.3918 24.3221 21.9636 25.8601 12.0576 26.9587C11.5266 27.0136 11.1787 27.3798 11.1787 27.8559C11.1787 28.3503 11.5266 28.7165 12.0576 28.7714C21.9453 30.0716 23.3186 31.4083 24.6919 41.4241C24.7651 41.9184 25.1131 42.2664 25.5892 42.2664Z" fill="#060606"/>
</g>
<defs>
<clipPath id="clip0_1519_15571">
<rect width="45" height="45" fill="white" transform="translate(0.5 0.5)"/>
</clipPath>
</defs>
</svg>
