<svg width="40" height="40" viewBox="0 0 40 40" fill="none" xmlns="http://www.w3.org/2000/svg">
<path d="M2 11.9556C2 8.47078 2 6.7284 2.67818 5.39739C3.27473 4.22661 4.22661 3.27473 5.39739 2.67818C6.7284 2 8.47078 2 11.9556 2H20.0444C23.5292 2 25.2716 2 26.6026 2.67818C27.7734 3.27473 28.7253 4.22661 29.3218 5.39739C30 6.7284 30 8.47078 30 11.9556V20.0444C30 23.5292 30 25.2716 29.3218 26.6026C28.7253 27.7734 27.7734 28.7253 26.6026 29.3218C25.2716 30 23.5292 30 20.0444 30H11.9556C8.47078 30 6.7284 30 5.39739 29.3218C4.22661 28.7253 3.27473 27.7734 2.67818 26.6026C2 25.2716 2 23.5292 2 20.0444V11.9556Z" fill="white" fill-opacity="0.6"/>
<path d="M21.0392 5.16669H11.9609C8.01758 5.16669 5.66675 7.51752 5.66675 11.4609V20.5284C5.66675 24.4825 8.01758 26.8334 11.9609 26.8334H21.0284C24.9717 26.8334 27.3226 24.4825 27.3226 20.5392V11.4609C27.3334 7.51752 24.9826 5.16669 21.0392 5.16669ZM10.8126 18.3184C10.8126 18.7625 10.4442 19.1309 10.0001 19.1309C9.55591 19.1309 9.18758 18.7625 9.18758 18.3184V13.6817C9.18758 13.2375 9.55591 12.8692 10.0001 12.8692C10.4442 12.8692 10.8126 13.2375 10.8126 13.6817V18.3184ZM14.0626 19.8675C14.0626 20.3117 13.6942 20.68 13.2501 20.68C12.8059 20.68 12.4376 20.3117 12.4376 19.8675V12.1325C12.4376 11.6884 12.8059 11.32 13.2501 11.32C13.6942 11.32 14.0626 11.6884 14.0626 12.1325V19.8675ZM17.3126 21.4167C17.3126 21.8609 16.9442 22.2292 16.5001 22.2292C16.0559 22.2292 15.6876 21.8609 15.6876 21.4167V10.5834C15.6876 10.1392 16.0559 9.77085 16.5001 9.77085C16.9442 9.77085 17.3126 10.1392 17.3126 10.5834V21.4167ZM20.5626 19.8675C20.5626 20.3117 20.1942 20.68 19.7501 20.68C19.3059 20.68 18.9376 20.3117 18.9376 19.8675V12.1325C18.9376 11.6884 19.3059 11.32 19.7501 11.32C20.1942 11.32 20.5626 11.6884 20.5626 12.1325V19.8675ZM23.8126 18.3184C23.8126 18.7625 23.4442 19.1309 23.0001 19.1309C22.5559 19.1309 22.1876 18.7625 22.1876 18.3184V13.6817C22.1876 13.2375 22.5559 12.8692 23.0001 12.8692C23.4442 12.8692 23.8126 13.2375 23.8126 13.6817V18.3184Z" fill="#FF56DD"/>
</svg>
