<svg width="40" height="40" viewBox="0 0 40 40" fill="none" xmlns="http://www.w3.org/2000/svg">
<path d="M2.5 14.9444C2.5 10.5885 2.5 8.4105 3.34773 6.74674C4.09341 5.28326 5.28326 4.09341 6.74674 3.34773C8.4105 2.5 10.5885 2.5 14.9444 2.5H25.0556C29.4115 2.5 31.5895 2.5 33.2533 3.34773C34.7167 4.09341 35.9066 5.28326 36.6523 6.74674C37.5 8.4105 37.5 10.5885 37.5 14.9444V25.0556C37.5 29.4115 37.5 31.5895 36.6523 33.2533C35.9066 34.7167 34.7167 35.9066 33.2533 36.6523C31.5895 37.5 29.4115 37.5 25.0556 37.5H14.9444C10.5885 37.5 8.4105 37.5 6.74674 36.6523C5.28326 35.9066 4.09341 34.7167 3.34773 33.2533C2.5 31.5895 2.5 29.4115 2.5 25.0556V14.9444Z" fill="white" fill-opacity="0.6"/>
<path d="M20.8929 10.1786L20.8929 24.2092L32.5 10.1786H20.8929Z" fill="#07363D"/>
<path d="M13.3036 16.4286C16.4787 16.4286 19.1072 13.2284 19.1072 10.1786H7.50002C7.50002 13.2284 10.1284 16.4286 13.3036 16.4286Z" fill="#07363D"/>
<path d="M20.8929 29.8214C20.8929 26.7716 23.5213 23.5714 26.6964 23.5714C29.8716 23.5714 32.5 26.7716 32.5 29.8214H20.8929Z" fill="#07363D"/>
<path d="M19.1072 29.8214V15.7908L7.5 29.8214H19.1072Z" fill="#07363D"/>
</svg>
