<svg width="21" height="20" viewBox="0 0 21 20" fill="none" xmlns="http://www.w3.org/2000/svg">
<path d="M11.4915 17.5C11.345 17.7525 11.1347 17.9622 10.8817 18.1079C10.6286 18.2536 10.3418 18.3303 10.0498 18.3303C9.75782 18.3303 9.47096 18.2536 9.21795 18.1079C8.96494 17.9622 8.75465 17.7525 8.60814 17.5M15.0498 6.66663C15.0498 5.34054 14.523 4.06877 13.5853 3.13109C12.6477 2.19341 11.3759 1.66663 10.0498 1.66663C8.72372 1.66663 7.45195 2.19341 6.51427 3.13109C5.57659 4.06877 5.0498 5.34054 5.0498 6.66663C5.0498 12.5 2.5498 14.1666 2.5498 14.1666H17.5498C17.5498 14.1666 15.0498 12.5 15.0498 6.66663Z" stroke="white" stroke-width="1.66667" stroke-linecap="round" stroke-linejoin="round"/>
</svg>
