<svg width="22" height="22" viewBox="0 0 22 22" fill="none" xmlns="http://www.w3.org/2000/svg">
<mask id="path-1-outside-1_1622_26043" maskUnits="userSpaceOnUse" x="0" y="0" width="22" height="22" fill="black">
<rect fill="white" width="22" height="22"/>
<path fill-rule="evenodd" clip-rule="evenodd" d="M9.88365 1.01379C9.65084 1.02707 9.43615 1.0624 9.40662 1.0922C9.3771 1.12201 9.24189 1.1464 9.10618 1.1464C8.71744 1.1464 8.69808 1.19238 8.69808 2.11642C8.69808 2.8757 8.69136 2.92539 8.58517 2.95343C8.52308 2.96984 8.47227 3.00591 8.47227 3.03361C8.47227 3.06125 8.41028 3.08393 8.33447 3.08393C8.25865 3.08393 8.18097 3.10957 8.16178 3.14091C8.14258 3.17226 8.08393 3.19836 8.03143 3.19887C7.97893 3.19938 7.75814 3.28913 7.54079 3.39826C7.32345 3.50739 7.07929 3.59669 6.99823 3.59675C6.88972 3.5968 6.7255 3.47291 6.37504 3.12667C5.69066 2.45047 5.75603 2.48614 5.47044 2.63231C5.33614 2.70109 5.21352 2.77444 5.198 2.79535C5.18247 2.81626 5.04286 2.9218 4.88779 3.02985C4.73271 3.13795 4.49871 3.33535 4.36774 3.46858C4.23677 3.60176 4.11427 3.71078 4.09553 3.71078C4.07673 3.71078 3.92973 3.85541 3.76878 4.03218C3.60783 4.20895 3.39365 4.43889 3.29271 4.54312C3.19177 4.6474 3.10924 4.75921 3.10924 4.79163C3.10924 4.824 3.08383 4.8505 3.05278 4.8505C3.02174 4.8505 2.99633 4.88896 2.99633 4.93598C2.99633 4.98299 2.97093 5.02146 2.93988 5.02146C2.90883 5.02146 2.88343 5.04824 2.88343 5.08101C2.88343 5.11377 2.8202 5.20444 2.74286 5.28251C2.58366 5.44321 2.51778 5.64392 2.56994 5.80969C2.58942 5.87158 2.83301 6.14893 3.11133 6.426C3.38964 6.70301 3.6176 6.95551 3.61799 6.98708C3.61856 7.03791 3.17709 8.08338 3.04663 8.34011C3.01897 8.39453 2.99633 8.47516 2.99633 8.51921C2.99633 8.64339 2.8653 8.66852 2.21547 8.6692C1.88427 8.66954 1.51794 8.68573 1.40154 8.70516C1.21423 8.73639 1.18984 8.7593 1.18984 8.90398C1.18984 8.99391 1.1681 9.06748 1.14151 9.06748C0.95313 9.06748 0.952679 12.8013 1.14106 12.9188C1.16788 12.9356 1.18984 13.0026 1.18984 13.0679C1.18984 13.2978 1.33707 13.3377 2.19188 13.3396C2.93023 13.3413 2.99633 13.3499 2.99633 13.4447C2.99633 13.5015 3.04714 13.6541 3.10924 13.7839C3.17134 13.9136 3.22214 14.0461 3.22214 14.0783C3.22214 14.1614 3.52411 14.7908 3.57497 14.8136C3.59829 14.8241 3.61731 14.8935 3.61731 14.9679C3.61731 15.0625 3.45569 15.2683 3.08101 15.6509C2.64881 16.0922 2.54471 16.2309 2.54471 16.3655C2.54471 16.4574 2.56413 16.5327 2.58784 16.5327C2.61155 16.5327 2.69374 16.6352 2.77052 16.7606C2.8473 16.886 2.92949 16.9886 2.9532 16.9886C2.97691 16.9886 2.99633 17.016 2.99633 17.0496C2.99633 17.0832 3.02812 17.144 3.0669 17.1846C3.10574 17.2253 3.24591 17.3881 3.37852 17.5463C3.68461 17.9118 4.09016 18.321 4.43532 18.6127C4.58368 18.738 4.73791 18.8727 4.7781 18.9118C4.81835 18.951 4.87842 18.9831 4.91172 18.9831C4.94498 18.9831 4.97219 19.0087 4.97219 19.0401C4.97219 19.0714 5.01029 19.097 5.05686 19.097C5.10344 19.097 5.14154 19.1227 5.14154 19.154C5.14154 19.1854 5.17034 19.211 5.20551 19.211C5.24068 19.211 5.31491 19.264 5.37052 19.3287C5.5121 19.4935 5.78533 19.4893 5.97231 19.3195C6.05524 19.2441 6.29945 18.9966 6.51504 18.7694C6.86607 18.3994 7.07207 18.2747 7.12683 18.399C7.1533 18.4591 7.77987 18.7551 7.88075 18.7551C7.92665 18.7551 7.96419 18.7808 7.96419 18.8121C7.96419 18.8435 8.0404 18.8691 8.13355 18.8691C8.2267 18.8691 8.30291 18.8947 8.30291 18.9261C8.30291 18.9574 8.35552 18.9831 8.41982 18.9831C8.66714 18.9831 8.69808 19.0936 8.69808 19.9763V20.8066H8.86744C8.96059 20.8066 9.0368 20.8289 9.0368 20.856C9.0368 20.94 9.80603 20.9969 10.9844 20.9998C12.0957 21.0027 12.5036 20.9727 12.9708 20.8539C13.1692 20.8035 13.2208 20.7593 13.2923 20.579L13.3775 20.3641L14.1286 20.336C14.7092 20.3142 14.9693 20.2777 15.2748 20.1752C15.4922 20.1022 15.6785 20.022 15.6888 19.9971C15.6992 19.9722 15.7563 19.9518 15.8158 19.9518C15.8753 19.9518 15.9241 19.9262 15.9241 19.8949C15.9241 19.8635 15.9622 19.8379 16.0087 19.8379C16.0553 19.8379 16.0934 19.8122 16.0934 19.7809C16.0934 19.7495 16.1252 19.7236 16.164 19.7232C16.3183 19.7216 17.2789 18.7952 17.2789 18.6479C17.2789 18.6181 17.2997 18.5851 17.3251 18.5747C17.3964 18.5454 17.7698 17.7336 17.8516 17.4302C17.9039 17.2361 17.953 17.1595 18.0251 17.1595C18.0804 17.1595 18.1257 17.1339 18.1257 17.1025C18.1257 17.0712 18.1742 17.0455 18.2334 17.0455C18.3492 17.0455 18.9319 16.7615 18.9631 16.6899C18.9735 16.6661 19.0116 16.6462 19.0478 16.6456C19.2415 16.6425 20.1242 15.7443 20.3838 15.286C20.4304 15.2038 20.4875 15.128 20.5109 15.1175C20.5342 15.107 20.5532 15.063 20.5532 15.0195C20.5532 14.9761 20.5988 14.8564 20.6546 14.7536C20.8864 14.3263 21.0026 13.7452 20.9998 13.028C20.9977 12.4833 20.9086 11.8576 20.8204 11.7687C20.7976 11.7457 20.779 11.6542 20.779 11.5654C20.779 11.4766 20.7536 11.4039 20.7226 11.4039C20.6915 11.4039 20.6661 11.3526 20.6661 11.2899C20.6661 11.2273 20.6407 11.176 20.6097 11.176C20.5786 11.176 20.5532 11.099 20.5532 11.005C20.5532 10.911 20.5786 10.834 20.6097 10.834C20.6407 10.834 20.6661 10.7843 20.6661 10.7234C20.6661 10.6626 20.6885 10.5989 20.7158 10.5818C20.7432 10.5647 20.7793 10.4927 20.7961 10.4218C20.8129 10.3507 20.8658 10.1388 20.9137 9.95076C21.0283 9.50103 21.0289 8.57643 20.9151 8.07022C20.8658 7.85082 20.8122 7.60082 20.7958 7.5146C20.7795 7.42844 20.7437 7.35789 20.7162 7.35789C20.6886 7.35789 20.6661 7.3066 20.6661 7.24392C20.6661 7.18123 20.6407 7.12995 20.6097 7.12995C20.5786 7.12995 20.5532 7.07866 20.5532 7.01597C20.5532 6.95329 20.5278 6.902 20.4967 6.902C20.4657 6.902 20.4403 6.86354 20.4403 6.81652C20.4403 6.76951 20.4149 6.73104 20.3838 6.73104C20.3528 6.73104 20.3271 6.69902 20.3267 6.65981C20.325 6.50492 19.4182 5.53433 19.2751 5.53433C19.2557 5.53433 19.1986 5.48635 19.1483 5.42777C19.0979 5.36913 18.8409 5.22564 18.5771 5.10887C18.3133 4.99211 18.063 4.87933 18.0209 4.85825C17.9787 4.83711 17.9071 4.70496 17.8618 4.56449C17.7656 4.26628 17.5829 3.83312 17.5017 3.71078C17.4705 3.66376 17.4301 3.58039 17.4118 3.52557C17.3936 3.47069 17.3562 3.42584 17.3288 3.42584C17.3014 3.42584 17.2789 3.40049 17.2789 3.36948C17.2789 3.25933 16.9036 2.85142 16.5168 2.54108C16.3616 2.4165 16.2218 2.30173 16.2063 2.28601C16.1908 2.27034 16.1019 2.21905 16.0087 2.17215C15.9156 2.12525 15.8267 2.07396 15.8112 2.05829C15.7662 2.01276 15.2398 1.82225 14.9926 1.76208C14.8684 1.73182 14.4497 1.68987 14.0623 1.6689L13.3578 1.63078L13.3005 1.45982C13.2148 1.20401 13.1343 1.1464 12.8627 1.1464C12.727 1.1464 12.5906 1.12081 12.5595 1.08947C12.4985 1.02787 10.5842 0.973671 9.88365 1.01379ZM11.8149 1.60451C12.5468 1.6791 12.6499 1.70184 12.6493 1.78857C12.6489 1.86129 12.4003 2.00119 12.2716 2.00119C12.2312 2.00119 12.1982 2.02056 12.1982 2.04427C12.1982 2.06798 12.1156 2.12422 12.0147 2.16924C11.9138 2.21432 11.7677 2.31062 11.6901 2.38322C11.6125 2.45588 11.5045 2.52957 11.4502 2.547C11.3958 2.56444 11.3514 2.6057 11.3514 2.63864C11.3514 2.67157 11.2757 2.766 11.1831 2.84846C11.0169 2.99662 11.0147 3.00631 10.9997 3.65379L10.9844 4.30913L10.561 4.34543C9.81867 4.40903 9.4296 4.46636 9.39883 4.51662C9.38235 4.54357 9.29563 4.56557 9.20616 4.56557C9.11668 4.56557 9.02777 4.59121 9.00857 4.62255C8.98938 4.6539 8.9117 4.67954 8.83588 4.67954C8.76007 4.67954 8.69808 4.70518 8.69808 4.73653C8.69808 4.76787 8.65117 4.79351 8.59387 4.79351C8.41198 4.79351 7.33898 5.36149 7.16736 5.54858C7.11706 5.60346 7.05349 5.64842 7.02611 5.64853C6.88436 5.6491 5.64962 6.86388 5.64962 7.00275C5.64962 7.02954 5.59921 7.10607 5.53762 7.1728C5.41122 7.30974 5.31017 7.4848 5.00284 8.09871C4.88519 8.33378 4.76664 8.57061 4.73943 8.62504C4.71222 8.67946 4.68992 8.77565 4.68992 8.83873C4.68992 8.90188 4.66452 8.95351 4.63347 8.95351C4.60242 8.95351 4.57701 9.0289 4.57701 9.1211C4.57701 9.21331 4.55161 9.30454 4.52056 9.32392C4.48951 9.34329 4.46411 9.44114 4.46411 9.54137C4.46411 9.64156 4.43814 9.81314 4.40636 9.92267C4.27589 10.3725 4.37136 12.4988 4.53038 12.6833C4.55601 12.713 4.57701 12.7967 4.57701 12.8693C4.57701 12.9417 4.59943 13.0456 4.62686 13.1C4.6543 13.1545 4.70115 13.2631 4.73091 13.3414C4.85059 13.6561 5.33535 14.5951 5.37814 14.5951C5.40326 14.5951 5.42381 14.637 5.42381 14.6882C5.42381 14.7394 5.46852 14.8227 5.52322 14.8734C5.57793 14.9241 5.69236 15.0601 5.77754 15.1758C5.9766 15.446 6.50031 15.9747 6.76795 16.1756C6.88255 16.2616 7.01736 16.3771 7.06755 16.4323C7.11779 16.4875 7.20033 16.5327 7.25102 16.5327C7.30172 16.5327 7.34321 16.5554 7.34321 16.5832C7.34321 16.6529 8.56333 17.2735 8.70028 17.2735C8.76114 17.2735 8.81099 17.2991 8.81099 17.3305C8.81099 17.3618 8.87484 17.3875 8.95291 17.3875C9.03093 17.3875 9.13892 17.4109 9.19283 17.4395C9.33312 17.5141 9.84328 17.6059 10.3352 17.6451C11.074 17.704 11.0127 17.6418 11.0127 18.3326C11.0127 18.6812 11.0403 18.9859 11.0785 19.0581C11.1773 19.2448 11.7355 19.7239 11.8543 19.7239C11.8882 19.7239 11.9159 19.7495 11.9159 19.7809C11.9159 19.8122 11.954 19.8379 12.0006 19.8379C12.0472 19.8379 12.0853 19.8635 12.0853 19.8949C12.0853 19.9262 12.1361 19.9518 12.1982 19.9518C12.2603 19.9518 12.3111 19.9775 12.3111 20.0088C12.3111 20.0402 12.3555 20.0666 12.4099 20.0676C12.4642 20.0686 12.5569 20.1063 12.6158 20.1513C12.7183 20.2296 12.7158 20.2359 12.5593 20.2964C12.1307 20.462 10.0196 20.4761 9.45065 20.3171C9.30772 20.2772 9.24466 19.9569 9.26391 19.3686C9.28276 18.7933 9.26927 18.7089 9.13903 18.5864C9.07112 18.5225 8.94557 18.4702 8.8601 18.4702C8.77469 18.4702 8.68905 18.4446 8.66985 18.4132C8.65066 18.3819 8.57298 18.3562 8.49716 18.3562C8.42135 18.3562 8.35936 18.3306 8.35936 18.2992C8.35936 18.2679 8.31245 18.2423 8.25515 18.2423C8.19779 18.2423 8.06445 18.2005 7.95877 18.1496C7.85309 18.0986 7.65229 18.0025 7.51257 17.936C7.37285 17.8694 7.24583 17.8021 7.2303 17.7864C7.21478 17.7707 7.11661 17.7269 7.01211 17.6891C6.8239 17.621 6.81899 17.6236 6.47191 17.9741C6.01803 18.4323 5.6604 18.7551 5.60655 18.7551C5.58301 18.7551 5.49528 18.691 5.41156 18.6127C5.3279 18.5343 5.24587 18.4702 5.22933 18.4702C5.1779 18.4702 4.97077 18.2886 4.44937 17.7864C4.17281 17.52 3.92323 17.2934 3.89484 17.283C3.86638 17.2725 3.84313 17.2387 3.84313 17.2077C3.84313 17.1767 3.8114 17.1176 3.77256 17.0763C3.62364 16.9179 3.50441 16.7575 3.50441 16.7155C3.50441 16.6915 3.4536 16.6348 3.3915 16.5897C3.3294 16.5445 3.2786 16.4584 3.2786 16.3984C3.2786 16.3362 3.50915 16.0588 3.8149 15.7532C4.19251 15.3757 4.3512 15.177 4.3512 15.0818C4.3512 15.0074 4.33167 14.938 4.30785 14.9275C4.27014 14.9111 4.17738 14.7287 3.80818 13.9453C3.76533 13.8543 3.73022 13.7325 3.73022 13.6746C3.73022 13.6167 3.70482 13.5694 3.67377 13.5694C3.64272 13.5694 3.61731 13.4925 3.61731 13.3984C3.61731 13.3044 3.59191 13.2275 3.56086 13.2275C3.52981 13.2275 3.50362 13.1698 3.5026 13.0993C3.50164 13.0287 3.46252 12.9197 3.41566 12.8571C3.33957 12.7552 3.24574 12.7401 2.52952 12.7146L1.72851 12.6861L1.65574 12.3727C1.55893 11.9559 1.55785 10.1226 1.65411 9.66583L1.72614 9.32392L2.53472 9.29542C3.26748 9.26961 3.34939 9.25627 3.40861 9.15296C3.50277 8.98872 3.61545 8.65655 3.61647 8.54036C3.61692 8.48548 3.64272 8.44063 3.67377 8.44063C3.70482 8.44063 3.73022 8.37806 3.73022 8.30153C3.73022 8.22499 3.75562 8.14658 3.78667 8.1272C3.81772 8.10783 3.84313 8.04224 3.84313 7.98138C3.84313 7.92052 3.86853 7.87077 3.89958 7.87077C3.93063 7.87077 3.95603 7.83475 3.95603 7.79076C3.95603 7.74676 4.04495 7.55199 4.15362 7.35789C4.26229 7.1638 4.35092 6.96264 4.35058 6.91078C4.3499 6.80262 3.88699 6.27515 3.79277 6.27515C3.75839 6.27515 3.73022 6.24848 3.73022 6.21589C3.73022 6.18329 3.62561 6.05616 3.49769 5.93335C3.22068 5.66734 3.22745 5.53274 3.53343 5.22387C3.64165 5.11463 3.73022 5.01086 3.73022 4.99325C3.73022 4.9109 4.9233 3.71078 5.00515 3.71078C5.0209 3.71078 5.09531 3.64866 5.1705 3.57275C5.24576 3.49679 5.35889 3.41815 5.422 3.39792C5.48512 3.37769 5.53672 3.33729 5.53672 3.30805C5.53672 3.17858 5.68733 3.2901 6.19614 3.79625C6.65906 4.25676 6.76779 4.33762 6.92416 4.33762C7.02527 4.33762 7.11644 4.31785 7.12683 4.29363C7.15274 4.233 8.00732 3.82475 8.10832 3.82475C8.15325 3.82475 8.19 3.7991 8.19 3.76776C8.19 3.73642 8.26621 3.71078 8.35936 3.71078C8.45251 3.71078 8.52872 3.68513 8.52872 3.65379C8.52872 3.62245 8.56722 3.5968 8.6143 3.5968C8.79456 3.5968 9.14011 3.45445 9.20175 3.35478C9.24014 3.29272 9.26854 2.96517 9.27192 2.54575C9.27503 2.15813 9.29851 1.80652 9.32409 1.76441C9.35356 1.71586 9.58349 1.66469 9.95173 1.62474C10.7412 1.53909 11.1314 1.53487 11.8149 1.60451ZM14.8897 2.36516C15.0504 2.40881 15.2638 2.48586 15.364 2.53629C15.4642 2.58678 15.5748 2.62804 15.6098 2.62804C15.6447 2.62804 15.7099 2.67933 15.7547 2.74201C15.7995 2.80469 15.8688 2.85598 15.9088 2.85598C15.9838 2.85598 16.2702 3.08809 16.4275 3.27631C16.4766 3.33507 16.5697 3.43855 16.6343 3.50625C16.8228 3.70377 17.166 4.3635 17.166 4.5283V4.67954H16.5914C16.2754 4.67954 15.9387 4.70347 15.8434 4.73265C15.748 4.76189 15.5617 4.81739 15.4292 4.85603C15.1704 4.93159 15.1626 4.96863 15.3343 5.30969C15.3967 5.43364 15.4378 5.45187 15.6094 5.43164C15.7204 5.41859 15.8112 5.38503 15.8112 5.35716C15.8112 5.32924 16.2176 5.30639 16.7144 5.30639C17.2789 5.30639 17.6176 5.32776 17.6176 5.36337C17.6176 5.39472 17.7066 5.42036 17.8152 5.42036C17.9239 5.42036 18.0128 5.446 18.0128 5.47735C18.0128 5.50869 18.05 5.53433 18.0955 5.53433C18.1848 5.53433 18.6144 5.76228 18.8878 5.95478C19.1353 6.12904 19.7064 6.705 19.7064 6.78034C19.7064 6.8159 19.7318 6.84502 19.7629 6.84502C19.7939 6.84502 19.8193 6.88137 19.8193 6.92577C19.8193 6.97016 19.8396 7.01501 19.8645 7.02549C19.9617 7.06641 20.2638 7.80871 20.3573 8.23633C20.4832 8.81292 20.4465 9.5591 20.2644 10.1217C20.1935 10.3411 20.1151 10.5292 20.0902 10.5396C20.0654 10.5501 20.0451 10.6078 20.0451 10.6678C20.0451 10.7279 20.0197 10.7771 19.9887 10.7771C19.9576 10.7771 19.9322 10.8155 19.9322 10.8625C19.9322 10.9096 19.9068 10.948 19.8758 10.948C19.8447 10.948 19.8193 10.9865 19.8193 11.0335C19.8193 11.0805 19.7939 11.119 19.7629 11.119C19.7318 11.119 19.7064 11.1487 19.7064 11.1849C19.7064 11.2859 18.9525 12.0049 18.7534 12.0939C18.6566 12.1372 18.5773 12.1919 18.5773 12.2156C18.5773 12.2393 18.5265 12.2587 18.4644 12.2587C18.4023 12.2587 18.3515 12.2843 18.3515 12.3157C18.3515 12.347 18.3116 12.3727 18.2628 12.3727C18.214 12.3727 18.1378 12.4093 18.0935 12.4541C18.0015 12.5469 17.9844 12.7716 18.0693 12.7716C18.1003 12.7716 18.1257 12.8229 18.1257 12.8856C18.1257 12.9684 18.1634 12.9995 18.2635 12.9995C18.3393 12.9995 18.417 12.9739 18.4362 12.9425C18.4554 12.9112 18.5096 12.8856 18.5567 12.8856C18.7091 12.8856 19.4262 12.377 19.7648 12.0288C20.1526 11.63 20.2161 11.6478 20.3173 12.1833C20.4442 12.8544 20.4512 13.0849 20.3609 13.6132C20.2633 14.1838 19.9819 14.9371 19.8662 14.9371C19.8404 14.9371 19.8193 14.9691 19.8193 15.0083C19.8192 15.0766 19.6846 15.2579 19.407 15.5639C19.1652 15.8305 18.8001 16.1114 18.4766 16.2795C18.2991 16.3717 18.1455 16.4664 18.1352 16.4899C18.1248 16.5135 18.0295 16.5327 17.9235 16.5327C17.8174 16.5327 17.7306 16.5557 17.7306 16.5839C17.7306 16.6576 17.2738 16.7145 16.6862 16.7138C16.078 16.7131 15.5853 16.6551 15.5853 16.5841C15.5853 16.5559 15.54 16.5327 15.4846 16.5327C15.4176 16.5327 15.3544 16.6137 15.2957 16.7749C15.1854 17.0777 15.212 17.1595 15.4207 17.1595C15.5113 17.1595 15.5853 17.1852 15.5853 17.2165C15.5853 17.2478 15.7235 17.2735 15.8925 17.2735C16.0615 17.2735 16.2154 17.2991 16.2346 17.3305C16.2537 17.3618 16.4711 17.3875 16.7177 17.3875C17.1309 17.3875 17.166 17.3966 17.166 17.5033C17.166 17.6151 16.9083 18.184 16.8313 18.2423C16.8106 18.2579 16.7326 18.3605 16.6579 18.4702C16.5833 18.5799 16.4702 18.7161 16.4066 18.7729C16.132 19.018 16.0343 19.097 16.006 19.097C15.9894 19.097 15.9212 19.1483 15.8546 19.211C15.788 19.2737 15.7001 19.325 15.6594 19.325C15.6186 19.325 15.5853 19.3477 15.5853 19.3753C15.5853 19.403 15.5282 19.4399 15.4583 19.4573C15.3884 19.4746 15.1792 19.5441 14.9932 19.6116C14.5745 19.7637 13.517 19.7853 13.0693 19.6508C12.6843 19.5352 12.2443 19.3228 12.1351 19.1999C12.0849 19.1433 12.0185 19.097 11.9875 19.097C11.9566 19.097 11.8643 19.0295 11.7824 18.9468C11.6442 18.8073 11.6336 18.7609 11.6336 18.2961C11.6336 18.0209 11.649 17.7551 11.6679 17.7056C11.7233 17.5597 12.1626 17.5853 12.3226 17.7437C12.6375 18.0556 13.1704 18.111 13.5242 17.8686C13.805 17.6762 13.8918 17.5846 13.8918 17.4803C13.8918 17.433 13.9172 17.3783 13.9482 17.359C13.9793 17.3396 14.0047 17.1971 14.0047 17.0422C14.0047 16.8873 13.9793 16.7606 13.9482 16.7606C13.9172 16.7606 13.8918 16.7192 13.8918 16.6686C13.8918 16.5279 13.4989 16.1958 13.2538 16.1291C12.8478 16.0188 12.1982 16.2822 12.1982 16.5571C12.1982 16.6064 12.1728 16.6466 12.1417 16.6466C12.1107 16.6466 12.0853 16.7076 12.0853 16.7822C12.0853 16.8785 12.0372 16.9378 11.9193 16.9871C11.8281 17.0253 11.7264 17.0397 11.6935 17.0192C11.6546 16.9949 11.6336 16.5847 11.6336 15.8455V14.7091H12.8514C14.1329 14.7091 14.1362 14.7097 14.2799 14.9808C14.3668 15.1447 14.7397 15.336 14.9722 15.336C15.321 15.336 15.8112 15.0831 15.8112 14.903C15.8112 14.8643 15.8378 14.8236 15.8703 14.8127C15.9029 14.8017 15.944 14.6505 15.9618 14.4765C16.017 13.9369 15.7117 13.5273 15.1792 13.4264C14.7869 13.3522 14.252 13.6306 14.1472 13.9637C14.111 14.0789 14.0758 14.0823 12.9061 14.0823C11.6042 14.0823 11.6336 14.0895 11.6336 13.7701C11.6336 13.6104 12.1682 13.1135 12.3399 13.1135C12.3862 13.1135 12.424 13.0941 12.424 13.0704C12.424 13.0467 12.5066 12.9933 12.6074 12.9517C12.7083 12.9101 12.8417 12.8539 12.9038 12.8269C13.0338 12.7704 13.5581 12.6637 13.8071 12.6431C13.966 12.63 13.9774 12.6129 13.9934 12.3656C14.0063 12.1643 13.9886 12.0937 13.9186 12.0666C13.8107 12.0248 13.0607 12.1292 12.9187 12.2058C12.8648 12.2349 12.771 12.2587 12.7104 12.2587C12.6497 12.2587 12.5843 12.2843 12.5651 12.3157C12.5459 12.347 12.4809 12.3727 12.4206 12.3727C12.3604 12.3727 12.3111 12.3983 12.3111 12.4297C12.3111 12.461 12.2603 12.4866 12.1982 12.4866C12.1361 12.4866 12.0853 12.5076 12.0853 12.5331C12.0853 12.5962 11.7102 12.7729 11.6676 12.7299C11.6232 12.685 11.6234 11.4971 11.6679 11.3801C11.6982 11.3004 11.918 11.2899 13.5608 11.2899C15.2794 11.2899 15.4223 11.2975 15.4563 11.3897C15.5531 11.6515 16.0598 11.9731 16.3757 11.9731C16.5947 11.9731 16.8933 11.8388 17.0695 11.6609C17.636 11.0891 17.1733 10.0362 16.3555 10.0362C16.1373 10.0362 15.5853 10.3113 15.5853 10.42C15.5853 10.6536 15.5053 10.6631 13.5288 10.6631H11.6336V9.98877C11.6336 9.61785 11.6489 9.29901 11.6675 9.28026C11.7108 9.2365 11.9724 9.35514 11.9724 9.41857C11.9724 9.44484 12.0232 9.46638 12.0853 9.46638C12.1474 9.46638 12.1982 9.49202 12.1982 9.52337C12.1982 9.55471 12.249 9.58035 12.3111 9.58035C12.3732 9.58035 12.424 9.606 12.424 9.63734C12.424 9.66868 12.4875 9.69433 12.5651 9.69433C12.6427 9.69433 12.7062 9.71718 12.7062 9.7451C12.7062 9.80779 12.994 9.86021 13.5705 9.90238L14.0113 9.93464L13.9939 9.6578L13.9764 9.3809L13.6377 9.33987C13.2606 9.29411 12.4812 9.06269 12.4807 8.99624C12.4805 8.97277 12.4423 8.95351 12.3957 8.95351C12.3492 8.95351 12.3111 8.92786 12.3111 8.89652C12.3111 8.86518 12.2718 8.83953 12.2238 8.83953C12.1759 8.83953 12.0774 8.78186 12.0051 8.71131C11.9328 8.64077 11.8196 8.53847 11.7537 8.48394C11.6727 8.41704 11.6336 8.31959 11.6336 8.18476V7.98474H12.8514C13.8315 7.98474 14.0849 8.00064 14.1498 8.06617C14.1942 8.11091 14.2305 8.17559 14.2305 8.20989C14.2305 8.24414 14.3498 8.34854 14.4956 8.44188C14.7038 8.57523 14.8249 8.61159 15.0601 8.61159C15.2248 8.61159 15.3595 8.58594 15.3595 8.5546C15.3595 8.52326 15.3987 8.49762 15.4466 8.49762C15.6811 8.49762 15.9797 8.04161 15.9801 7.68271C15.9809 7.13029 15.5473 6.67468 15.0208 6.67468C14.7026 6.67468 14.3553 6.88644 14.1572 7.20118L14.0585 7.35789H12.8803C11.8581 7.35789 11.6977 7.34598 11.6679 7.26774C11.649 7.21816 11.6336 6.69167 11.6336 6.09776C11.6336 5.16979 11.6461 5.01308 11.7221 4.98362C11.8654 4.92811 12.0853 5.08027 12.0853 5.23498C12.0853 5.41922 12.4582 5.77482 12.7552 5.87374C13.0669 5.97757 13.3886 5.88087 13.6649 5.60032C13.9152 5.34611 14.0586 4.95074 13.9588 4.78947C13.922 4.72986 13.8918 4.63931 13.8918 4.58819C13.8918 4.46163 13.4525 4.05269 13.3166 4.05269C13.2562 4.05269 13.1641 4.03121 13.1118 4.005C12.9687 3.93319 12.5197 4.08797 12.3243 4.27642C12.164 4.43102 12.1393 4.43724 11.8939 4.38441L11.6336 4.32839V3.76947V3.21055L11.9007 2.97628C12.0475 2.84743 12.1979 2.74201 12.2347 2.74201C12.2716 2.74201 12.3101 2.72155 12.3205 2.69659C12.3556 2.6118 12.8589 2.40705 13.2491 2.31872C13.6934 2.21819 14.4248 2.23888 14.8897 2.36516ZM13.2451 4.70547C13.4939 4.95655 13.3609 5.30639 13.0167 5.30639C12.6809 5.30639 12.5276 4.9129 12.7734 4.68176C12.9367 4.52813 13.0764 4.53514 13.2451 4.70547ZM10.9433 4.95518C10.9984 4.99051 11.0115 5.27208 10.9997 6.16528L10.9844 7.3294L10.269 7.3453C9.58388 7.36057 9.55193 7.35612 9.51574 7.24101C9.43078 6.97084 8.97374 6.67468 8.64163 6.67468C8.25159 6.67468 7.77028 7.04287 7.70564 7.3906C7.66194 7.62573 7.72382 8.09871 7.79828 8.09871C7.82746 8.09871 7.85129 8.12618 7.85129 8.15974C7.85129 8.23331 7.93343 8.31703 8.17047 8.48525C8.40628 8.65256 8.82256 8.65615 9.08732 8.49323C9.29462 8.36564 9.43197 8.24249 9.43197 8.18419C9.43197 8.16402 9.46827 8.11091 9.51264 8.06617C9.57395 8.00423 9.76318 7.98474 10.303 7.98474H11.0127V9.32392V10.6631H9.45269C7.92609 10.6631 7.89052 10.6605 7.78733 10.5404C7.72935 10.4729 7.68193 10.3971 7.68193 10.3718C7.68193 10.2752 7.18559 10.0362 6.98479 10.0362C6.71286 10.0362 6.30651 10.2324 6.21291 10.409C6.17204 10.486 6.11908 10.5491 6.09515 10.5491C6.07127 10.5491 6.03418 10.6671 6.01278 10.8113C5.94877 11.242 6.06737 11.5169 6.45605 11.8389C6.58318 11.9443 6.97514 11.9861 7.21726 11.9203C7.47209 11.8511 7.85129 11.5307 7.85129 11.3847C7.85129 11.2959 7.97706 11.2894 9.41786 11.3033L10.9844 11.3184V12.6861V14.0538L10.269 14.0697C9.58388 14.0849 9.55193 14.0805 9.51574 13.9654C9.45568 13.7744 9.15253 13.5176 8.90904 13.4514C8.68137 13.3895 8.27734 13.4269 8.16652 13.5201C8.13287 13.5484 8.05192 13.6159 7.98666 13.6702C7.76282 13.8563 7.66533 14.1312 7.70061 14.4765C7.7184 14.6505 7.75955 14.8017 7.79212 14.8127C7.82464 14.8236 7.85129 14.8695 7.85129 14.9145C7.85129 15.0633 8.35564 15.336 8.6309 15.336C8.85479 15.336 9.31895 15.1463 9.31912 15.0548C9.31918 15.0371 9.3793 14.952 9.45274 14.8658C9.58529 14.7103 9.59139 14.7091 10.2994 14.7091H11.0127V15.8712C11.0127 16.7667 10.9959 17.0398 10.9399 17.0615C10.8457 17.098 9.78519 16.9985 9.60133 16.9358C9.5237 16.9095 9.34588 16.8548 9.20616 16.8143C9.06644 16.7739 8.92796 16.7196 8.89849 16.6937C8.86896 16.6678 8.78643 16.6466 8.71502 16.6466C8.6436 16.6466 8.58517 16.621 8.58517 16.5897C8.58517 16.5583 8.54865 16.5327 8.50399 16.5327C8.35106 16.5327 7.5688 16.0579 7.09561 15.6779C6.87352 15.4995 6.2706 14.8854 6.2706 14.8376C6.2706 14.8101 6.22025 14.733 6.15866 14.6663C5.98868 14.4821 5.59373 13.8479 5.55698 13.7002C5.53909 13.6283 5.50183 13.5694 5.47416 13.5694C5.44645 13.5694 5.42381 13.5196 5.42381 13.4588C5.42381 13.3979 5.39841 13.3323 5.36736 13.3129C5.33631 13.2936 5.3109 13.2152 5.3109 13.1386C5.3109 13.0621 5.28838 12.9995 5.26083 12.9995C5.23334 12.9995 5.19681 12.929 5.17965 12.8428C5.16249 12.7566 5.12116 12.5707 5.08774 12.4297C4.89987 11.6367 4.87255 10.3886 5.02971 9.77981C5.16446 9.25793 5.34195 8.72613 5.38147 8.72585C5.40473 8.72567 5.42381 8.6892 5.42381 8.64481C5.42381 8.54514 5.77269 7.87533 6.00499 7.52885C6.17757 7.2715 7.23629 6.16118 7.30906 6.16118C7.33045 6.16118 7.40243 6.10995 7.46899 6.04732C7.53554 5.98475 7.78219 5.83727 8.01703 5.71965C8.25188 5.60209 8.45251 5.48658 8.46284 5.4631C8.47323 5.43962 8.52889 5.42036 8.58653 5.42036C8.64422 5.42036 8.70711 5.39472 8.72631 5.36337C8.7455 5.33203 8.82318 5.30639 8.899 5.30639C8.97481 5.30639 9.0368 5.28074 9.0368 5.2494C9.0368 5.21806 9.11148 5.19242 9.20283 5.19242C9.29417 5.19242 9.3819 5.1711 9.39787 5.145C9.42604 5.09896 10.1326 4.97991 10.5893 4.9443C10.7135 4.93455 10.8278 4.9227 10.8433 4.91791C10.8588 4.91313 10.9038 4.92994 10.9433 4.95518ZM8.76786 7.30444C8.84023 7.33772 8.93168 7.43853 8.97114 7.52845C9.0351 7.67428 9.02923 7.70773 8.91672 7.83834C8.77486 8.00303 8.51387 8.03489 8.38358 7.90331C8.26142 7.78005 8.284 7.49409 8.42648 7.36011C8.56892 7.22614 8.59014 7.22272 8.76786 7.30444ZM15.2108 7.36205C15.3786 7.49529 15.4129 7.76802 15.2789 7.90331C15.1611 8.02224 14.8005 8.00964 14.755 7.88501C14.7349 7.83014 14.6943 7.76888 14.6646 7.74876C14.5859 7.69548 14.7409 7.37516 14.878 7.30786C15.0385 7.2291 15.0446 7.23013 15.2108 7.36205ZM7.2281 10.7878C7.41022 10.9851 7.35388 11.1897 7.07636 11.3389C6.86912 11.4504 6.6118 11.2685 6.61017 11.0095C6.60819 10.6882 7.00483 10.5459 7.2281 10.7878ZM16.6334 10.8032C16.7559 10.992 16.6963 11.254 16.5114 11.3391C16.3171 11.4284 16.2982 11.4242 16.1293 11.2537C15.9554 11.0781 15.9429 10.9618 16.0793 10.7894C16.2203 10.6113 16.5136 10.6187 16.6334 10.8032ZM8.81279 14.0571C8.86038 14.0747 8.93163 14.1627 8.97109 14.2527C9.0351 14.3987 9.02923 14.4321 8.91672 14.5627C8.77486 14.7274 8.51387 14.7593 8.38358 14.6277C8.29851 14.5419 8.27593 14.2642 8.3461 14.1677C8.41401 14.0745 8.60917 13.9735 8.66985 14.0003C8.7009 14.014 8.76526 14.0396 8.81279 14.0571ZM15.1486 14.0395C15.2181 14.0787 15.2935 14.1364 15.3163 14.1677C15.3865 14.2642 15.3639 14.5419 15.2789 14.6277C15.143 14.7648 14.7385 14.7182 14.7385 14.5653C14.7385 14.5242 14.7089 14.4807 14.6726 14.4685C14.6234 14.4519 14.6259 14.4021 14.6822 14.2736C14.745 14.1303 14.8158 14.0654 15.0075 13.9753C15.0157 13.9714 15.0792 14.0004 15.1486 14.0395ZM13.2686 16.8284C13.401 16.9718 13.4092 17.0406 13.3181 17.2423C13.2631 17.3642 13.2148 17.3875 13.0167 17.3875C12.8187 17.3875 12.7703 17.3642 12.7153 17.2423C12.6231 17.0381 12.6331 16.9484 12.7627 16.8176C12.9107 16.6682 13.125 16.6728 13.2686 16.8284Z"/>
</mask>
<path fill-rule="evenodd" clip-rule="evenodd" d="M9.88365 1.01379C9.65084 1.02707 9.43615 1.0624 9.40662 1.0922C9.3771 1.12201 9.24189 1.1464 9.10618 1.1464C8.71744 1.1464 8.69808 1.19238 8.69808 2.11642C8.69808 2.8757 8.69136 2.92539 8.58517 2.95343C8.52308 2.96984 8.47227 3.00591 8.47227 3.03361C8.47227 3.06125 8.41028 3.08393 8.33447 3.08393C8.25865 3.08393 8.18097 3.10957 8.16178 3.14091C8.14258 3.17226 8.08393 3.19836 8.03143 3.19887C7.97893 3.19938 7.75814 3.28913 7.54079 3.39826C7.32345 3.50739 7.07929 3.59669 6.99823 3.59675C6.88972 3.5968 6.7255 3.47291 6.37504 3.12667C5.69066 2.45047 5.75603 2.48614 5.47044 2.63231C5.33614 2.70109 5.21352 2.77444 5.198 2.79535C5.18247 2.81626 5.04286 2.9218 4.88779 3.02985C4.73271 3.13795 4.49871 3.33535 4.36774 3.46858C4.23677 3.60176 4.11427 3.71078 4.09553 3.71078C4.07673 3.71078 3.92973 3.85541 3.76878 4.03218C3.60783 4.20895 3.39365 4.43889 3.29271 4.54312C3.19177 4.6474 3.10924 4.75921 3.10924 4.79163C3.10924 4.824 3.08383 4.8505 3.05278 4.8505C3.02174 4.8505 2.99633 4.88896 2.99633 4.93598C2.99633 4.98299 2.97093 5.02146 2.93988 5.02146C2.90883 5.02146 2.88343 5.04824 2.88343 5.08101C2.88343 5.11377 2.8202 5.20444 2.74286 5.28251C2.58366 5.44321 2.51778 5.64392 2.56994 5.80969C2.58942 5.87158 2.83301 6.14893 3.11133 6.426C3.38964 6.70301 3.6176 6.95551 3.61799 6.98708C3.61856 7.03791 3.17709 8.08338 3.04663 8.34011C3.01897 8.39453 2.99633 8.47516 2.99633 8.51921C2.99633 8.64339 2.8653 8.66852 2.21547 8.6692C1.88427 8.66954 1.51794 8.68573 1.40154 8.70516C1.21423 8.73639 1.18984 8.7593 1.18984 8.90398C1.18984 8.99391 1.1681 9.06748 1.14151 9.06748C0.95313 9.06748 0.952679 12.8013 1.14106 12.9188C1.16788 12.9356 1.18984 13.0026 1.18984 13.0679C1.18984 13.2978 1.33707 13.3377 2.19188 13.3396C2.93023 13.3413 2.99633 13.3499 2.99633 13.4447C2.99633 13.5015 3.04714 13.6541 3.10924 13.7839C3.17134 13.9136 3.22214 14.0461 3.22214 14.0783C3.22214 14.1614 3.52411 14.7908 3.57497 14.8136C3.59829 14.8241 3.61731 14.8935 3.61731 14.9679C3.61731 15.0625 3.45569 15.2683 3.08101 15.6509C2.64881 16.0922 2.54471 16.2309 2.54471 16.3655C2.54471 16.4574 2.56413 16.5327 2.58784 16.5327C2.61155 16.5327 2.69374 16.6352 2.77052 16.7606C2.8473 16.886 2.92949 16.9886 2.9532 16.9886C2.97691 16.9886 2.99633 17.016 2.99633 17.0496C2.99633 17.0832 3.02812 17.144 3.0669 17.1846C3.10574 17.2253 3.24591 17.3881 3.37852 17.5463C3.68461 17.9118 4.09016 18.321 4.43532 18.6127C4.58368 18.738 4.73791 18.8727 4.7781 18.9118C4.81835 18.951 4.87842 18.9831 4.91172 18.9831C4.94498 18.9831 4.97219 19.0087 4.97219 19.0401C4.97219 19.0714 5.01029 19.097 5.05686 19.097C5.10344 19.097 5.14154 19.1227 5.14154 19.154C5.14154 19.1854 5.17034 19.211 5.20551 19.211C5.24068 19.211 5.31491 19.264 5.37052 19.3287C5.5121 19.4935 5.78533 19.4893 5.97231 19.3195C6.05524 19.2441 6.29945 18.9966 6.51504 18.7694C6.86607 18.3994 7.07207 18.2747 7.12683 18.399C7.1533 18.4591 7.77987 18.7551 7.88075 18.7551C7.92665 18.7551 7.96419 18.7808 7.96419 18.8121C7.96419 18.8435 8.0404 18.8691 8.13355 18.8691C8.2267 18.8691 8.30291 18.8947 8.30291 18.9261C8.30291 18.9574 8.35552 18.9831 8.41982 18.9831C8.66714 18.9831 8.69808 19.0936 8.69808 19.9763V20.8066H8.86744C8.96059 20.8066 9.0368 20.8289 9.0368 20.856C9.0368 20.94 9.80603 20.9969 10.9844 20.9998C12.0957 21.0027 12.5036 20.9727 12.9708 20.8539C13.1692 20.8035 13.2208 20.7593 13.2923 20.579L13.3775 20.3641L14.1286 20.336C14.7092 20.3142 14.9693 20.2777 15.2748 20.1752C15.4922 20.1022 15.6785 20.022 15.6888 19.9971C15.6992 19.9722 15.7563 19.9518 15.8158 19.9518C15.8753 19.9518 15.9241 19.9262 15.9241 19.8949C15.9241 19.8635 15.9622 19.8379 16.0087 19.8379C16.0553 19.8379 16.0934 19.8122 16.0934 19.7809C16.0934 19.7495 16.1252 19.7236 16.164 19.7232C16.3183 19.7216 17.2789 18.7952 17.2789 18.6479C17.2789 18.6181 17.2997 18.5851 17.3251 18.5747C17.3964 18.5454 17.7698 17.7336 17.8516 17.4302C17.9039 17.2361 17.953 17.1595 18.0251 17.1595C18.0804 17.1595 18.1257 17.1339 18.1257 17.1025C18.1257 17.0712 18.1742 17.0455 18.2334 17.0455C18.3492 17.0455 18.9319 16.7615 18.9631 16.6899C18.9735 16.6661 19.0116 16.6462 19.0478 16.6456C19.2415 16.6425 20.1242 15.7443 20.3838 15.286C20.4304 15.2038 20.4875 15.128 20.5109 15.1175C20.5342 15.107 20.5532 15.063 20.5532 15.0195C20.5532 14.9761 20.5988 14.8564 20.6546 14.7536C20.8864 14.3263 21.0026 13.7452 20.9998 13.028C20.9977 12.4833 20.9086 11.8576 20.8204 11.7687C20.7976 11.7457 20.779 11.6542 20.779 11.5654C20.779 11.4766 20.7536 11.4039 20.7226 11.4039C20.6915 11.4039 20.6661 11.3526 20.6661 11.2899C20.6661 11.2273 20.6407 11.176 20.6097 11.176C20.5786 11.176 20.5532 11.099 20.5532 11.005C20.5532 10.911 20.5786 10.834 20.6097 10.834C20.6407 10.834 20.6661 10.7843 20.6661 10.7234C20.6661 10.6626 20.6885 10.5989 20.7158 10.5818C20.7432 10.5647 20.7793 10.4927 20.7961 10.4218C20.8129 10.3507 20.8658 10.1388 20.9137 9.95076C21.0283 9.50103 21.0289 8.57643 20.9151 8.07022C20.8658 7.85082 20.8122 7.60082 20.7958 7.5146C20.7795 7.42844 20.7437 7.35789 20.7162 7.35789C20.6886 7.35789 20.6661 7.3066 20.6661 7.24392C20.6661 7.18123 20.6407 7.12995 20.6097 7.12995C20.5786 7.12995 20.5532 7.07866 20.5532 7.01597C20.5532 6.95329 20.5278 6.902 20.4967 6.902C20.4657 6.902 20.4403 6.86354 20.4403 6.81652C20.4403 6.76951 20.4149 6.73104 20.3838 6.73104C20.3528 6.73104 20.3271 6.69902 20.3267 6.65981C20.325 6.50492 19.4182 5.53433 19.2751 5.53433C19.2557 5.53433 19.1986 5.48635 19.1483 5.42777C19.0979 5.36913 18.8409 5.22564 18.5771 5.10887C18.3133 4.99211 18.063 4.87933 18.0209 4.85825C17.9787 4.83711 17.9071 4.70496 17.8618 4.56449C17.7656 4.26628 17.5829 3.83312 17.5017 3.71078C17.4705 3.66376 17.4301 3.58039 17.4118 3.52557C17.3936 3.47069 17.3562 3.42584 17.3288 3.42584C17.3014 3.42584 17.2789 3.40049 17.2789 3.36948C17.2789 3.25933 16.9036 2.85142 16.5168 2.54108C16.3616 2.4165 16.2218 2.30173 16.2063 2.28601C16.1908 2.27034 16.1019 2.21905 16.0087 2.17215C15.9156 2.12525 15.8267 2.07396 15.8112 2.05829C15.7662 2.01276 15.2398 1.82225 14.9926 1.76208C14.8684 1.73182 14.4497 1.68987 14.0623 1.6689L13.3578 1.63078L13.3005 1.45982C13.2148 1.20401 13.1343 1.1464 12.8627 1.1464C12.727 1.1464 12.5906 1.12081 12.5595 1.08947C12.4985 1.02787 10.5842 0.973671 9.88365 1.01379ZM11.8149 1.60451C12.5468 1.6791 12.6499 1.70184 12.6493 1.78857C12.6489 1.86129 12.4003 2.00119 12.2716 2.00119C12.2312 2.00119 12.1982 2.02056 12.1982 2.04427C12.1982 2.06798 12.1156 2.12422 12.0147 2.16924C11.9138 2.21432 11.7677 2.31062 11.6901 2.38322C11.6125 2.45588 11.5045 2.52957 11.4502 2.547C11.3958 2.56444 11.3514 2.6057 11.3514 2.63864C11.3514 2.67157 11.2757 2.766 11.1831 2.84846C11.0169 2.99662 11.0147 3.00631 10.9997 3.65379L10.9844 4.30913L10.561 4.34543C9.81867 4.40903 9.4296 4.46636 9.39883 4.51662C9.38235 4.54357 9.29563 4.56557 9.20616 4.56557C9.11668 4.56557 9.02777 4.59121 9.00857 4.62255C8.98938 4.6539 8.9117 4.67954 8.83588 4.67954C8.76007 4.67954 8.69808 4.70518 8.69808 4.73653C8.69808 4.76787 8.65117 4.79351 8.59387 4.79351C8.41198 4.79351 7.33898 5.36149 7.16736 5.54858C7.11706 5.60346 7.05349 5.64842 7.02611 5.64853C6.88436 5.6491 5.64962 6.86388 5.64962 7.00275C5.64962 7.02954 5.59921 7.10607 5.53762 7.1728C5.41122 7.30974 5.31017 7.4848 5.00284 8.09871C4.88519 8.33378 4.76664 8.57061 4.73943 8.62504C4.71222 8.67946 4.68992 8.77565 4.68992 8.83873C4.68992 8.90188 4.66452 8.95351 4.63347 8.95351C4.60242 8.95351 4.57701 9.0289 4.57701 9.1211C4.57701 9.21331 4.55161 9.30454 4.52056 9.32392C4.48951 9.34329 4.46411 9.44114 4.46411 9.54137C4.46411 9.64156 4.43814 9.81314 4.40636 9.92267C4.27589 10.3725 4.37136 12.4988 4.53038 12.6833C4.55601 12.713 4.57701 12.7967 4.57701 12.8693C4.57701 12.9417 4.59943 13.0456 4.62686 13.1C4.6543 13.1545 4.70115 13.2631 4.73091 13.3414C4.85059 13.6561 5.33535 14.5951 5.37814 14.5951C5.40326 14.5951 5.42381 14.637 5.42381 14.6882C5.42381 14.7394 5.46852 14.8227 5.52322 14.8734C5.57793 14.9241 5.69236 15.0601 5.77754 15.1758C5.9766 15.446 6.50031 15.9747 6.76795 16.1756C6.88255 16.2616 7.01736 16.3771 7.06755 16.4323C7.11779 16.4875 7.20033 16.5327 7.25102 16.5327C7.30172 16.5327 7.34321 16.5554 7.34321 16.5832C7.34321 16.6529 8.56333 17.2735 8.70028 17.2735C8.76114 17.2735 8.81099 17.2991 8.81099 17.3305C8.81099 17.3618 8.87484 17.3875 8.95291 17.3875C9.03093 17.3875 9.13892 17.4109 9.19283 17.4395C9.33312 17.5141 9.84328 17.6059 10.3352 17.6451C11.074 17.704 11.0127 17.6418 11.0127 18.3326C11.0127 18.6812 11.0403 18.9859 11.0785 19.0581C11.1773 19.2448 11.7355 19.7239 11.8543 19.7239C11.8882 19.7239 11.9159 19.7495 11.9159 19.7809C11.9159 19.8122 11.954 19.8379 12.0006 19.8379C12.0472 19.8379 12.0853 19.8635 12.0853 19.8949C12.0853 19.9262 12.1361 19.9518 12.1982 19.9518C12.2603 19.9518 12.3111 19.9775 12.3111 20.0088C12.3111 20.0402 12.3555 20.0666 12.4099 20.0676C12.4642 20.0686 12.5569 20.1063 12.6158 20.1513C12.7183 20.2296 12.7158 20.2359 12.5593 20.2964C12.1307 20.462 10.0196 20.4761 9.45065 20.3171C9.30772 20.2772 9.24466 19.9569 9.26391 19.3686C9.28276 18.7933 9.26927 18.7089 9.13903 18.5864C9.07112 18.5225 8.94557 18.4702 8.8601 18.4702C8.77469 18.4702 8.68905 18.4446 8.66985 18.4132C8.65066 18.3819 8.57298 18.3562 8.49716 18.3562C8.42135 18.3562 8.35936 18.3306 8.35936 18.2992C8.35936 18.2679 8.31245 18.2423 8.25515 18.2423C8.19779 18.2423 8.06445 18.2005 7.95877 18.1496C7.85309 18.0986 7.65229 18.0025 7.51257 17.936C7.37285 17.8694 7.24583 17.8021 7.2303 17.7864C7.21478 17.7707 7.11661 17.7269 7.01211 17.6891C6.8239 17.621 6.81899 17.6236 6.47191 17.9741C6.01803 18.4323 5.6604 18.7551 5.60655 18.7551C5.58301 18.7551 5.49528 18.691 5.41156 18.6127C5.3279 18.5343 5.24587 18.4702 5.22933 18.4702C5.1779 18.4702 4.97077 18.2886 4.44937 17.7864C4.17281 17.52 3.92323 17.2934 3.89484 17.283C3.86638 17.2725 3.84313 17.2387 3.84313 17.2077C3.84313 17.1767 3.8114 17.1176 3.77256 17.0763C3.62364 16.9179 3.50441 16.7575 3.50441 16.7155C3.50441 16.6915 3.4536 16.6348 3.3915 16.5897C3.3294 16.5445 3.2786 16.4584 3.2786 16.3984C3.2786 16.3362 3.50915 16.0588 3.8149 15.7532C4.19251 15.3757 4.3512 15.177 4.3512 15.0818C4.3512 15.0074 4.33167 14.938 4.30785 14.9275C4.27014 14.9111 4.17738 14.7287 3.80818 13.9453C3.76533 13.8543 3.73022 13.7325 3.73022 13.6746C3.73022 13.6167 3.70482 13.5694 3.67377 13.5694C3.64272 13.5694 3.61731 13.4925 3.61731 13.3984C3.61731 13.3044 3.59191 13.2275 3.56086 13.2275C3.52981 13.2275 3.50362 13.1698 3.5026 13.0993C3.50164 13.0287 3.46252 12.9197 3.41566 12.8571C3.33957 12.7552 3.24574 12.7401 2.52952 12.7146L1.72851 12.6861L1.65574 12.3727C1.55893 11.9559 1.55785 10.1226 1.65411 9.66583L1.72614 9.32392L2.53472 9.29542C3.26748 9.26961 3.34939 9.25627 3.40861 9.15296C3.50277 8.98872 3.61545 8.65655 3.61647 8.54036C3.61692 8.48548 3.64272 8.44063 3.67377 8.44063C3.70482 8.44063 3.73022 8.37806 3.73022 8.30153C3.73022 8.22499 3.75562 8.14658 3.78667 8.1272C3.81772 8.10783 3.84313 8.04224 3.84313 7.98138C3.84313 7.92052 3.86853 7.87077 3.89958 7.87077C3.93063 7.87077 3.95603 7.83475 3.95603 7.79076C3.95603 7.74676 4.04495 7.55199 4.15362 7.35789C4.26229 7.1638 4.35092 6.96264 4.35058 6.91078C4.3499 6.80262 3.88699 6.27515 3.79277 6.27515C3.75839 6.27515 3.73022 6.24848 3.73022 6.21589C3.73022 6.18329 3.62561 6.05616 3.49769 5.93335C3.22068 5.66734 3.22745 5.53274 3.53343 5.22387C3.64165 5.11463 3.73022 5.01086 3.73022 4.99325C3.73022 4.9109 4.9233 3.71078 5.00515 3.71078C5.0209 3.71078 5.09531 3.64866 5.1705 3.57275C5.24576 3.49679 5.35889 3.41815 5.422 3.39792C5.48512 3.37769 5.53672 3.33729 5.53672 3.30805C5.53672 3.17858 5.68733 3.2901 6.19614 3.79625C6.65906 4.25676 6.76779 4.33762 6.92416 4.33762C7.02527 4.33762 7.11644 4.31785 7.12683 4.29363C7.15274 4.233 8.00732 3.82475 8.10832 3.82475C8.15325 3.82475 8.19 3.7991 8.19 3.76776C8.19 3.73642 8.26621 3.71078 8.35936 3.71078C8.45251 3.71078 8.52872 3.68513 8.52872 3.65379C8.52872 3.62245 8.56722 3.5968 8.6143 3.5968C8.79456 3.5968 9.14011 3.45445 9.20175 3.35478C9.24014 3.29272 9.26854 2.96517 9.27192 2.54575C9.27503 2.15813 9.29851 1.80652 9.32409 1.76441C9.35356 1.71586 9.58349 1.66469 9.95173 1.62474C10.7412 1.53909 11.1314 1.53487 11.8149 1.60451ZM14.8897 2.36516C15.0504 2.40881 15.2638 2.48586 15.364 2.53629C15.4642 2.58678 15.5748 2.62804 15.6098 2.62804C15.6447 2.62804 15.7099 2.67933 15.7547 2.74201C15.7995 2.80469 15.8688 2.85598 15.9088 2.85598C15.9838 2.85598 16.2702 3.08809 16.4275 3.27631C16.4766 3.33507 16.5697 3.43855 16.6343 3.50625C16.8228 3.70377 17.166 4.3635 17.166 4.5283V4.67954H16.5914C16.2754 4.67954 15.9387 4.70347 15.8434 4.73265C15.748 4.76189 15.5617 4.81739 15.4292 4.85603C15.1704 4.93159 15.1626 4.96863 15.3343 5.30969C15.3967 5.43364 15.4378 5.45187 15.6094 5.43164C15.7204 5.41859 15.8112 5.38503 15.8112 5.35716C15.8112 5.32924 16.2176 5.30639 16.7144 5.30639C17.2789 5.30639 17.6176 5.32776 17.6176 5.36337C17.6176 5.39472 17.7066 5.42036 17.8152 5.42036C17.9239 5.42036 18.0128 5.446 18.0128 5.47735C18.0128 5.50869 18.05 5.53433 18.0955 5.53433C18.1848 5.53433 18.6144 5.76228 18.8878 5.95478C19.1353 6.12904 19.7064 6.705 19.7064 6.78034C19.7064 6.8159 19.7318 6.84502 19.7629 6.84502C19.7939 6.84502 19.8193 6.88137 19.8193 6.92577C19.8193 6.97016 19.8396 7.01501 19.8645 7.02549C19.9617 7.06641 20.2638 7.80871 20.3573 8.23633C20.4832 8.81292 20.4465 9.5591 20.2644 10.1217C20.1935 10.3411 20.1151 10.5292 20.0902 10.5396C20.0654 10.5501 20.0451 10.6078 20.0451 10.6678C20.0451 10.7279 20.0197 10.7771 19.9887 10.7771C19.9576 10.7771 19.9322 10.8155 19.9322 10.8625C19.9322 10.9096 19.9068 10.948 19.8758 10.948C19.8447 10.948 19.8193 10.9865 19.8193 11.0335C19.8193 11.0805 19.7939 11.119 19.7629 11.119C19.7318 11.119 19.7064 11.1487 19.7064 11.1849C19.7064 11.2859 18.9525 12.0049 18.7534 12.0939C18.6566 12.1372 18.5773 12.1919 18.5773 12.2156C18.5773 12.2393 18.5265 12.2587 18.4644 12.2587C18.4023 12.2587 18.3515 12.2843 18.3515 12.3157C18.3515 12.347 18.3116 12.3727 18.2628 12.3727C18.214 12.3727 18.1378 12.4093 18.0935 12.4541C18.0015 12.5469 17.9844 12.7716 18.0693 12.7716C18.1003 12.7716 18.1257 12.8229 18.1257 12.8856C18.1257 12.9684 18.1634 12.9995 18.2635 12.9995C18.3393 12.9995 18.417 12.9739 18.4362 12.9425C18.4554 12.9112 18.5096 12.8856 18.5567 12.8856C18.7091 12.8856 19.4262 12.377 19.7648 12.0288C20.1526 11.63 20.2161 11.6478 20.3173 12.1833C20.4442 12.8544 20.4512 13.0849 20.3609 13.6132C20.2633 14.1838 19.9819 14.9371 19.8662 14.9371C19.8404 14.9371 19.8193 14.9691 19.8193 15.0083C19.8192 15.0766 19.6846 15.2579 19.407 15.5639C19.1652 15.8305 18.8001 16.1114 18.4766 16.2795C18.2991 16.3717 18.1455 16.4664 18.1352 16.4899C18.1248 16.5135 18.0295 16.5327 17.9235 16.5327C17.8174 16.5327 17.7306 16.5557 17.7306 16.5839C17.7306 16.6576 17.2738 16.7145 16.6862 16.7138C16.078 16.7131 15.5853 16.6551 15.5853 16.5841C15.5853 16.5559 15.54 16.5327 15.4846 16.5327C15.4176 16.5327 15.3544 16.6137 15.2957 16.7749C15.1854 17.0777 15.212 17.1595 15.4207 17.1595C15.5113 17.1595 15.5853 17.1852 15.5853 17.2165C15.5853 17.2478 15.7235 17.2735 15.8925 17.2735C16.0615 17.2735 16.2154 17.2991 16.2346 17.3305C16.2537 17.3618 16.4711 17.3875 16.7177 17.3875C17.1309 17.3875 17.166 17.3966 17.166 17.5033C17.166 17.6151 16.9083 18.184 16.8313 18.2423C16.8106 18.2579 16.7326 18.3605 16.6579 18.4702C16.5833 18.5799 16.4702 18.7161 16.4066 18.7729C16.132 19.018 16.0343 19.097 16.006 19.097C15.9894 19.097 15.9212 19.1483 15.8546 19.211C15.788 19.2737 15.7001 19.325 15.6594 19.325C15.6186 19.325 15.5853 19.3477 15.5853 19.3753C15.5853 19.403 15.5282 19.4399 15.4583 19.4573C15.3884 19.4746 15.1792 19.5441 14.9932 19.6116C14.5745 19.7637 13.517 19.7853 13.0693 19.6508C12.6843 19.5352 12.2443 19.3228 12.1351 19.1999C12.0849 19.1433 12.0185 19.097 11.9875 19.097C11.9566 19.097 11.8643 19.0295 11.7824 18.9468C11.6442 18.8073 11.6336 18.7609 11.6336 18.2961C11.6336 18.0209 11.649 17.7551 11.6679 17.7056C11.7233 17.5597 12.1626 17.5853 12.3226 17.7437C12.6375 18.0556 13.1704 18.111 13.5242 17.8686C13.805 17.6762 13.8918 17.5846 13.8918 17.4803C13.8918 17.433 13.9172 17.3783 13.9482 17.359C13.9793 17.3396 14.0047 17.1971 14.0047 17.0422C14.0047 16.8873 13.9793 16.7606 13.9482 16.7606C13.9172 16.7606 13.8918 16.7192 13.8918 16.6686C13.8918 16.5279 13.4989 16.1958 13.2538 16.1291C12.8478 16.0188 12.1982 16.2822 12.1982 16.5571C12.1982 16.6064 12.1728 16.6466 12.1417 16.6466C12.1107 16.6466 12.0853 16.7076 12.0853 16.7822C12.0853 16.8785 12.0372 16.9378 11.9193 16.9871C11.8281 17.0253 11.7264 17.0397 11.6935 17.0192C11.6546 16.9949 11.6336 16.5847 11.6336 15.8455V14.7091H12.8514C14.1329 14.7091 14.1362 14.7097 14.2799 14.9808C14.3668 15.1447 14.7397 15.336 14.9722 15.336C15.321 15.336 15.8112 15.0831 15.8112 14.903C15.8112 14.8643 15.8378 14.8236 15.8703 14.8127C15.9029 14.8017 15.944 14.6505 15.9618 14.4765C16.017 13.9369 15.7117 13.5273 15.1792 13.4264C14.7869 13.3522 14.252 13.6306 14.1472 13.9637C14.111 14.0789 14.0758 14.0823 12.9061 14.0823C11.6042 14.0823 11.6336 14.0895 11.6336 13.7701C11.6336 13.6104 12.1682 13.1135 12.3399 13.1135C12.3862 13.1135 12.424 13.0941 12.424 13.0704C12.424 13.0467 12.5066 12.9933 12.6074 12.9517C12.7083 12.9101 12.8417 12.8539 12.9038 12.8269C13.0338 12.7704 13.5581 12.6637 13.8071 12.6431C13.966 12.63 13.9774 12.6129 13.9934 12.3656C14.0063 12.1643 13.9886 12.0937 13.9186 12.0666C13.8107 12.0248 13.0607 12.1292 12.9187 12.2058C12.8648 12.2349 12.771 12.2587 12.7104 12.2587C12.6497 12.2587 12.5843 12.2843 12.5651 12.3157C12.5459 12.347 12.4809 12.3727 12.4206 12.3727C12.3604 12.3727 12.3111 12.3983 12.3111 12.4297C12.3111 12.461 12.2603 12.4866 12.1982 12.4866C12.1361 12.4866 12.0853 12.5076 12.0853 12.5331C12.0853 12.5962 11.7102 12.7729 11.6676 12.7299C11.6232 12.685 11.6234 11.4971 11.6679 11.3801C11.6982 11.3004 11.918 11.2899 13.5608 11.2899C15.2794 11.2899 15.4223 11.2975 15.4563 11.3897C15.5531 11.6515 16.0598 11.9731 16.3757 11.9731C16.5947 11.9731 16.8933 11.8388 17.0695 11.6609C17.636 11.0891 17.1733 10.0362 16.3555 10.0362C16.1373 10.0362 15.5853 10.3113 15.5853 10.42C15.5853 10.6536 15.5053 10.6631 13.5288 10.6631H11.6336V9.98877C11.6336 9.61785 11.6489 9.29901 11.6675 9.28026C11.7108 9.2365 11.9724 9.35514 11.9724 9.41857C11.9724 9.44484 12.0232 9.46638 12.0853 9.46638C12.1474 9.46638 12.1982 9.49202 12.1982 9.52337C12.1982 9.55471 12.249 9.58035 12.3111 9.58035C12.3732 9.58035 12.424 9.606 12.424 9.63734C12.424 9.66868 12.4875 9.69433 12.5651 9.69433C12.6427 9.69433 12.7062 9.71718 12.7062 9.7451C12.7062 9.80779 12.994 9.86021 13.5705 9.90238L14.0113 9.93464L13.9939 9.6578L13.9764 9.3809L13.6377 9.33987C13.2606 9.29411 12.4812 9.06269 12.4807 8.99624C12.4805 8.97277 12.4423 8.95351 12.3957 8.95351C12.3492 8.95351 12.3111 8.92786 12.3111 8.89652C12.3111 8.86518 12.2718 8.83953 12.2238 8.83953C12.1759 8.83953 12.0774 8.78186 12.0051 8.71131C11.9328 8.64077 11.8196 8.53847 11.7537 8.48394C11.6727 8.41704 11.6336 8.31959 11.6336 8.18476V7.98474H12.8514C13.8315 7.98474 14.0849 8.00064 14.1498 8.06617C14.1942 8.11091 14.2305 8.17559 14.2305 8.20989C14.2305 8.24414 14.3498 8.34854 14.4956 8.44188C14.7038 8.57523 14.8249 8.61159 15.0601 8.61159C15.2248 8.61159 15.3595 8.58594 15.3595 8.5546C15.3595 8.52326 15.3987 8.49762 15.4466 8.49762C15.6811 8.49762 15.9797 8.04161 15.9801 7.68271C15.9809 7.13029 15.5473 6.67468 15.0208 6.67468C14.7026 6.67468 14.3553 6.88644 14.1572 7.20118L14.0585 7.35789H12.8803C11.8581 7.35789 11.6977 7.34598 11.6679 7.26774C11.649 7.21816 11.6336 6.69167 11.6336 6.09776C11.6336 5.16979 11.6461 5.01308 11.7221 4.98362C11.8654 4.92811 12.0853 5.08027 12.0853 5.23498C12.0853 5.41922 12.4582 5.77482 12.7552 5.87374C13.0669 5.97757 13.3886 5.88087 13.6649 5.60032C13.9152 5.34611 14.0586 4.95074 13.9588 4.78947C13.922 4.72986 13.8918 4.63931 13.8918 4.58819C13.8918 4.46163 13.4525 4.05269 13.3166 4.05269C13.2562 4.05269 13.1641 4.03121 13.1118 4.005C12.9687 3.93319 12.5197 4.08797 12.3243 4.27642C12.164 4.43102 12.1393 4.43724 11.8939 4.38441L11.6336 4.32839V3.76947V3.21055L11.9007 2.97628C12.0475 2.84743 12.1979 2.74201 12.2347 2.74201C12.2716 2.74201 12.3101 2.72155 12.3205 2.69659C12.3556 2.6118 12.8589 2.40705 13.2491 2.31872C13.6934 2.21819 14.4248 2.23888 14.8897 2.36516ZM13.2451 4.70547C13.4939 4.95655 13.3609 5.30639 13.0167 5.30639C12.6809 5.30639 12.5276 4.9129 12.7734 4.68176C12.9367 4.52813 13.0764 4.53514 13.2451 4.70547ZM10.9433 4.95518C10.9984 4.99051 11.0115 5.27208 10.9997 6.16528L10.9844 7.3294L10.269 7.3453C9.58388 7.36057 9.55193 7.35612 9.51574 7.24101C9.43078 6.97084 8.97374 6.67468 8.64163 6.67468C8.25159 6.67468 7.77028 7.04287 7.70564 7.3906C7.66194 7.62573 7.72382 8.09871 7.79828 8.09871C7.82746 8.09871 7.85129 8.12618 7.85129 8.15974C7.85129 8.23331 7.93343 8.31703 8.17047 8.48525C8.40628 8.65256 8.82256 8.65615 9.08732 8.49323C9.29462 8.36564 9.43197 8.24249 9.43197 8.18419C9.43197 8.16402 9.46827 8.11091 9.51264 8.06617C9.57395 8.00423 9.76318 7.98474 10.303 7.98474H11.0127V9.32392V10.6631H9.45269C7.92609 10.6631 7.89052 10.6605 7.78733 10.5404C7.72935 10.4729 7.68193 10.3971 7.68193 10.3718C7.68193 10.2752 7.18559 10.0362 6.98479 10.0362C6.71286 10.0362 6.30651 10.2324 6.21291 10.409C6.17204 10.486 6.11908 10.5491 6.09515 10.5491C6.07127 10.5491 6.03418 10.6671 6.01278 10.8113C5.94877 11.242 6.06737 11.5169 6.45605 11.8389C6.58318 11.9443 6.97514 11.9861 7.21726 11.9203C7.47209 11.8511 7.85129 11.5307 7.85129 11.3847C7.85129 11.2959 7.97706 11.2894 9.41786 11.3033L10.9844 11.3184V12.6861V14.0538L10.269 14.0697C9.58388 14.0849 9.55193 14.0805 9.51574 13.9654C9.45568 13.7744 9.15253 13.5176 8.90904 13.4514C8.68137 13.3895 8.27734 13.4269 8.16652 13.5201C8.13287 13.5484 8.05192 13.6159 7.98666 13.6702C7.76282 13.8563 7.66533 14.1312 7.70061 14.4765C7.7184 14.6505 7.75955 14.8017 7.79212 14.8127C7.82464 14.8236 7.85129 14.8695 7.85129 14.9145C7.85129 15.0633 8.35564 15.336 8.6309 15.336C8.85479 15.336 9.31895 15.1463 9.31912 15.0548C9.31918 15.0371 9.3793 14.952 9.45274 14.8658C9.58529 14.7103 9.59139 14.7091 10.2994 14.7091H11.0127V15.8712C11.0127 16.7667 10.9959 17.0398 10.9399 17.0615C10.8457 17.098 9.78519 16.9985 9.60133 16.9358C9.5237 16.9095 9.34588 16.8548 9.20616 16.8143C9.06644 16.7739 8.92796 16.7196 8.89849 16.6937C8.86896 16.6678 8.78643 16.6466 8.71502 16.6466C8.6436 16.6466 8.58517 16.621 8.58517 16.5897C8.58517 16.5583 8.54865 16.5327 8.50399 16.5327C8.35106 16.5327 7.5688 16.0579 7.09561 15.6779C6.87352 15.4995 6.2706 14.8854 6.2706 14.8376C6.2706 14.8101 6.22025 14.733 6.15866 14.6663C5.98868 14.4821 5.59373 13.8479 5.55698 13.7002C5.53909 13.6283 5.50183 13.5694 5.47416 13.5694C5.44645 13.5694 5.42381 13.5196 5.42381 13.4588C5.42381 13.3979 5.39841 13.3323 5.36736 13.3129C5.33631 13.2936 5.3109 13.2152 5.3109 13.1386C5.3109 13.0621 5.28838 12.9995 5.26083 12.9995C5.23334 12.9995 5.19681 12.929 5.17965 12.8428C5.16249 12.7566 5.12116 12.5707 5.08774 12.4297C4.89987 11.6367 4.87255 10.3886 5.02971 9.77981C5.16446 9.25793 5.34195 8.72613 5.38147 8.72585C5.40473 8.72567 5.42381 8.6892 5.42381 8.64481C5.42381 8.54514 5.77269 7.87533 6.00499 7.52885C6.17757 7.2715 7.23629 6.16118 7.30906 6.16118C7.33045 6.16118 7.40243 6.10995 7.46899 6.04732C7.53554 5.98475 7.78219 5.83727 8.01703 5.71965C8.25188 5.60209 8.45251 5.48658 8.46284 5.4631C8.47323 5.43962 8.52889 5.42036 8.58653 5.42036C8.64422 5.42036 8.70711 5.39472 8.72631 5.36337C8.7455 5.33203 8.82318 5.30639 8.899 5.30639C8.97481 5.30639 9.0368 5.28074 9.0368 5.2494C9.0368 5.21806 9.11148 5.19242 9.20283 5.19242C9.29417 5.19242 9.3819 5.1711 9.39787 5.145C9.42604 5.09896 10.1326 4.97991 10.5893 4.9443C10.7135 4.93455 10.8278 4.9227 10.8433 4.91791C10.8588 4.91313 10.9038 4.92994 10.9433 4.95518ZM8.76786 7.30444C8.84023 7.33772 8.93168 7.43853 8.97114 7.52845C9.0351 7.67428 9.02923 7.70773 8.91672 7.83834C8.77486 8.00303 8.51387 8.03489 8.38358 7.90331C8.26142 7.78005 8.284 7.49409 8.42648 7.36011C8.56892 7.22614 8.59014 7.22272 8.76786 7.30444ZM15.2108 7.36205C15.3786 7.49529 15.4129 7.76802 15.2789 7.90331C15.1611 8.02224 14.8005 8.00964 14.755 7.88501C14.7349 7.83014 14.6943 7.76888 14.6646 7.74876C14.5859 7.69548 14.7409 7.37516 14.878 7.30786C15.0385 7.2291 15.0446 7.23013 15.2108 7.36205ZM7.2281 10.7878C7.41022 10.9851 7.35388 11.1897 7.07636 11.3389C6.86912 11.4504 6.6118 11.2685 6.61017 11.0095C6.60819 10.6882 7.00483 10.5459 7.2281 10.7878ZM16.6334 10.8032C16.7559 10.992 16.6963 11.254 16.5114 11.3391C16.3171 11.4284 16.2982 11.4242 16.1293 11.2537C15.9554 11.0781 15.9429 10.9618 16.0793 10.7894C16.2203 10.6113 16.5136 10.6187 16.6334 10.8032ZM8.81279 14.0571C8.86038 14.0747 8.93163 14.1627 8.97109 14.2527C9.0351 14.3987 9.02923 14.4321 8.91672 14.5627C8.77486 14.7274 8.51387 14.7593 8.38358 14.6277C8.29851 14.5419 8.27593 14.2642 8.3461 14.1677C8.41401 14.0745 8.60917 13.9735 8.66985 14.0003C8.7009 14.014 8.76526 14.0396 8.81279 14.0571ZM15.1486 14.0395C15.2181 14.0787 15.2935 14.1364 15.3163 14.1677C15.3865 14.2642 15.3639 14.5419 15.2789 14.6277C15.143 14.7648 14.7385 14.7182 14.7385 14.5653C14.7385 14.5242 14.7089 14.4807 14.6726 14.4685C14.6234 14.4519 14.6259 14.4021 14.6822 14.2736C14.745 14.1303 14.8158 14.0654 15.0075 13.9753C15.0157 13.9714 15.0792 14.0004 15.1486 14.0395ZM13.2686 16.8284C13.401 16.9718 13.4092 17.0406 13.3181 17.2423C13.2631 17.3642 13.2148 17.3875 13.0167 17.3875C12.8187 17.3875 12.7703 17.3642 12.7153 17.2423C12.6231 17.0381 12.6331 16.9484 12.7627 16.8176C12.9107 16.6682 13.125 16.6728 13.2686 16.8284Z" fill="white"/>
<path fill-rule="evenodd" clip-rule="evenodd" d="M9.88365 1.01379C9.65084 1.02707 9.43615 1.0624 9.40662 1.0922C9.3771 1.12201 9.24189 1.1464 9.10618 1.1464C8.71744 1.1464 8.69808 1.19238 8.69808 2.11642C8.69808 2.8757 8.69136 2.92539 8.58517 2.95343C8.52308 2.96984 8.47227 3.00591 8.47227 3.03361C8.47227 3.06125 8.41028 3.08393 8.33447 3.08393C8.25865 3.08393 8.18097 3.10957 8.16178 3.14091C8.14258 3.17226 8.08393 3.19836 8.03143 3.19887C7.97893 3.19938 7.75814 3.28913 7.54079 3.39826C7.32345 3.50739 7.07929 3.59669 6.99823 3.59675C6.88972 3.5968 6.7255 3.47291 6.37504 3.12667C5.69066 2.45047 5.75603 2.48614 5.47044 2.63231C5.33614 2.70109 5.21352 2.77444 5.198 2.79535C5.18247 2.81626 5.04286 2.9218 4.88779 3.02985C4.73271 3.13795 4.49871 3.33535 4.36774 3.46858C4.23677 3.60176 4.11427 3.71078 4.09553 3.71078C4.07673 3.71078 3.92973 3.85541 3.76878 4.03218C3.60783 4.20895 3.39365 4.43889 3.29271 4.54312C3.19177 4.6474 3.10924 4.75921 3.10924 4.79163C3.10924 4.824 3.08383 4.8505 3.05278 4.8505C3.02174 4.8505 2.99633 4.88896 2.99633 4.93598C2.99633 4.98299 2.97093 5.02146 2.93988 5.02146C2.90883 5.02146 2.88343 5.04824 2.88343 5.08101C2.88343 5.11377 2.8202 5.20444 2.74286 5.28251C2.58366 5.44321 2.51778 5.64392 2.56994 5.80969C2.58942 5.87158 2.83301 6.14893 3.11133 6.426C3.38964 6.70301 3.6176 6.95551 3.61799 6.98708C3.61856 7.03791 3.17709 8.08338 3.04663 8.34011C3.01897 8.39453 2.99633 8.47516 2.99633 8.51921C2.99633 8.64339 2.8653 8.66852 2.21547 8.6692C1.88427 8.66954 1.51794 8.68573 1.40154 8.70516C1.21423 8.73639 1.18984 8.7593 1.18984 8.90398C1.18984 8.99391 1.1681 9.06748 1.14151 9.06748C0.95313 9.06748 0.952679 12.8013 1.14106 12.9188C1.16788 12.9356 1.18984 13.0026 1.18984 13.0679C1.18984 13.2978 1.33707 13.3377 2.19188 13.3396C2.93023 13.3413 2.99633 13.3499 2.99633 13.4447C2.99633 13.5015 3.04714 13.6541 3.10924 13.7839C3.17134 13.9136 3.22214 14.0461 3.22214 14.0783C3.22214 14.1614 3.52411 14.7908 3.57497 14.8136C3.59829 14.8241 3.61731 14.8935 3.61731 14.9679C3.61731 15.0625 3.45569 15.2683 3.08101 15.6509C2.64881 16.0922 2.54471 16.2309 2.54471 16.3655C2.54471 16.4574 2.56413 16.5327 2.58784 16.5327C2.61155 16.5327 2.69374 16.6352 2.77052 16.7606C2.8473 16.886 2.92949 16.9886 2.9532 16.9886C2.97691 16.9886 2.99633 17.016 2.99633 17.0496C2.99633 17.0832 3.02812 17.144 3.0669 17.1846C3.10574 17.2253 3.24591 17.3881 3.37852 17.5463C3.68461 17.9118 4.09016 18.321 4.43532 18.6127C4.58368 18.738 4.73791 18.8727 4.7781 18.9118C4.81835 18.951 4.87842 18.9831 4.91172 18.9831C4.94498 18.9831 4.97219 19.0087 4.97219 19.0401C4.97219 19.0714 5.01029 19.097 5.05686 19.097C5.10344 19.097 5.14154 19.1227 5.14154 19.154C5.14154 19.1854 5.17034 19.211 5.20551 19.211C5.24068 19.211 5.31491 19.264 5.37052 19.3287C5.5121 19.4935 5.78533 19.4893 5.97231 19.3195C6.05524 19.2441 6.29945 18.9966 6.51504 18.7694C6.86607 18.3994 7.07207 18.2747 7.12683 18.399C7.1533 18.4591 7.77987 18.7551 7.88075 18.7551C7.92665 18.7551 7.96419 18.7808 7.96419 18.8121C7.96419 18.8435 8.0404 18.8691 8.13355 18.8691C8.2267 18.8691 8.30291 18.8947 8.30291 18.9261C8.30291 18.9574 8.35552 18.9831 8.41982 18.9831C8.66714 18.9831 8.69808 19.0936 8.69808 19.9763V20.8066H8.86744C8.96059 20.8066 9.0368 20.8289 9.0368 20.856C9.0368 20.94 9.80603 20.9969 10.9844 20.9998C12.0957 21.0027 12.5036 20.9727 12.9708 20.8539C13.1692 20.8035 13.2208 20.7593 13.2923 20.579L13.3775 20.3641L14.1286 20.336C14.7092 20.3142 14.9693 20.2777 15.2748 20.1752C15.4922 20.1022 15.6785 20.022 15.6888 19.9971C15.6992 19.9722 15.7563 19.9518 15.8158 19.9518C15.8753 19.9518 15.9241 19.9262 15.9241 19.8949C15.9241 19.8635 15.9622 19.8379 16.0087 19.8379C16.0553 19.8379 16.0934 19.8122 16.0934 19.7809C16.0934 19.7495 16.1252 19.7236 16.164 19.7232C16.3183 19.7216 17.2789 18.7952 17.2789 18.6479C17.2789 18.6181 17.2997 18.5851 17.3251 18.5747C17.3964 18.5454 17.7698 17.7336 17.8516 17.4302C17.9039 17.2361 17.953 17.1595 18.0251 17.1595C18.0804 17.1595 18.1257 17.1339 18.1257 17.1025C18.1257 17.0712 18.1742 17.0455 18.2334 17.0455C18.3492 17.0455 18.9319 16.7615 18.9631 16.6899C18.9735 16.6661 19.0116 16.6462 19.0478 16.6456C19.2415 16.6425 20.1242 15.7443 20.3838 15.286C20.4304 15.2038 20.4875 15.128 20.5109 15.1175C20.5342 15.107 20.5532 15.063 20.5532 15.0195C20.5532 14.9761 20.5988 14.8564 20.6546 14.7536C20.8864 14.3263 21.0026 13.7452 20.9998 13.028C20.9977 12.4833 20.9086 11.8576 20.8204 11.7687C20.7976 11.7457 20.779 11.6542 20.779 11.5654C20.779 11.4766 20.7536 11.4039 20.7226 11.4039C20.6915 11.4039 20.6661 11.3526 20.6661 11.2899C20.6661 11.2273 20.6407 11.176 20.6097 11.176C20.5786 11.176 20.5532 11.099 20.5532 11.005C20.5532 10.911 20.5786 10.834 20.6097 10.834C20.6407 10.834 20.6661 10.7843 20.6661 10.7234C20.6661 10.6626 20.6885 10.5989 20.7158 10.5818C20.7432 10.5647 20.7793 10.4927 20.7961 10.4218C20.8129 10.3507 20.8658 10.1388 20.9137 9.95076C21.0283 9.50103 21.0289 8.57643 20.9151 8.07022C20.8658 7.85082 20.8122 7.60082 20.7958 7.5146C20.7795 7.42844 20.7437 7.35789 20.7162 7.35789C20.6886 7.35789 20.6661 7.3066 20.6661 7.24392C20.6661 7.18123 20.6407 7.12995 20.6097 7.12995C20.5786 7.12995 20.5532 7.07866 20.5532 7.01597C20.5532 6.95329 20.5278 6.902 20.4967 6.902C20.4657 6.902 20.4403 6.86354 20.4403 6.81652C20.4403 6.76951 20.4149 6.73104 20.3838 6.73104C20.3528 6.73104 20.3271 6.69902 20.3267 6.65981C20.325 6.50492 19.4182 5.53433 19.2751 5.53433C19.2557 5.53433 19.1986 5.48635 19.1483 5.42777C19.0979 5.36913 18.8409 5.22564 18.5771 5.10887C18.3133 4.99211 18.063 4.87933 18.0209 4.85825C17.9787 4.83711 17.9071 4.70496 17.8618 4.56449C17.7656 4.26628 17.5829 3.83312 17.5017 3.71078C17.4705 3.66376 17.4301 3.58039 17.4118 3.52557C17.3936 3.47069 17.3562 3.42584 17.3288 3.42584C17.3014 3.42584 17.2789 3.40049 17.2789 3.36948C17.2789 3.25933 16.9036 2.85142 16.5168 2.54108C16.3616 2.4165 16.2218 2.30173 16.2063 2.28601C16.1908 2.27034 16.1019 2.21905 16.0087 2.17215C15.9156 2.12525 15.8267 2.07396 15.8112 2.05829C15.7662 2.01276 15.2398 1.82225 14.9926 1.76208C14.8684 1.73182 14.4497 1.68987 14.0623 1.6689L13.3578 1.63078L13.3005 1.45982C13.2148 1.20401 13.1343 1.1464 12.8627 1.1464C12.727 1.1464 12.5906 1.12081 12.5595 1.08947C12.4985 1.02787 10.5842 0.973671 9.88365 1.01379ZM11.8149 1.60451C12.5468 1.6791 12.6499 1.70184 12.6493 1.78857C12.6489 1.86129 12.4003 2.00119 12.2716 2.00119C12.2312 2.00119 12.1982 2.02056 12.1982 2.04427C12.1982 2.06798 12.1156 2.12422 12.0147 2.16924C11.9138 2.21432 11.7677 2.31062 11.6901 2.38322C11.6125 2.45588 11.5045 2.52957 11.4502 2.547C11.3958 2.56444 11.3514 2.6057 11.3514 2.63864C11.3514 2.67157 11.2757 2.766 11.1831 2.84846C11.0169 2.99662 11.0147 3.00631 10.9997 3.65379L10.9844 4.30913L10.561 4.34543C9.81867 4.40903 9.4296 4.46636 9.39883 4.51662C9.38235 4.54357 9.29563 4.56557 9.20616 4.56557C9.11668 4.56557 9.02777 4.59121 9.00857 4.62255C8.98938 4.6539 8.9117 4.67954 8.83588 4.67954C8.76007 4.67954 8.69808 4.70518 8.69808 4.73653C8.69808 4.76787 8.65117 4.79351 8.59387 4.79351C8.41198 4.79351 7.33898 5.36149 7.16736 5.54858C7.11706 5.60346 7.05349 5.64842 7.02611 5.64853C6.88436 5.6491 5.64962 6.86388 5.64962 7.00275C5.64962 7.02954 5.59921 7.10607 5.53762 7.1728C5.41122 7.30974 5.31017 7.4848 5.00284 8.09871C4.88519 8.33378 4.76664 8.57061 4.73943 8.62504C4.71222 8.67946 4.68992 8.77565 4.68992 8.83873C4.68992 8.90188 4.66452 8.95351 4.63347 8.95351C4.60242 8.95351 4.57701 9.0289 4.57701 9.1211C4.57701 9.21331 4.55161 9.30454 4.52056 9.32392C4.48951 9.34329 4.46411 9.44114 4.46411 9.54137C4.46411 9.64156 4.43814 9.81314 4.40636 9.92267C4.27589 10.3725 4.37136 12.4988 4.53038 12.6833C4.55601 12.713 4.57701 12.7967 4.57701 12.8693C4.57701 12.9417 4.59943 13.0456 4.62686 13.1C4.6543 13.1545 4.70115 13.2631 4.73091 13.3414C4.85059 13.6561 5.33535 14.5951 5.37814 14.5951C5.40326 14.5951 5.42381 14.637 5.42381 14.6882C5.42381 14.7394 5.46852 14.8227 5.52322 14.8734C5.57793 14.9241 5.69236 15.0601 5.77754 15.1758C5.9766 15.446 6.50031 15.9747 6.76795 16.1756C6.88255 16.2616 7.01736 16.3771 7.06755 16.4323C7.11779 16.4875 7.20033 16.5327 7.25102 16.5327C7.30172 16.5327 7.34321 16.5554 7.34321 16.5832C7.34321 16.6529 8.56333 17.2735 8.70028 17.2735C8.76114 17.2735 8.81099 17.2991 8.81099 17.3305C8.81099 17.3618 8.87484 17.3875 8.95291 17.3875C9.03093 17.3875 9.13892 17.4109 9.19283 17.4395C9.33312 17.5141 9.84328 17.6059 10.3352 17.6451C11.074 17.704 11.0127 17.6418 11.0127 18.3326C11.0127 18.6812 11.0403 18.9859 11.0785 19.0581C11.1773 19.2448 11.7355 19.7239 11.8543 19.7239C11.8882 19.7239 11.9159 19.7495 11.9159 19.7809C11.9159 19.8122 11.954 19.8379 12.0006 19.8379C12.0472 19.8379 12.0853 19.8635 12.0853 19.8949C12.0853 19.9262 12.1361 19.9518 12.1982 19.9518C12.2603 19.9518 12.3111 19.9775 12.3111 20.0088C12.3111 20.0402 12.3555 20.0666 12.4099 20.0676C12.4642 20.0686 12.5569 20.1063 12.6158 20.1513C12.7183 20.2296 12.7158 20.2359 12.5593 20.2964C12.1307 20.462 10.0196 20.4761 9.45065 20.3171C9.30772 20.2772 9.24466 19.9569 9.26391 19.3686C9.28276 18.7933 9.26927 18.7089 9.13903 18.5864C9.07112 18.5225 8.94557 18.4702 8.8601 18.4702C8.77469 18.4702 8.68905 18.4446 8.66985 18.4132C8.65066 18.3819 8.57298 18.3562 8.49716 18.3562C8.42135 18.3562 8.35936 18.3306 8.35936 18.2992C8.35936 18.2679 8.31245 18.2423 8.25515 18.2423C8.19779 18.2423 8.06445 18.2005 7.95877 18.1496C7.85309 18.0986 7.65229 18.0025 7.51257 17.936C7.37285 17.8694 7.24583 17.8021 7.2303 17.7864C7.21478 17.7707 7.11661 17.7269 7.01211 17.6891C6.8239 17.621 6.81899 17.6236 6.47191 17.9741C6.01803 18.4323 5.6604 18.7551 5.60655 18.7551C5.58301 18.7551 5.49528 18.691 5.41156 18.6127C5.3279 18.5343 5.24587 18.4702 5.22933 18.4702C5.1779 18.4702 4.97077 18.2886 4.44937 17.7864C4.17281 17.52 3.92323 17.2934 3.89484 17.283C3.86638 17.2725 3.84313 17.2387 3.84313 17.2077C3.84313 17.1767 3.8114 17.1176 3.77256 17.0763C3.62364 16.9179 3.50441 16.7575 3.50441 16.7155C3.50441 16.6915 3.4536 16.6348 3.3915 16.5897C3.3294 16.5445 3.2786 16.4584 3.2786 16.3984C3.2786 16.3362 3.50915 16.0588 3.8149 15.7532C4.19251 15.3757 4.3512 15.177 4.3512 15.0818C4.3512 15.0074 4.33167 14.938 4.30785 14.9275C4.27014 14.9111 4.17738 14.7287 3.80818 13.9453C3.76533 13.8543 3.73022 13.7325 3.73022 13.6746C3.73022 13.6167 3.70482 13.5694 3.67377 13.5694C3.64272 13.5694 3.61731 13.4925 3.61731 13.3984C3.61731 13.3044 3.59191 13.2275 3.56086 13.2275C3.52981 13.2275 3.50362 13.1698 3.5026 13.0993C3.50164 13.0287 3.46252 12.9197 3.41566 12.8571C3.33957 12.7552 3.24574 12.7401 2.52952 12.7146L1.72851 12.6861L1.65574 12.3727C1.55893 11.9559 1.55785 10.1226 1.65411 9.66583L1.72614 9.32392L2.53472 9.29542C3.26748 9.26961 3.34939 9.25627 3.40861 9.15296C3.50277 8.98872 3.61545 8.65655 3.61647 8.54036C3.61692 8.48548 3.64272 8.44063 3.67377 8.44063C3.70482 8.44063 3.73022 8.37806 3.73022 8.30153C3.73022 8.22499 3.75562 8.14658 3.78667 8.1272C3.81772 8.10783 3.84313 8.04224 3.84313 7.98138C3.84313 7.92052 3.86853 7.87077 3.89958 7.87077C3.93063 7.87077 3.95603 7.83475 3.95603 7.79076C3.95603 7.74676 4.04495 7.55199 4.15362 7.35789C4.26229 7.1638 4.35092 6.96264 4.35058 6.91078C4.3499 6.80262 3.88699 6.27515 3.79277 6.27515C3.75839 6.27515 3.73022 6.24848 3.73022 6.21589C3.73022 6.18329 3.62561 6.05616 3.49769 5.93335C3.22068 5.66734 3.22745 5.53274 3.53343 5.22387C3.64165 5.11463 3.73022 5.01086 3.73022 4.99325C3.73022 4.9109 4.9233 3.71078 5.00515 3.71078C5.0209 3.71078 5.09531 3.64866 5.1705 3.57275C5.24576 3.49679 5.35889 3.41815 5.422 3.39792C5.48512 3.37769 5.53672 3.33729 5.53672 3.30805C5.53672 3.17858 5.68733 3.2901 6.19614 3.79625C6.65906 4.25676 6.76779 4.33762 6.92416 4.33762C7.02527 4.33762 7.11644 4.31785 7.12683 4.29363C7.15274 4.233 8.00732 3.82475 8.10832 3.82475C8.15325 3.82475 8.19 3.7991 8.19 3.76776C8.19 3.73642 8.26621 3.71078 8.35936 3.71078C8.45251 3.71078 8.52872 3.68513 8.52872 3.65379C8.52872 3.62245 8.56722 3.5968 8.6143 3.5968C8.79456 3.5968 9.14011 3.45445 9.20175 3.35478C9.24014 3.29272 9.26854 2.96517 9.27192 2.54575C9.27503 2.15813 9.29851 1.80652 9.32409 1.76441C9.35356 1.71586 9.58349 1.66469 9.95173 1.62474C10.7412 1.53909 11.1314 1.53487 11.8149 1.60451ZM14.8897 2.36516C15.0504 2.40881 15.2638 2.48586 15.364 2.53629C15.4642 2.58678 15.5748 2.62804 15.6098 2.62804C15.6447 2.62804 15.7099 2.67933 15.7547 2.74201C15.7995 2.80469 15.8688 2.85598 15.9088 2.85598C15.9838 2.85598 16.2702 3.08809 16.4275 3.27631C16.4766 3.33507 16.5697 3.43855 16.6343 3.50625C16.8228 3.70377 17.166 4.3635 17.166 4.5283V4.67954H16.5914C16.2754 4.67954 15.9387 4.70347 15.8434 4.73265C15.748 4.76189 15.5617 4.81739 15.4292 4.85603C15.1704 4.93159 15.1626 4.96863 15.3343 5.30969C15.3967 5.43364 15.4378 5.45187 15.6094 5.43164C15.7204 5.41859 15.8112 5.38503 15.8112 5.35716C15.8112 5.32924 16.2176 5.30639 16.7144 5.30639C17.2789 5.30639 17.6176 5.32776 17.6176 5.36337C17.6176 5.39472 17.7066 5.42036 17.8152 5.42036C17.9239 5.42036 18.0128 5.446 18.0128 5.47735C18.0128 5.50869 18.05 5.53433 18.0955 5.53433C18.1848 5.53433 18.6144 5.76228 18.8878 5.95478C19.1353 6.12904 19.7064 6.705 19.7064 6.78034C19.7064 6.8159 19.7318 6.84502 19.7629 6.84502C19.7939 6.84502 19.8193 6.88137 19.8193 6.92577C19.8193 6.97016 19.8396 7.01501 19.8645 7.02549C19.9617 7.06641 20.2638 7.80871 20.3573 8.23633C20.4832 8.81292 20.4465 9.5591 20.2644 10.1217C20.1935 10.3411 20.1151 10.5292 20.0902 10.5396C20.0654 10.5501 20.0451 10.6078 20.0451 10.6678C20.0451 10.7279 20.0197 10.7771 19.9887 10.7771C19.9576 10.7771 19.9322 10.8155 19.9322 10.8625C19.9322 10.9096 19.9068 10.948 19.8758 10.948C19.8447 10.948 19.8193 10.9865 19.8193 11.0335C19.8193 11.0805 19.7939 11.119 19.7629 11.119C19.7318 11.119 19.7064 11.1487 19.7064 11.1849C19.7064 11.2859 18.9525 12.0049 18.7534 12.0939C18.6566 12.1372 18.5773 12.1919 18.5773 12.2156C18.5773 12.2393 18.5265 12.2587 18.4644 12.2587C18.4023 12.2587 18.3515 12.2843 18.3515 12.3157C18.3515 12.347 18.3116 12.3727 18.2628 12.3727C18.214 12.3727 18.1378 12.4093 18.0935 12.4541C18.0015 12.5469 17.9844 12.7716 18.0693 12.7716C18.1003 12.7716 18.1257 12.8229 18.1257 12.8856C18.1257 12.9684 18.1634 12.9995 18.2635 12.9995C18.3393 12.9995 18.417 12.9739 18.4362 12.9425C18.4554 12.9112 18.5096 12.8856 18.5567 12.8856C18.7091 12.8856 19.4262 12.377 19.7648 12.0288C20.1526 11.63 20.2161 11.6478 20.3173 12.1833C20.4442 12.8544 20.4512 13.0849 20.3609 13.6132C20.2633 14.1838 19.9819 14.9371 19.8662 14.9371C19.8404 14.9371 19.8193 14.9691 19.8193 15.0083C19.8192 15.0766 19.6846 15.2579 19.407 15.5639C19.1652 15.8305 18.8001 16.1114 18.4766 16.2795C18.2991 16.3717 18.1455 16.4664 18.1352 16.4899C18.1248 16.5135 18.0295 16.5327 17.9235 16.5327C17.8174 16.5327 17.7306 16.5557 17.7306 16.5839C17.7306 16.6576 17.2738 16.7145 16.6862 16.7138C16.078 16.7131 15.5853 16.6551 15.5853 16.5841C15.5853 16.5559 15.54 16.5327 15.4846 16.5327C15.4176 16.5327 15.3544 16.6137 15.2957 16.7749C15.1854 17.0777 15.212 17.1595 15.4207 17.1595C15.5113 17.1595 15.5853 17.1852 15.5853 17.2165C15.5853 17.2478 15.7235 17.2735 15.8925 17.2735C16.0615 17.2735 16.2154 17.2991 16.2346 17.3305C16.2537 17.3618 16.4711 17.3875 16.7177 17.3875C17.1309 17.3875 17.166 17.3966 17.166 17.5033C17.166 17.6151 16.9083 18.184 16.8313 18.2423C16.8106 18.2579 16.7326 18.3605 16.6579 18.4702C16.5833 18.5799 16.4702 18.7161 16.4066 18.7729C16.132 19.018 16.0343 19.097 16.006 19.097C15.9894 19.097 15.9212 19.1483 15.8546 19.211C15.788 19.2737 15.7001 19.325 15.6594 19.325C15.6186 19.325 15.5853 19.3477 15.5853 19.3753C15.5853 19.403 15.5282 19.4399 15.4583 19.4573C15.3884 19.4746 15.1792 19.5441 14.9932 19.6116C14.5745 19.7637 13.517 19.7853 13.0693 19.6508C12.6843 19.5352 12.2443 19.3228 12.1351 19.1999C12.0849 19.1433 12.0185 19.097 11.9875 19.097C11.9566 19.097 11.8643 19.0295 11.7824 18.9468C11.6442 18.8073 11.6336 18.7609 11.6336 18.2961C11.6336 18.0209 11.649 17.7551 11.6679 17.7056C11.7233 17.5597 12.1626 17.5853 12.3226 17.7437C12.6375 18.0556 13.1704 18.111 13.5242 17.8686C13.805 17.6762 13.8918 17.5846 13.8918 17.4803C13.8918 17.433 13.9172 17.3783 13.9482 17.359C13.9793 17.3396 14.0047 17.1971 14.0047 17.0422C14.0047 16.8873 13.9793 16.7606 13.9482 16.7606C13.9172 16.7606 13.8918 16.7192 13.8918 16.6686C13.8918 16.5279 13.4989 16.1958 13.2538 16.1291C12.8478 16.0188 12.1982 16.2822 12.1982 16.5571C12.1982 16.6064 12.1728 16.6466 12.1417 16.6466C12.1107 16.6466 12.0853 16.7076 12.0853 16.7822C12.0853 16.8785 12.0372 16.9378 11.9193 16.9871C11.8281 17.0253 11.7264 17.0397 11.6935 17.0192C11.6546 16.9949 11.6336 16.5847 11.6336 15.8455V14.7091H12.8514C14.1329 14.7091 14.1362 14.7097 14.2799 14.9808C14.3668 15.1447 14.7397 15.336 14.9722 15.336C15.321 15.336 15.8112 15.0831 15.8112 14.903C15.8112 14.8643 15.8378 14.8236 15.8703 14.8127C15.9029 14.8017 15.944 14.6505 15.9618 14.4765C16.017 13.9369 15.7117 13.5273 15.1792 13.4264C14.7869 13.3522 14.252 13.6306 14.1472 13.9637C14.111 14.0789 14.0758 14.0823 12.9061 14.0823C11.6042 14.0823 11.6336 14.0895 11.6336 13.7701C11.6336 13.6104 12.1682 13.1135 12.3399 13.1135C12.3862 13.1135 12.424 13.0941 12.424 13.0704C12.424 13.0467 12.5066 12.9933 12.6074 12.9517C12.7083 12.9101 12.8417 12.8539 12.9038 12.8269C13.0338 12.7704 13.5581 12.6637 13.8071 12.6431C13.966 12.63 13.9774 12.6129 13.9934 12.3656C14.0063 12.1643 13.9886 12.0937 13.9186 12.0666C13.8107 12.0248 13.0607 12.1292 12.9187 12.2058C12.8648 12.2349 12.771 12.2587 12.7104 12.2587C12.6497 12.2587 12.5843 12.2843 12.5651 12.3157C12.5459 12.347 12.4809 12.3727 12.4206 12.3727C12.3604 12.3727 12.3111 12.3983 12.3111 12.4297C12.3111 12.461 12.2603 12.4866 12.1982 12.4866C12.1361 12.4866 12.0853 12.5076 12.0853 12.5331C12.0853 12.5962 11.7102 12.7729 11.6676 12.7299C11.6232 12.685 11.6234 11.4971 11.6679 11.3801C11.6982 11.3004 11.918 11.2899 13.5608 11.2899C15.2794 11.2899 15.4223 11.2975 15.4563 11.3897C15.5531 11.6515 16.0598 11.9731 16.3757 11.9731C16.5947 11.9731 16.8933 11.8388 17.0695 11.6609C17.636 11.0891 17.1733 10.0362 16.3555 10.0362C16.1373 10.0362 15.5853 10.3113 15.5853 10.42C15.5853 10.6536 15.5053 10.6631 13.5288 10.6631H11.6336V9.98877C11.6336 9.61785 11.6489 9.29901 11.6675 9.28026C11.7108 9.2365 11.9724 9.35514 11.9724 9.41857C11.9724 9.44484 12.0232 9.46638 12.0853 9.46638C12.1474 9.46638 12.1982 9.49202 12.1982 9.52337C12.1982 9.55471 12.249 9.58035 12.3111 9.58035C12.3732 9.58035 12.424 9.606 12.424 9.63734C12.424 9.66868 12.4875 9.69433 12.5651 9.69433C12.6427 9.69433 12.7062 9.71718 12.7062 9.7451C12.7062 9.80779 12.994 9.86021 13.5705 9.90238L14.0113 9.93464L13.9939 9.6578L13.9764 9.3809L13.6377 9.33987C13.2606 9.29411 12.4812 9.06269 12.4807 8.99624C12.4805 8.97277 12.4423 8.95351 12.3957 8.95351C12.3492 8.95351 12.3111 8.92786 12.3111 8.89652C12.3111 8.86518 12.2718 8.83953 12.2238 8.83953C12.1759 8.83953 12.0774 8.78186 12.0051 8.71131C11.9328 8.64077 11.8196 8.53847 11.7537 8.48394C11.6727 8.41704 11.6336 8.31959 11.6336 8.18476V7.98474H12.8514C13.8315 7.98474 14.0849 8.00064 14.1498 8.06617C14.1942 8.11091 14.2305 8.17559 14.2305 8.20989C14.2305 8.24414 14.3498 8.34854 14.4956 8.44188C14.7038 8.57523 14.8249 8.61159 15.0601 8.61159C15.2248 8.61159 15.3595 8.58594 15.3595 8.5546C15.3595 8.52326 15.3987 8.49762 15.4466 8.49762C15.6811 8.49762 15.9797 8.04161 15.9801 7.68271C15.9809 7.13029 15.5473 6.67468 15.0208 6.67468C14.7026 6.67468 14.3553 6.88644 14.1572 7.20118L14.0585 7.35789H12.8803C11.8581 7.35789 11.6977 7.34598 11.6679 7.26774C11.649 7.21816 11.6336 6.69167 11.6336 6.09776C11.6336 5.16979 11.6461 5.01308 11.7221 4.98362C11.8654 4.92811 12.0853 5.08027 12.0853 5.23498C12.0853 5.41922 12.4582 5.77482 12.7552 5.87374C13.0669 5.97757 13.3886 5.88087 13.6649 5.60032C13.9152 5.34611 14.0586 4.95074 13.9588 4.78947C13.922 4.72986 13.8918 4.63931 13.8918 4.58819C13.8918 4.46163 13.4525 4.05269 13.3166 4.05269C13.2562 4.05269 13.1641 4.03121 13.1118 4.005C12.9687 3.93319 12.5197 4.08797 12.3243 4.27642C12.164 4.43102 12.1393 4.43724 11.8939 4.38441L11.6336 4.32839V3.76947V3.21055L11.9007 2.97628C12.0475 2.84743 12.1979 2.74201 12.2347 2.74201C12.2716 2.74201 12.3101 2.72155 12.3205 2.69659C12.3556 2.6118 12.8589 2.40705 13.2491 2.31872C13.6934 2.21819 14.4248 2.23888 14.8897 2.36516ZM13.2451 4.70547C13.4939 4.95655 13.3609 5.30639 13.0167 5.30639C12.6809 5.30639 12.5276 4.9129 12.7734 4.68176C12.9367 4.52813 13.0764 4.53514 13.2451 4.70547ZM10.9433 4.95518C10.9984 4.99051 11.0115 5.27208 10.9997 6.16528L10.9844 7.3294L10.269 7.3453C9.58388 7.36057 9.55193 7.35612 9.51574 7.24101C9.43078 6.97084 8.97374 6.67468 8.64163 6.67468C8.25159 6.67468 7.77028 7.04287 7.70564 7.3906C7.66194 7.62573 7.72382 8.09871 7.79828 8.09871C7.82746 8.09871 7.85129 8.12618 7.85129 8.15974C7.85129 8.23331 7.93343 8.31703 8.17047 8.48525C8.40628 8.65256 8.82256 8.65615 9.08732 8.49323C9.29462 8.36564 9.43197 8.24249 9.43197 8.18419C9.43197 8.16402 9.46827 8.11091 9.51264 8.06617C9.57395 8.00423 9.76318 7.98474 10.303 7.98474H11.0127V9.32392V10.6631H9.45269C7.92609 10.6631 7.89052 10.6605 7.78733 10.5404C7.72935 10.4729 7.68193 10.3971 7.68193 10.3718C7.68193 10.2752 7.18559 10.0362 6.98479 10.0362C6.71286 10.0362 6.30651 10.2324 6.21291 10.409C6.17204 10.486 6.11908 10.5491 6.09515 10.5491C6.07127 10.5491 6.03418 10.6671 6.01278 10.8113C5.94877 11.242 6.06737 11.5169 6.45605 11.8389C6.58318 11.9443 6.97514 11.9861 7.21726 11.9203C7.47209 11.8511 7.85129 11.5307 7.85129 11.3847C7.85129 11.2959 7.97706 11.2894 9.41786 11.3033L10.9844 11.3184V12.6861V14.0538L10.269 14.0697C9.58388 14.0849 9.55193 14.0805 9.51574 13.9654C9.45568 13.7744 9.15253 13.5176 8.90904 13.4514C8.68137 13.3895 8.27734 13.4269 8.16652 13.5201C8.13287 13.5484 8.05192 13.6159 7.98666 13.6702C7.76282 13.8563 7.66533 14.1312 7.70061 14.4765C7.7184 14.6505 7.75955 14.8017 7.79212 14.8127C7.82464 14.8236 7.85129 14.8695 7.85129 14.9145C7.85129 15.0633 8.35564 15.336 8.6309 15.336C8.85479 15.336 9.31895 15.1463 9.31912 15.0548C9.31918 15.0371 9.3793 14.952 9.45274 14.8658C9.58529 14.7103 9.59139 14.7091 10.2994 14.7091H11.0127V15.8712C11.0127 16.7667 10.9959 17.0398 10.9399 17.0615C10.8457 17.098 9.78519 16.9985 9.60133 16.9358C9.5237 16.9095 9.34588 16.8548 9.20616 16.8143C9.06644 16.7739 8.92796 16.7196 8.89849 16.6937C8.86896 16.6678 8.78643 16.6466 8.71502 16.6466C8.6436 16.6466 8.58517 16.621 8.58517 16.5897C8.58517 16.5583 8.54865 16.5327 8.50399 16.5327C8.35106 16.5327 7.5688 16.0579 7.09561 15.6779C6.87352 15.4995 6.2706 14.8854 6.2706 14.8376C6.2706 14.8101 6.22025 14.733 6.15866 14.6663C5.98868 14.4821 5.59373 13.8479 5.55698 13.7002C5.53909 13.6283 5.50183 13.5694 5.47416 13.5694C5.44645 13.5694 5.42381 13.5196 5.42381 13.4588C5.42381 13.3979 5.39841 13.3323 5.36736 13.3129C5.33631 13.2936 5.3109 13.2152 5.3109 13.1386C5.3109 13.0621 5.28838 12.9995 5.26083 12.9995C5.23334 12.9995 5.19681 12.929 5.17965 12.8428C5.16249 12.7566 5.12116 12.5707 5.08774 12.4297C4.89987 11.6367 4.87255 10.3886 5.02971 9.77981C5.16446 9.25793 5.34195 8.72613 5.38147 8.72585C5.40473 8.72567 5.42381 8.6892 5.42381 8.64481C5.42381 8.54514 5.77269 7.87533 6.00499 7.52885C6.17757 7.2715 7.23629 6.16118 7.30906 6.16118C7.33045 6.16118 7.40243 6.10995 7.46899 6.04732C7.53554 5.98475 7.78219 5.83727 8.01703 5.71965C8.25188 5.60209 8.45251 5.48658 8.46284 5.4631C8.47323 5.43962 8.52889 5.42036 8.58653 5.42036C8.64422 5.42036 8.70711 5.39472 8.72631 5.36337C8.7455 5.33203 8.82318 5.30639 8.899 5.30639C8.97481 5.30639 9.0368 5.28074 9.0368 5.2494C9.0368 5.21806 9.11148 5.19242 9.20283 5.19242C9.29417 5.19242 9.3819 5.1711 9.39787 5.145C9.42604 5.09896 10.1326 4.97991 10.5893 4.9443C10.7135 4.93455 10.8278 4.9227 10.8433 4.91791C10.8588 4.91313 10.9038 4.92994 10.9433 4.95518ZM8.76786 7.30444C8.84023 7.33772 8.93168 7.43853 8.97114 7.52845C9.0351 7.67428 9.02923 7.70773 8.91672 7.83834C8.77486 8.00303 8.51387 8.03489 8.38358 7.90331C8.26142 7.78005 8.284 7.49409 8.42648 7.36011C8.56892 7.22614 8.59014 7.22272 8.76786 7.30444ZM15.2108 7.36205C15.3786 7.49529 15.4129 7.76802 15.2789 7.90331C15.1611 8.02224 14.8005 8.00964 14.755 7.88501C14.7349 7.83014 14.6943 7.76888 14.6646 7.74876C14.5859 7.69548 14.7409 7.37516 14.878 7.30786C15.0385 7.2291 15.0446 7.23013 15.2108 7.36205ZM7.2281 10.7878C7.41022 10.9851 7.35388 11.1897 7.07636 11.3389C6.86912 11.4504 6.6118 11.2685 6.61017 11.0095C6.60819 10.6882 7.00483 10.5459 7.2281 10.7878ZM16.6334 10.8032C16.7559 10.992 16.6963 11.254 16.5114 11.3391C16.3171 11.4284 16.2982 11.4242 16.1293 11.2537C15.9554 11.0781 15.9429 10.9618 16.0793 10.7894C16.2203 10.6113 16.5136 10.6187 16.6334 10.8032ZM8.81279 14.0571C8.86038 14.0747 8.93163 14.1627 8.97109 14.2527C9.0351 14.3987 9.02923 14.4321 8.91672 14.5627C8.77486 14.7274 8.51387 14.7593 8.38358 14.6277C8.29851 14.5419 8.27593 14.2642 8.3461 14.1677C8.41401 14.0745 8.60917 13.9735 8.66985 14.0003C8.7009 14.014 8.76526 14.0396 8.81279 14.0571ZM15.1486 14.0395C15.2181 14.0787 15.2935 14.1364 15.3163 14.1677C15.3865 14.2642 15.3639 14.5419 15.2789 14.6277C15.143 14.7648 14.7385 14.7182 14.7385 14.5653C14.7385 14.5242 14.7089 14.4807 14.6726 14.4685C14.6234 14.4519 14.6259 14.4021 14.6822 14.2736C14.745 14.1303 14.8158 14.0654 15.0075 13.9753C15.0157 13.9714 15.0792 14.0004 15.1486 14.0395ZM13.2686 16.8284C13.401 16.9718 13.4092 17.0406 13.3181 17.2423C13.2631 17.3642 13.2148 17.3875 13.0167 17.3875C12.8187 17.3875 12.7703 17.3642 12.7153 17.2423C12.6231 17.0381 12.6331 16.9484 12.7627 16.8176C12.9107 16.6682 13.125 16.6728 13.2686 16.8284Z" stroke="white" stroke-width="0.181818" mask="url(#path-1-outside-1_1622_26043)"/>
</svg>
