<svg width="28" height="28" viewBox="0 0 28 28" fill="none" xmlns="http://www.w3.org/2000/svg">
<path d="M24.7727 22.9141C26.2073 21.1894 27.2051 19.1449 27.6817 16.9534C28.1582 14.762 28.0995 12.4881 27.5105 10.3241C26.9215 8.16014 25.8196 6.16973 24.2979 4.52127C22.7762 2.87282 20.8795 1.61481 18.7683 0.853666C16.6571 0.0925244 14.3935 -0.149357 12.169 0.148484C9.94444 0.446325 7.82442 1.27513 5.98826 2.56477C4.15209 3.85442 2.65381 5.56698 1.62014 7.55757C0.586476 9.54816 0.0478442 11.7582 0.04981 14.0008C0.0505644 17.2609 1.20034 20.4165 3.29738 22.9141L3.2774 22.931C3.34733 23.0149 3.42725 23.0867 3.49917 23.1696C3.58908 23.2724 3.68597 23.3692 3.77887 23.469C4.05858 23.7725 4.34628 24.0639 4.64796 24.3374C4.73986 24.4212 4.83476 24.4991 4.92766 24.5789C5.24732 24.8544 5.57598 25.1159 5.91662 25.3595C5.96057 25.3894 6.00053 25.4283 6.04448 25.4593V25.4473C8.38412 27.0924 11.1752 27.9753 14.036 27.9753C16.8969 27.9753 19.688 27.0924 22.0276 25.4473V25.4593C22.0716 25.4283 22.1105 25.3894 22.1555 25.3595C22.4951 25.1149 22.8248 24.8544 23.1444 24.5789C23.2373 24.4991 23.3322 24.4202 23.4241 24.3374C23.7258 24.0629 24.0135 23.7725 24.2932 23.469C24.3861 23.3692 24.482 23.2724 24.5729 23.1696C24.6439 23.0867 24.7248 23.0149 24.7947 22.93L24.7727 22.9141ZM14.0351 6.01579C14.9241 6.01579 15.7932 6.27922 16.5325 6.77276C17.2717 7.26629 17.8479 7.96778 18.1881 8.78851C18.5284 9.60924 18.6174 10.5123 18.4439 11.3836C18.2705 12.2549 17.8424 13.0552 17.2137 13.6834C16.585 14.3115 15.784 14.7393 14.912 14.9126C14.04 15.0859 13.1362 14.997 12.3148 14.657C11.4934 14.3171 10.7913 13.7414 10.2974 13.0027C9.80344 12.2641 9.53979 11.3957 9.53979 10.5074C9.53979 9.31612 10.0134 8.17367 10.8564 7.33134C11.6994 6.48901 12.8428 6.01579 14.0351 6.01579ZM6.05048 22.9141C6.06781 21.6035 6.60084 20.3524 7.53427 19.4315C8.4677 18.5106 9.72645 17.994 11.0382 17.9933H17.0319C18.3437 17.994 19.6024 18.5106 20.5358 19.4315C21.4693 20.3524 22.0023 21.6035 22.0196 22.9141C19.8288 24.8867 16.9842 25.9784 14.0351 25.9784C11.0859 25.9784 8.24132 24.8867 6.05048 22.9141Z" fill="white"/>
</svg>
